<?xml version="1.0" encoding="utf-8"?>
<!-- Generator: Adobe Illustrator 18.0.0, SVG Export Plug-In . SVG Version: 6.00 Build 0)  -->
<svg version="1.1" id="Layer_1" xmlns="http://www.w3.org/2000/svg" xmlns:xlink="http://www.w3.org/1999/xlink" x="0px" y="0px"
	 viewBox="0 0 250 250" enable-background="new 0 0 250 250" xml:space="preserve">
<rect x="12.3" y="40.8" width="223.5" height="150"/>
<path d="M220.5,42.5c7.2,0,13.2,5.8,13.2,13.2v121.1c0,7.2-5.8,13.2-13.2,13.2h-36.2v42.3l-57.6-42.3H28.2
	c-7.2,0-13.2-5.8-13.2-13.2V55.6c0-7.2,5.8-13.2,13.2-13.2H220.5 M220.5,27.7H28.2c-15.4,0-27.9,12.5-27.9,27.9v121.1
	c0,15.4,12.5,27.9,27.9,27.9h93.7l53.7,39.5c2.6,1.9,5.7,2.9,8.7,2.9c2.2,0,4.6-0.5,6.7-1.6c5-2.5,8.1-7.6,8.1-13.2v-27.6h21.5
	c15.4,0,27.9-12.5,27.9-27.9V55.6C248.5,40.3,235.9,27.7,220.5,27.7L220.5,27.7z"/>
<g>
	<circle fill="#FFFFFF" cx="70.5" cy="116.2" r="13.3"/>
	<circle fill="#FFFFFF" cx="124.4" cy="116.2" r="13.3"/>
	<circle fill="#FFFFFF" cx="178.2" cy="116.2" r="13.3"/>
</g>
<polygon points="111.9,189.1 185.8,239.5 188,233.9 188.4,182.1 "/>
</svg>
