<?xml version="1.0" encoding="utf-8"?>
<!-- Generator: Adobe Illustrator 18.0.0, SVG Export Plug-In . SVG Version: 6.00 Build 0)  -->
<svg version="1.1" id="Layer_1" xmlns="http://www.w3.org/2000/svg" xmlns:xlink="http://www.w3.org/1999/xlink" x="0px" y="0px"
	 viewBox="0 0 1000 250" enable-background="new 0 0 1000 250" xml:space="preserve">
<g>
	<path fill="#C22126" d="M2.1,58.3v-0.5c0-12.3,7.7-20.6,18.4-20.6c6,0,9.9,2.2,13,5.4l-5,6.5c-2.4-2.5-5-4.1-8.3-4.1
		c-5.5,0-9.5,5-9.5,12.9v0.2c0,8.1,4.2,13,9.6,13c3.2,0,5.6-1.5,8.3-4.2l5,6c-3.7,3.8-7.5,6.1-13.7,6.1C9.3,78.9,2.1,70.7,2.1,58.3z
		"/>
	<path fill="#C22126" d="M40.9,37.7h8.4V54h13.3V37.7H71v40.6h-8.4V61.8H49.3v16.5h-8.4V37.7z"/>
	<path fill="#C22126" d="M80.9,37.7h8.4v40.6h-8.4V37.7z"/>
	<path fill="#C22126" d="M99.2,37.7h7.7l15.5,23.7V37.7h8.2v40.6h-7.2l-16.1-24.5v24.5h-8.2V37.7z"/>
	<path fill="#C22126" d="M151.7,37.5h8l14.6,40.8h-8.7l-3-8.8h-14l-3,8.8h-8.5L151.7,37.5z M160,62.1l-4.4-13.2l-4.5,13.2H160z"/>
	<path fill="#C22126" d="M195.2,37.7h15.2c4.7,0,8.5,1.3,11,3.9c2.2,2.2,3.4,5.4,3.4,9.4v0.2c0,6.1-3.1,10-7.5,12l8.6,15.1h-9.6
		L208.9,65h-5.3v13.3h-8.4V37.7z M209.8,57.5c4.3,0,6.6-2.4,6.6-6.1v-0.1c0-4.1-2.5-6.1-6.8-6.1h-6v12.2H209.8z"/>
	<path fill="#C22126" d="M233,37.7h26.2v7.6h-17.8v8.8H257v7.6h-15.7v9h18v7.6H233V37.7z"/>
	<path fill="#C22126" d="M267.4,37.7h13.5c9.1,0,14.8,5.3,14.8,13.9v0.1c0,9.3-6.7,14-15.2,14.2h-4.8v12.4h-8.4V37.7z M280.5,58.4
		c4.3,0,6.8-2.7,6.8-6.5v-0.1c0-4.2-2.4-6.6-6.9-6.6h-4.6v13.1H280.5z"/>
	<path fill="#C22126" d="M301.3,58.4v-0.7c0-12.2,7.7-20.7,18.4-20.7c10.8,0,18.3,8.5,18.3,20.6v0.7c0,12.1-7.7,20.7-18.4,20.7
		C308.8,79,301.3,70.5,301.3,58.4z M329.3,58.2v-0.4c0-8-4.1-13-9.7-13c-5.7,0-9.7,5-9.7,13v0.4c0,8,4.1,13,9.7,13
		C325.3,71.2,329.3,66.2,329.3,58.2z"/>
	<path fill="#C22126" d="M346.1,37.7h15.2c4.7,0,8.5,1.3,11,3.9c2.2,2.2,3.4,5.4,3.4,9.4v0.2c0,6.1-3.1,10-7.5,12l8.6,15.1h-9.6
		L359.8,65h-5.3v13.3h-8.4V37.7z M360.7,57.5c4.3,0,6.6-2.4,6.6-6.1v-0.1c0-4.1-2.5-6.1-6.8-6.1h-6v12.2H360.7z"/>
	<path fill="#C22126" d="M391.5,45.5h-10.2v-7.8h28.8v7.8h-10.2v32.8h-8.3V45.5z"/>
</g>
<g>
	<path fill="#C22126" d="M30.8,129.4h22.8l30.9,88.2H60.9l-5.1-15.8H28.2l-5,15.8H0L30.8,129.4z M50.1,183.8L42,158.1l-8.1,25.7
		H50.1z"/>
	<path fill="#C22126" d="M87.3,206l12-16.4c7.1,5.9,15.3,9.9,23.8,9.9c6,0,9.1-2.6,9.1-6.4v-0.1c0-3.5-2.6-5.6-12.9-9.3
		c-16.5-5.6-28.2-11.7-28.2-27.6v-0.4c0-15.9,12.2-27.1,31.3-27.1c11.8,0,22.2,3.3,31.3,10.6l-11.4,16.8c-6-4.6-13.3-8-20.4-8
		c-5.1,0-8,2.5-8,5.8v0.1c0,3.9,2.8,5.9,13.9,10c16.7,5.4,27.1,12.2,27.1,27.1v0.3c0,17-13.2,27.6-31.9,27.6
		C110,218.9,97.6,214.9,87.3,206z"/>
	<path fill="#C22126" d="M167.8,129.9h60.4v19.8h-38.1v14.4h34.3v18.7h-34.3v15h38.6v19.8h-60.9V129.9z"/>
	<path fill="#C22126" d="M267.1,129.4h22.8l30.9,88.2h-23.7l-5.1-15.8h-27.6l-5,15.8h-23.2L267.1,129.4z M286.4,183.8l-8.1-25.7
		l-8.1,25.7H286.4z"/>
	<path fill="#C22126" d="M330.9,129.9H352l29.2,44.1v-44.1h22.2v87.7h-20l-30.3-46v46h-22.2V129.9z"/>
</g>
<rect x="1.7" y="102.4" fill="#C22126" width="198" height="6.9"/>
<rect x="207.2" y="102.4" fill="#FBAD38" width="198" height="6.9"/>
</svg>
