<?xml version="1.0" encoding="utf-8"?>
<!-- Generator: Adobe Illustrator 18.0.0, SVG Export Plug-In . SVG Version: 6.00 Build 0)  -->
<svg version="1.1" id="Layer_1" xmlns="http://www.w3.org/2000/svg" xmlns:xlink="http://www.w3.org/1999/xlink" x="0px" y="0px"
	 viewBox="0 0 632.9 250" enable-background="new 0 0 632.9 250" xml:space="preserve">
<path fill="none" stroke="#123E4E" stroke-width="7" stroke-miterlimit="10" d="M601.1,228.3H35c-9.5,0-17.3-7.7-17.3-17.3V38.1
	c0-9.5,7.7-17.3,17.3-17.3h566.1c9.5,0,17.3,7.7,17.3,17.3V211C618.4,220.6,610.7,228.3,601.1,228.3z"/>
<g>
	<path fill="none" stroke="#D7DF2A" stroke-width="2.046" stroke-miterlimit="10" d="M158.3,49.4L101,193.2
		c-2.3,5.7,3.6,11.3,9.2,8.6l48.1-22.9"/>
	<path fill="none" stroke="#D7DF2A" stroke-width="2.046" stroke-miterlimit="10" d="M158.5,49.4L215.8,193
		c2.3,5.8-3.7,11.4-9.3,8.7l-47.9-22.9"/>
	<path fill="#E7E7E7" stroke="#123E4E" stroke-width="9.5067" stroke-miterlimit="10" enable-background="new    " d="M158.3,49.4
		l-56.3,141c-2.7,6.7,4.3,13.2,10.8,10.1l45.5-21.7"/>
	
		<path opacity="0.75" fill="#E7E7E7" stroke="#123E4E" stroke-width="9.5067" stroke-miterlimit="10" enable-background="new    " d="
		M158.5,49.4l56.7,142.1c2.5,6.4-4,12.5-10.1,9.5l-46.5-22.1"/>
</g>
<g>
	<path fill="#123E4E" d="M244,110.5h8.4V140H244V110.5z"/>
	<path fill="#123E4E" d="M260.4,110.5h8.4v22.9h14.1v6.6h-22.4V110.5z"/>
	<path fill="#123E4E" d="M286.1,137.3l2.7-6.2c2.6,1.7,6.3,2.9,9.7,2.9c3.5,0,4.8-1,4.8-2.4c0-4.7-16.8-1.3-16.8-12.2
		c0-5.3,4.3-9.6,13.1-9.6c3.8,0,7.8,0.9,10.7,2.6l-2.6,6.2c-2.8-1.5-5.6-2.3-8.2-2.3c-3.5,0-4.8,1.2-4.8,2.7c0,4.5,16.8,1.1,16.8,12
		c0,5.1-4.3,9.5-13.1,9.5C293.7,140.6,288.9,139.3,286.1,137.3z"/>
	<path fill="#123E4E" d="M331.9,110.5h8.4v22.9h14.1v6.6h-22.4V110.5z"/>
	<path fill="#123E4E" d="M357.8,125.2c0-8.9,7-15.4,16.4-15.4c9.5,0,16.4,6.5,16.4,15.4s-7,15.4-16.4,15.4
		C364.8,140.6,357.8,134.1,357.8,125.2z M382.2,125.2c0-5.1-3.5-8.4-8-8.4c-4.5,0-8,3.3-8,8.4c0,5.1,3.5,8.4,8,8.4
		C378.7,133.7,382.2,130.3,382.2,125.2z"/>
	<path fill="#123E4E" d="M395.6,125.2c0-8.9,7-15.4,16.4-15.4c9.5,0,16.4,6.5,16.4,15.4s-7,15.4-16.4,15.4
		C402.6,140.6,395.6,134.1,395.6,125.2z M420,125.2c0-5.1-3.5-8.4-8-8.4c-4.5,0-8,3.3-8,8.4c0,5.1,3.5,8.4,8,8.4
		C416.5,133.7,420,130.3,420,125.2z"/>
	<path fill="#123E4E" d="M446.4,129.3l-3.1,3.3v7.4H435v-29.5h8.3v12.3l11.4-12.3h9.2l-12.1,13.1l12.7,16.5h-9.7L446.4,129.3z"/>
	<path fill="#123E4E" d="M468.1,126.8v-16.4h8.4v16.1c0,5.1,2.1,7.1,5.6,7.1c3.5,0,5.6-2,5.6-7.1v-16.1h8.2v16.4
		c0,8.8-5.1,13.8-13.9,13.8S468.1,135.7,468.1,126.8z"/>
	<path fill="#123E4E" d="M530.3,121.4c0,6.7-5.1,10.9-13.1,10.9H512v7.7h-8.4v-29.5h13.5C525.2,110.5,530.3,114.6,530.3,121.4z
		 M521.9,121.4c0-2.7-1.7-4.3-5.2-4.3H512v8.7h4.6C520.1,125.7,521.9,124.1,521.9,121.4z"/>
</g>
</svg>
