<?xml version="1.0" encoding="utf-8"?>
<!-- Generator: Adobe Illustrator 18.0.0, SVG Export Plug-In . SVG Version: 6.00 Build 0)  -->
<svg version="1.1" id="Layer_1" xmlns="http://www.w3.org/2000/svg" xmlns:xlink="http://www.w3.org/1999/xlink" x="0px" y="0px"
	 viewBox="0 0 600 126.5" enable-background="new 0 0 600 126.5" xml:space="preserve">
<polygon fill="#3D3D3C" points="174.4,87.6 174.4,46.8 155.4,74.8 136.3,46.9 136.3,87.6 125.4,87.6 125.4,26.8 137.1,26.8 
	155.4,54.5 173.6,26.8 185.4,26.8 185.4,87.6 "/>
<path fill="#3D3D3C" d="M206.4,85.1c-3.7-2.1-6.5-4.8-8.4-8.3c-1.9-3.4-2.8-7.3-2.8-11.5c0-4.1,0.9-7.8,2.6-11.1
	c1.8-3.4,4.3-6,7.7-8c3.3-2,7.3-3,11.9-3c4.3,0,7.9,0.8,10.8,2.5c2.9,1.7,5.2,3.9,6.7,6.8c1.5,2.8,2.2,6,2.2,9.6
	c0,1.7-0.2,3.7-0.7,5.9H207c0.6,3.8,2.2,6.7,4.7,8.6s5.6,2.8,9.2,2.8c4.9,0,9.5-1.2,13.7-3.6l0.5,9.1c-1.9,1-4.2,1.8-6.8,2.4
	c-2.6,0.6-5.4,0.9-8.4,0.9C214.7,88.2,210.2,87.2,206.4,85.1 M225.7,60.7c0-2.3-0.7-4.3-2-6c-1.3-1.7-3.4-2.6-6.2-2.6
	s-5,0.8-6.7,2.3c-1.7,1.6-2.9,3.6-3.5,6.3H225.7z"/>
<path fill="#3D3D3C" d="M280.8,48.6c2.9,3.6,4.4,8.4,4.4,14.5v24.2h-11.3V64c0-4.1-0.7-7-2.1-9c-1.4-1.9-3.7-2.9-6.9-2.9
	c-3.5,0-6.3,1.2-8.6,3.7v31.5h-11.3V43.9h10.6l0.2,3c3.8-2.5,7.9-3.7,12.2-3.7C273.6,43.2,277.9,45,280.8,48.6"/>
<path fill="#3D3D3C" d="M348.2,85c-1.9-2.1-2.9-4.8-2.9-8.2V22.2h11.3v50.2c0,2.3,0.1,4,0.4,4.9c0.3,1,0.8,1.5,1.5,1.7
	c0.7,0.2,1.9,0.3,3.6,0.3l-1,8.9h-4.1C353,88.2,350.1,87.2,348.2,85"/>
<path fill="#3D3D3C" d="M427,48.6c2.9,3.6,4.4,8.4,4.4,14.5v24.2H420V64c0-4.1-0.7-7-2.1-9c-1.4-1.9-3.7-2.9-6.9-2.9
	c-3.5,0-6.3,1.2-8.6,3.7v31.5h-11.3V43.9h10.6l0.2,3c3.8-2.5,7.9-3.7,12.2-3.7C419.8,43.2,424,45,427,48.6"/>
<path fill="#3D3D3C" d="M444.1,105.9c-3.8-2.2-5.7-5.3-5.7-9.1c0-4.2,2.5-7.6,7.4-10.2c-2.7-1.6-4-3.6-4-6.2c0-1.3,0.4-2.5,1.2-3.6
	c0.8-1,1.9-1.9,3.3-2.5c-2.3-1.6-4.1-3.6-5.2-6c-1.2-2.4-1.8-5.1-1.8-8c0-3.2,0.7-6.1,2.2-8.7c1.5-2.6,3.6-4.7,6.4-6.3
	c2.8-1.5,6.1-2.3,9.9-2.3c4,0,7.5,0.9,10.4,2.8c1-0.5,2.4-1,4.1-1.3c1.7-0.4,3.6-0.6,5.6-0.6h2.9l-0.7,6.8H476c-1,0-1.9,0-2.6,0.1
	c1.8,2.7,2.7,5.8,2.7,9.6c0,3.2-0.7,6.1-2.1,8.7c-1.4,2.6-3.5,4.7-6.3,6.3c-2.8,1.5-6.1,2.3-9.9,2.3c-1.4,0-3-0.2-4.8-0.6
	c-0.7,0.3-1,0.8-1,1.4c0,0.8,0.5,1.3,1.4,1.8c0.9,0.4,2.5,0.8,4.8,1.1l7.8,1c10.5,1.3,15.7,5.5,15.7,12.6c0,4.4-2,7.9-5.9,10.5
	c-3.9,2.6-9.3,3.9-16.3,3.9C453.1,109.2,447.9,108.1,444.1,105.9 M471.6,95.6c0-1.6-0.7-2.8-2-3.6c-1.3-0.8-3.6-1.4-6.7-1.9l-10-1.4
	c-3.5,1.3-5.2,3.4-5.2,6.1c0,2.1,1.1,3.6,3.2,4.7c2.1,1,5.1,1.6,9,1.6C467.7,101.1,471.6,99.2,471.6,95.6 M463.8,67.2
	c1.4-1.7,2.1-3.9,2.1-6.8c0-2.9-0.7-5.2-2.1-6.8c-1.4-1.7-3.5-2.5-6.1-2.5c-2.7,0-4.7,0.8-6.2,2.5c-1.4,1.7-2.1,3.9-2.1,6.8
	c0,2.9,0.7,5.2,2.1,6.8c1.4,1.7,3.5,2.5,6.2,2.5C460.4,69.6,462.4,68.8,463.8,67.2"/>
<path fill="#3D3D3C" d="M537.9,84.7c-2.5-2.3-3.8-5.5-3.8-9.5c0-3.8,1.4-6.8,4.3-9.1c2.9-2.3,6.2-3.9,10.1-4.9
	c3.9-1,7.6-1.5,11.2-1.6c-0.1-2.5-0.8-4.4-2-5.5c-1.2-1.1-3.3-1.7-6.2-1.7c-2,0-4,0.3-5.9,0.8c-1.9,0.5-4.1,1.4-6.6,2.5l-1-8.8
	c5.5-2.5,11.1-3.8,16.6-3.8c5.3,0,9.4,1.4,12.3,4.2c2.8,2.8,4.2,7.2,4.2,13.3v11.7c0,2.2,0.1,3.8,0.3,4.7c0.2,1,0.6,1.6,1.1,1.8
	c0.5,0.3,1.4,0.4,2.6,0.4h1.5l-1,8.9h-4.1c-2.5,0-4.6-0.4-6.3-1.3c-1.7-0.9-3-2.1-3.9-3.7c-1.5,1.6-3.4,2.8-6,3.7
	c-2.5,0.9-5.2,1.3-8,1.3C543.6,88.2,540.4,87,537.9,84.7 M556,79.1c1.5-0.5,2.7-1.3,3.8-2.3v-9.9c-3.6,0.2-6.9,0.9-9.7,2.3
	c-2.8,1.3-4.2,3.2-4.2,5.6c0,1.8,0.5,3.1,1.5,4c1,0.8,2.5,1.3,4.6,1.3C553.2,80,554.5,79.7,556,79.1"/>
<path fill="#3D3D3C" d="M323.4,43.6v23.4c0,4.1-0.7,7.1-2.1,9c-1.4,1.9-3.6,2.8-6.7,2.9c-3,0-5.3-1-6.7-2.9c-1.4-1.9-2.1-4.9-2.1-9
	V43.6h-11.3v23.4c0,6.5,1.5,11.7,4.6,15.4c3.1,3.7,8,5.6,14.7,5.6c0.3,0,0.5,0,0.8,0c0.3,0,0.5,0,0.8,0c6.7,0,11.7-1.9,14.7-5.6
	c3.1-3.7,4.6-8.8,4.6-15.4V43.6H323.4z"/>
<path fill="#3D3D3C" d="M515.6,43.6v23.4c0,4.1-0.7,7.1-2.1,9c-1.4,1.9-3.6,2.8-6.7,2.9c-3,0-5.3-1-6.7-2.9c-1.4-1.9-2.1-4.9-2.1-9
	V43.6h-11.3v23.4c0,6.5,1.5,11.7,4.6,15.4c3.1,3.7,8,5.6,14.7,5.6c0.3,0,0.5,0,0.8,0c0.3,0,0.5,0,0.8,0c6.7,0,11.7-1.9,14.7-5.6
	c3.1-3.7,4.6-8.8,4.6-15.4V43.6H515.6z"/>
<rect x="369.2" y="43.9" fill="#3D3D3C" width="11.3" height="43.4"/>
<path fill="#3D3D3C" d="M382,26.2c0,3.9-3.2,7.1-7.1,7.1s-7.1-3.2-7.1-7.1c0-3.9,3.2-7.1,7.1-7.1S382,22.3,382,26.2"/>
<path fill="#95C13D" d="M38.9,92.6c-4.8,0-8.7-3.9-8.7-8.7V31.8c0-4.8,3.9-8.7,8.7-8.7h52.2c4.8,0,8.7,3.9,8.7,8.7v52.1
	c0,4.8-3.9,8.7-8.7,8.7H38.9z"/>
<line fill="none" stroke="#088F46" stroke-width="12.1587" stroke-linecap="round" stroke-miterlimit="10" x1="29.4" y1="40" x2="31.5" y2="40"/>
<line fill="none" stroke="#088F46" stroke-width="12.1587" stroke-linecap="round" stroke-miterlimit="10" x1="29.4" y1="58.3" x2="31.5" y2="58.3"/>
<line fill="none" stroke="#088F46" stroke-width="12.1587" stroke-linecap="round" stroke-miterlimit="10" x1="29.4" y1="76.6" x2="31.5" y2="76.6"/>
<path fill="#3D3D3C" d="M25.1,24.2v0.3c0.1-0.1,0.2-0.2,0.3-0.3H25.1z"/>
<path fill="#FFFFFF" d="M73.6,52.8l5.5-0.2c0.2,1.5,0.4,3,0.6,4.4h10.7v4.7h-4.1c-1.3,4.9-3.2,8.7-5.8,11.4
	c2.8,1.8,6.2,3.2,10.3,4.1c-1.1,1.6-2.1,3.3-2.9,4.8c-4.5-1.5-8.3-3.3-11.2-5.3c-2.8,2-6.5,3.8-11,5.6c-0.1-0.1-0.2-0.2-0.2-0.4
	c-1.1-2-2-3.4-2.6-4.2c4.1-1.3,7.5-2.8,10.1-4.6c-2.4-3-4.4-6.8-5.7-11.4H63V57h11.6c-0.1-0.5-0.2-1.2-0.5-2.1
	C73.9,53.9,73.8,53.2,73.6,52.8 M76.6,69.8c2.1-2.2,3.6-4.9,4.5-8.2h-8.9C73.2,64.9,74.7,67.6,76.6,69.8"/>
<path fill="#FFFFFF" d="M60.8,55.8H49.4l-2.2,5.9h-5.8l11-27.3H58l11,27.3h-6L60.8,55.8z M59,51l-3.9-10.5L51.2,51H59z"/>
</svg>
