<?xml version="1.0" encoding="utf-8"?>
<!-- Generator: Adobe Illustrator 18.0.0, SVG Export Plug-In . SVG Version: 6.00 Build 0)  -->
<svg version="1.1" xmlns="http://www.w3.org/2000/svg" xmlns:xlink="http://www.w3.org/1999/xlink" x="0px" y="0px"
	 viewBox="0 0 250 250" enable-background="new 0 0 250 250" xml:space="preserve">
<g id="Layer_1" display="none">
	
		<image display="inline" overflow="visible" width="552" height="396" xlink:href="../../../../../../Desktop/Screen Shot 2022-06-16 at 2.05.14 PM.png"  transform="matrix(0.2508 0 0 0.2508 47.2714 62.1304)">
	</image>
</g>
<g id="Layer_2">
	<path d="M245,107.6c0,0-5.2,32.1-51.1,2.8c-42-26.9-65.5-5.4-69.2-1.6c-3.7-3.8-27.2-25.2-69.2,1.6c-45.9,29.3-51.1-2.8-51.1-2.8
		c-11,24.5,4.1,50.7,47.6,50.7c39.2,0,67.5-19.9,72.7-23.8c5.2,3.9,33.4,23.8,72.7,23.8C240.9,158.4,256.1,132.1,245,107.6z"/>
</g>
</svg>
