<?xml version="1.0" encoding="utf-8"?>
<!-- Generator: Adobe Illustrator 18.0.0, SVG Export Plug-In . SVG Version: 6.00 Build 0)  -->
<svg version="1.1" id="Layer_1" xmlns="http://www.w3.org/2000/svg" xmlns:xlink="http://www.w3.org/1999/xlink" x="0px" y="0px"
	 viewBox="0 0 500 250" enable-background="new 0 0 500 250" xml:space="preserve">
<g id="Livello_2">
	<g id="Livello_2-2">
		<g id="Livello_2-3">
			<g id="Livello_12">
				<path fill="#472366" d="M68.2,21.7L41.6,48.2c-4.9,4.9-7.6,11.6-7.6,18.5V103L7.5,129.5C2.7,134.4,0,140.9,0,147.8v20.8l0.2-0.2
					c0.8-5.6,3.3-10.8,7.3-14.7l26.5-26.4v72.7c0-4.1-1.6-8.1-4.6-11l-5.1-5.1c-4-4-6.6-9.3-7.3-14.9l-0.2-0.2v21.2
					c0,6.9,2.7,13.4,7.6,18.3l4.7,4.7c4.3,4.3,7.6,7.3,8.4,13.3l0.1,0.1V123.6l22.9-22.9c4.8-4.8,7.6-10.4,7.6-17.3V21.7z
					 M64.6,60.8c0,6.9-1.7,13.5-6.6,18.3L47.1,89.9l-9.4,9.4V86.9c0-6.9,1.8-12.4,6.6-17.2l20.2-20.2L64.6,60.8z"/>
			</g>
		</g>
	</g>
</g>
</svg>
