<?xml version="1.0" encoding="utf-8"?>
<!-- Generator: Adobe Illustrator 18.0.0, SVG Export Plug-In . SVG Version: 6.00 Build 0)  -->
<svg version="1.1" id="Layer_1" xmlns="http://www.w3.org/2000/svg" xmlns:xlink="http://www.w3.org/1999/xlink" x="0px" y="0px"
	 viewBox="0 0 600 126.5" enable-background="new 0 0 600 126.5" xml:space="preserve">
<g id="Layer_2_1_">
	<g id="PLASTIPOINT">
		<g id="plastipoint-wm-lg">
			<path fill="#8CC349" d="M588.6,95.7c-0.8,0-1.7,0.3-2.8,0.3c-3.6,0-5.6-3-5.6-7v-29l0,0V35.4c0-4.6-3.8-8.4-8.4-8.4
				s-8.4,3.8-8.4,8.4l0,0v9.9H559c-4.1,0-7.3,3.3-7.3,7.3c0,4.1,3.3,7.3,7.3,7.3l0,0h4.1v33.4c0,11.4,6.3,17.5,18.2,17.5
				c3,0,6-0.3,8.8-1.3c3.8-1.2,6-5.1,4.8-8.9C593.9,98,591.4,96,588.6,95.7L588.6,95.7z"/>
			<path fill="#8CC349" d="M584.1,60.1h2.5c4.1,0,7.3-3.3,7.3-7.3s-3.3-7.3-7.3-7.3h-2.5V60.1z"/>
			<path fill="#8CC349" d="M495.1,45c-4.6,0-8.4,3.8-8.4,8.4l0,0v49c0,4.6,3.6,8.4,8.3,8.4s8.4-3.8,8.4-8.4v-49
				C503.4,48.8,499.7,45.2,495.1,45z"/>
			<path fill="#8CC349" d="M525.9,44.5c-6.6,0-12.9,2.2-18.2,6v12.4c3-2.2,6.6-3.5,10.4-3.5c7.1,0,11.8,3,11.8,11.9v31.1
				c0,4.6,3.8,8.4,8.4,8.4c4.6,0,8.4-3.8,8.4-8.4V64.9C546.6,52.5,539.9,44.5,525.9,44.5z"/>
			<path fill="#8CC349" d="M458.2,25.5c0-5.6,4.5-10.1,10.1-10.1c5.6,0,10.1,4.5,10.1,10.1s-4.5,10.1-10.1,10.1l0,0
				C462.6,35.6,458.2,31.1,458.2,25.5z M459.8,102.5V53.6c0-4.6,3.8-8.4,8.4-8.4c4.6,0,8.4,3.8,8.4,8.4l0,0v48.8
				c0,4.6-3.8,8.4-8.4,8.4C463.5,110.9,459.8,107.1,459.8,102.5L459.8,102.5z"/>
			<path fill="#8CC349" d="M417.4,96c-9.3-1-14.4-9.1-14.4-18.5s5.1-17.4,14.4-18.4V44.2c-19.9,1-31.8,15.9-31.8,33.4
				s11.9,32.6,31.8,33.6V96z"/>
			<path fill="#8CC349" d="M421.6,44v15.1c9.1,1.2,14.2,9.1,14.2,18.4s-5.1,17.4-14.2,18.5v15.1c19.9-1,31.8-15.9,31.8-33.6
				S441.4,45.2,421.6,44z"/>
			<path fill="#8CC349" d="M331.8,37.9V21.7h-8.9c-6.3,0-9.9,3.6-9.9,9.9v69.9c0,5.1,4.3,9.4,9.6,9.4c5.1,0,9.3-4.3,9.3-9.4
				L331.8,37.9L331.8,37.9z"/>
			<path fill="#8CC349" d="M354.3,21.7H336v16.2h15.9c7.5,0,12.9,5,12.9,12.3s-5.6,12.3-12.9,12.3H336v16.2h18.4
				c19,0,29.6-12.9,29.6-28.1S373.6,21.7,354.3,21.7z"/>
			<path fill="#8CC349" d="M282.8,25.5c0-5.6,4.5-10.1,10.1-10.1c5.6,0,10.1,4.5,10.1,10.1s-4.5,10.1-10.1,10.1
				C287.5,35.6,283,31.1,282.8,25.5z M284.5,102.5V53.6c0-4.6,3.8-8.4,8.4-8.4c4.6,0,8.4,3.8,8.4,8.4l0,0v48.8
				c0,4.6-3.8,8.4-8.4,8.4C288.3,110.9,284.6,107.1,284.5,102.5L284.5,102.5z"/>
			<path fill="#8CC349" d="M269.1,95.7c-0.8,0-1.7,0.3-2.8,0.3c-3.6,0-5.6-3-5.6-7v-29l0,0V35.4c0-4.6-3.8-8.4-8.4-8.4
				c-4.6,0-8.4,3.8-8.4,8.4v9.9h-4.1c-4.1,0-7.3,3.3-7.3,7.3s3.3,7.3,7.3,7.3l0,0h4.1v33.4c0,11.4,6.3,17.5,18.2,17.5
				c3,0,6-0.3,8.8-1.3c3.8-1.2,6-5.1,4.8-8.9C274.5,98,272.1,96,269.1,95.7L269.1,95.7z"/>
			<path fill="#8CC349" d="M264.8,60.1h2.5c4.1,0,7.3-3.3,7.3-7.3s-3.3-7.3-7.3-7.3h-2.5V60.1z"/>
			<path fill="#8CC349" d="M175.7,98.7c0-3.8,3.1-7,7-7c1.3,0,2.5,0.3,3.6,1c5.1,3.3,11.3,5.1,17.4,5.5c7.3,0,10.8-2.5,10.8-6.5
				c0-4.5-5.5-6.1-12.9-7.6c-11.1-2.2-25.2-4.8-25.2-20c0-10.8,9.4-20.2,26.2-20.2c7.5-0.2,14.7,1.8,21,5.6c2,1.2,3.3,3.3,3.3,5.6
				c0,3.6-3,6.5-6.5,6.5c-1.2,0-2.2-0.2-3.1-0.8c-4.5-2.6-9.4-4.1-14.6-4.1c-6.1,0-10.1,2.3-10.1,6c0,4,5,5.5,12.3,7
				c10.9,2.2,25.7,5,25.7,20.9c0,11.6-9.9,20.5-27.6,20.5c-8.3,0.2-16.4-2.2-23.5-6.3C177,103.5,175.7,101.1,175.7,98.7z"/>
			<path fill="#8CC349" d="M119.7,62.7c1.2,0,2.3-0.3,3.3-1c4.1-2.8,9.1-4.3,14.2-4.3c3.5-0.2,7,0.8,9.9,2.8V44.3
				c-2.3-0.3-4.6-0.5-7-0.5c-8.4,0-16.7,2.3-23.7,7c-1.8,1.2-3,3.3-3,5.6C113.3,59.7,116.1,62.7,119.7,62.7z"/>
			<path fill="#8CC349" d="M147.1,97.5c-3,1.5-6.1,2.2-9.4,2.2c-6.6,0-12.1-3.5-12.1-9.4c0-6.3,5.5-9.6,12.1-9.6
				c3.3,0,6.5,0.7,9.4,2.2v-9.1c-4.8-3-10.4-4.3-16.1-4.1c-10.3-0.2-22.4,5.3-22.4,20.4c0,14.2,12.1,21.2,22.2,21.2
				c5.8,0.2,11.4-1.5,16.2-4.6C147.1,106.4,147.1,97.5,147.1,97.5z"/>
			<path fill="#8CC349" d="M151.2,45.2v23.2l0,0v8.9l0,0v8.9l0,0v7.9l0,0v9.3c0.8,4.6,5.1,7.8,9.8,7c4.1-0.7,7.1-4.5,7-8.6V68
				C168.1,54.6,160.8,47.8,151.2,45.2z"/>
			<path fill="#8CC349" d="M91.9,15.4c-4.6,0-8.4,3.8-8.4,8.4v78.6c0,4.6,3.8,8.4,8.4,8.4s8.4-3.8,8.4-8.4V23.8
				C100.4,19.2,96.6,15.4,91.9,15.4z"/>
			<path fill="#8CC349" d="M23.2,37.9V21.7h-8.9c-6.3,0-9.9,3.6-9.9,9.9v69.9c0,5.1,4.3,9.4,9.6,9.4c5.1,0,9.3-4.3,9.3-9.4
				C23.2,101.6,23.2,37.9,23.2,37.9z"/>
			<path fill="#8CC349" d="M45.7,21.7H27.4v16.2h15.9c7.5,0,12.9,5,12.9,12.3s-5.6,12.3-12.9,12.3H27.4v16.2h18.4
				c19,0,29.6-12.9,29.6-28.1S64.9,21.7,45.7,21.7z"/>
		</g>
	</g>
</g>
</svg>
