<?xml version="1.0" encoding="utf-8"?>
<!-- Generator: Adobe Illustrator 18.0.0, SVG Export Plug-In . SVG Version: 6.00 Build 0)  -->
<svg version="1.1" xmlns="http://www.w3.org/2000/svg" xmlns:xlink="http://www.w3.org/1999/xlink" x="0px" y="0px"
	 viewBox="0 0 1000 250" enable-background="new 0 0 1000 250" xml:space="preserve">
<g id="Layer_1">
	<circle fill="#DA868D" cx="498" cy="125.2" r="108.8"/>
	<g>
		<path fill="#58595B" d="M498,10.5c30.6,0,59.4,11.9,81.1,33.6c21.7,21.7,33.6,50.5,33.6,81.1s-11.9,59.4-33.6,81.1
			c-21.7,21.7-50.5,33.6-81.1,33.6s-59.4-11.9-81.1-33.6c-21.7-21.7-33.6-50.5-33.6-81.1s11.9-59.4,33.6-81.1
			C438.5,22.4,467.3,10.5,498,10.5 M498,5.5c-66.1,0-119.7,53.6-119.7,119.7S431.9,244.9,498,244.9s119.7-53.6,119.7-119.7
			S564.1,5.5,498,5.5L498,5.5z"/>
	</g>
</g>
<g id="Layer_2">
</g>
</svg>
