<?xml version="1.0" encoding="utf-8"?>
<!-- Generator: Adobe Illustrator 18.0.0, SVG Export Plug-In . SVG Version: 6.00 Build 0)  -->
<svg version="1.1" id="Layer_1" xmlns="http://www.w3.org/2000/svg" xmlns:xlink="http://www.w3.org/1999/xlink" x="0px" y="0px"
	 viewBox="0 0 250 250" enable-background="new 0 0 250 250" xml:space="preserve">
<g>
	<circle fill="#1D1B55" cx="125.3" cy="125" r="123.7"/>
</g>
<image overflow="visible" width="686" height="718" xlink:href="../../../../../../Desktop/Screen Shot 2021-11-11 at 3.15.58 PM.png"  transform="matrix(0.2269 0 0 0.2269 -207.3333 60.036)">
</image>
<g>
	<path fill="#9A99CC" d="M-143.2,343.9h-44.4l-8.5,20.5h-22.7l42.6-95.6h21.9l42.8,95.6h-23.2L-143.2,343.9z M-150.2,327.1
		l-15.2-36.6l-15.2,36.6H-150.2z"/>
	<path fill="#9A99CC" d="M-31.1,327.9c0,0.8,0,1.8-0.1,2.9c-0.1,1-0.2,2-0.3,2.9h-55.6c1.1,4.6,3.5,8.2,7.1,10.8
		c3.6,2.6,8.3,4,13.9,4c3.8,0,7.2-0.6,10.2-1.8c3-1.2,5.7-3,8.2-5.3l11.3,12.3c-3.5,3.9-7.7,6.9-12.7,8.9c-5.1,2-11,3-17.6,3
		c-12.8-0.2-23-3.8-30.5-10.8c-7.5-6.9-11.3-15.9-11.5-27c0.3-11.2,4-20.3,11.2-27.2c7.2-6.9,16.5-10.5,28-10.6
		c11,0.1,20.1,3.5,27.2,10.2C-35.1,306.7-31.4,316-31.1,327.9z M-69.2,305.9c-4.9,0.1-9,1.5-12.2,4.1c-3.2,2.7-5.2,6.5-6,11.2h36.2
		c-0.8-4.7-2.8-8.5-6-11.2C-60.4,307.4-64.4,306-69.2,305.9z"/>
</g>
<rect x="-191.3" y="-20" fill="#E6E5F3" width="50" height="50"/>
<rect x="-54.7" y="214" fill="#BBB7CA" width="26.7" height="26.7"/>
<g>
	<path fill="#9A99CC" d="M117.6,152c-0.7-2.2-1.5-4.5-2.3-6.9c-0.8-2.3-1.6-4.7-2.5-7h-25c-0.8,2.3-1.6,4.7-2.4,7
		c-0.8,2.3-1.6,4.6-2.3,6.8h-15c2.4-6.9,4.7-13.3,6.9-19.2c2.2-5.9,4.3-11.4,6.4-16.6c2.1-5.2,4.1-10.1,6.1-14.8
		c2-4.7,4.1-9.2,6.3-13.6h13.7c2.1,4.4,4.2,9,6.2,13.6s4.1,9.6,6.2,14.8c2.1,5.2,4.2,10.7,6.4,16.6c2.2,5.9,4.5,12.2,6.9,19.2H117.6
		z M100.2,102.4c-0.3,0.9-0.8,2.2-1.4,3.8c-0.6,1.6-1.3,3.5-2.1,5.6c-0.8,2.1-1.7,4.4-2.7,6.9c-1,2.5-2,5.2-3,7.9h18.3
		c-1-2.8-1.9-5.4-2.9-8c-0.9-2.5-1.8-4.9-2.6-7c-0.8-2.1-1.6-3.9-2.2-5.5C101.1,104.6,100.6,103.3,100.2,102.4z"/>
	<path fill="#9A99CC" d="M137,128c0-4.3,0.7-8.1,2-11.3c1.3-3.2,3.1-5.9,5.2-8.1c2.2-2.2,4.6-3.8,7.4-4.9c2.8-1.1,5.7-1.7,8.6-1.7
		c6.9,0,12.4,2.1,16.4,6.3c4,4.2,6,10.4,6,18.6c0,0.8,0,1.7-0.1,2.6c-0.1,1-0.1,1.8-0.2,2.5h-31.3c0.3,2.8,1.6,5.1,4,6.8
		c2.3,1.7,5.5,2.5,9.4,2.5c2.5,0,5-0.2,7.4-0.7c2.4-0.5,4.4-1,6-1.7l1.9,11.2c-0.7,0.4-1.7,0.7-3,1.1c-1.2,0.4-2.6,0.7-4.1,1
		c-1.5,0.3-3.1,0.5-4.9,0.7c-1.7,0.2-3.5,0.3-5.2,0.3c-4.4,0-8.2-0.6-11.4-1.9c-3.2-1.3-5.9-3.1-8-5.3c-2.1-2.3-3.7-4.9-4.7-8
		C137.5,134.9,137,131.6,137,128z M169.4,122.7c-0.1-1.2-0.3-2.3-0.6-3.4c-0.3-1.1-0.9-2.1-1.6-3c-0.7-0.9-1.6-1.6-2.7-2.1
		c-1.1-0.5-2.4-0.8-4-0.8c-1.5,0-2.9,0.3-4,0.8c-1.1,0.5-2,1.2-2.8,2.1c-0.7,0.9-1.3,1.9-1.7,3c-0.4,1.1-0.7,2.3-0.9,3.5H169.4z"/>
</g>
</svg>
