<?xml version="1.0" encoding="utf-8"?>
<!-- Generator: Adobe Illustrator 18.0.0, SVG Export Plug-In . SVG Version: 6.00 Build 0)  -->
<svg version="1.1" id="Layer_1" xmlns="http://www.w3.org/2000/svg" xmlns:xlink="http://www.w3.org/1999/xlink" x="0px" y="0px"
	 viewBox="0 0 250 250" enable-background="new 0 0 250 250" xml:space="preserve">
<rect x="-88.9" y="49.9" fill="#FFFFFF" stroke="#000000" stroke-miterlimit="10" width="78.4" height="78.4"/>
<image overflow="visible" width="174" height="232" xlink:href="../../../../../../Desktop/Screen Shot 2021-11-11 at 3.33.33 PM.png"  transform="matrix(0.5 0 0 0.5 -120.5 140.5)">
</image>
<rect x="-150.5" fill="#F79137" width="69.5" height="69.5"/>
<g>
	<circle fill="#F79137" cx="124.3" cy="127" r="123.7"/>
</g>
<g>
	<path fill="#311D14" d="M126.7,163.9c-0.7-2.3-1.5-4.6-2.4-7c-0.8-2.4-1.7-4.8-2.5-7.2H96.1c-0.8,2.4-1.7,4.8-2.5,7.2
		c-0.8,2.4-1.6,4.8-2.3,7H75.9c2.5-7.1,4.8-13.6,7-19.7c2.2-6,4.4-11.7,6.5-17c2.1-5.3,4.2-10.4,6.3-15.1c2.1-4.8,4.2-9.4,6.4-14h14
		c2.2,4.6,4.3,9.2,6.4,14c2.1,4.8,4.2,9.8,6.3,15.1c2.1,5.3,4.3,11,6.5,17c2.2,6,4.6,12.6,7.1,19.7H126.7z M108.9,113
		c-0.3,1-0.8,2.3-1.5,3.9c-0.6,1.6-1.4,3.5-2.2,5.7c-0.8,2.2-1.7,4.5-2.7,7.1c-1,2.6-2,5.3-3.1,8.2h18.8c-1-2.9-2-5.6-2.9-8.2
		c-0.9-2.6-1.8-5-2.7-7.1c-0.8-2.2-1.6-4-2.2-5.7C109.8,115.3,109.3,114,108.9,113z"/>
	<path fill="#311D14" d="M165.5,99.6c0,2.6-0.8,4.6-2.5,6.1c-1.7,1.5-3.7,2.2-5.9,2.2c-2.3,0-4.3-0.7-5.9-2.2
		c-1.7-1.5-2.5-3.5-2.5-6.1s0.8-4.6,2.5-6.1c1.7-1.5,3.7-2.2,5.9-2.2c2.3,0,4.3,0.7,5.9,2.2C164.7,94.9,165.5,97,165.5,99.6z
		 M164.2,163.9H150V114h14.1V163.9z"/>
</g>
<rect x="-202" y="-140" fill="#F9F1EA" width="91" height="91"/>
</svg>
