<?xml version="1.0" encoding="utf-8"?>
<!-- Generator: Adobe Illustrator 18.0.0, SVG Export Plug-In . SVG Version: 6.00 Build 0)  -->
<svg version="1.1" id="Layer_1" xmlns="http://www.w3.org/2000/svg" xmlns:xlink="http://www.w3.org/1999/xlink" x="0px" y="0px"
	 viewBox="0 0 250 250" enable-background="new 0 0 250 250" xml:space="preserve">
<g>
	<g>
		<g>
			<g>
				<g>
					<path fill="#8797B7" d="M127.6,120.5l22,112.9c-7,1.4-14.8,2.1-21.9,2.1L127.6,120.5z"/>
				</g>
			</g>
			<g>
				<g>
					<path fill="#C3B69D" d="M127.6,120.5l43.2,106.6c-7.5,3.1-13.2,4.7-21.1,6.3L127.6,120.5z"/>
				</g>
			</g>
			<g>
				<g>
					<path fill="#CD8266" d="M127.6,120.5l67.7,93c-7.6,5.5-15.9,10.1-24.5,13.6L127.6,120.5z"/>
				</g>
			</g>
			<g>
				<g>
					<path fill="#F9AF3E" d="M127.6,120.5l90.7,70.7c-7,9-13.8,15.6-23,22.3L127.6,120.5z"/>
				</g>
			</g>
			<g>
				<g>
					<path fill="#DC89BA" d="M127.6,120.5l108.1,39.3c-4.3,11.9-9.6,21.5-17.4,31.5L127.6,120.5z"/>
				</g>
			</g>
			<g>
				<g>
					<path fill="#D35363" d="M127.6,120.5l115-2.1c0.3,15-1.8,27.3-6.9,41.4L127.6,120.5z"/>
				</g>
			</g>
			<g>
				<g>
					<path fill="#7BCDE7" d="M127.6,120.5L230.9,70c7.8,15.9,11.3,30.7,11.7,48.4L127.6,120.5z"/>
				</g>
			</g>
			<g>
				<g>
					<path fill="#54BA66" d="M127.6,120.5l70.7-90.7C212.7,41,222.9,53.6,230.9,70L127.6,120.5z"/>
				</g>
			</g>
			<g>
				<g>
					<path fill="#8EC241" d="M127.6,120.5L145.5,6.8c20.3,3.2,36.6,10.3,52.8,22.9L127.6,120.5z"/>
				</g>
			</g>
			<g>
				<g>
					<path fill="#A0BBBF" d="M127.6,120.5l0.1,115c-63.5,0-115.1-51.4-115.1-114.9c0-40.7,18.2-74.3,52.3-96.5L127.6,120.5z"/>
				</g>
			</g>
		</g>
		<g>
			<g>
			</g>
			<g>
			</g>
			<g>
			</g>
			<g>
			</g>
			<g>
			</g>
			<g>
			</g>
			<g>
			</g>
			<g>
			</g>
			<g>
			</g>
			<g>
			</g>
			<g>
			</g>
		</g>
	</g>
</g>
<rect x="-135.2" y="121.5" fill="#8EC241" width="41.2" height="41.2"/>
<rect x="-128.9" y="198.9" fill="#E5EFD4" width="41.2" height="41.2"/>
</svg>
