<?xml version="1.0" encoding="utf-8"?>
<!-- Generator: Adobe Illustrator 18.0.0, SVG Export Plug-In . SVG Version: 6.00 Build 0)  -->
<svg version="1.1" id="Layer_1" xmlns="http://www.w3.org/2000/svg" xmlns:xlink="http://www.w3.org/1999/xlink" x="0px" y="0px"
	 viewBox="0 0 250 250" enable-background="new 0 0 250 250" xml:space="preserve">
<g>
	<path fill="#262262" d="M14.7,247.5c-6.7,0-12.2-5.5-12.2-12.2V14.7C2.5,8,8,2.5,14.7,2.5h220.7c6.7,0,12.2,5.5,12.2,12.2v220.7
		c0,6.7-5.5,12.2-12.2,12.2H14.7z"/>
	<path fill="#FFFFFF" d="M235.3,5c5.3,0,9.7,4.3,9.7,9.7v220.7c0,5.3-4.3,9.7-9.7,9.7H14.7c-5.3,0-9.7-4.3-9.7-9.7V14.7
		C5,9.3,9.3,5,14.7,5H235.3 M235.3,0H14.7C6.6,0,0,6.6,0,14.7v220.7c0,8.1,6.6,14.7,14.7,14.7h220.7c8.1,0,14.7-6.6,14.7-14.7V14.7
		C250,6.6,243.4,0,235.3,0L235.3,0z"/>
</g>
<g>
	<path fill="#FFFFFF" d="M110.5,191.7c0-3,0.5-5.9,1.5-8.6c1-2.7,2.4-5.1,4.3-7.1c1.9-2,4.1-3.6,6.8-4.8c2.7-1.2,5.7-1.8,9.1-1.8
		c2.2,0,4.3,0.2,6.2,0.6c1.9,0.4,3.7,1,5.5,1.7l-2.5,9.5c-1.1-0.4-2.4-0.8-3.7-1.1s-2.8-0.5-4.5-0.5c-3.5,0-6.2,1.1-7.9,3.3
		c-1.7,2.2-2.6,5.1-2.6,8.7c0,3.8,0.8,6.7,2.4,8.8s4.5,3.1,8.5,3.1c1.4,0,3-0.1,4.7-0.4c1.7-0.3,3.2-0.7,4.6-1.3l1.7,9.8
		c-1.4,0.6-3.1,1.1-5.2,1.5s-4.4,0.6-6.9,0.6c-3.9,0-7.2-0.6-10-1.7s-5.1-2.7-6.9-4.7s-3.1-4.3-3.9-7
		C111,197.7,110.5,194.8,110.5,191.7z"/>
	<path fill="#FFFFFF" d="M164.8,204.2c2.2,0,3.7-0.2,4.7-0.6c0.9-0.4,1.4-1.3,1.4-2.5c0-1-0.6-1.8-1.8-2.5c-1.2-0.7-3-1.5-5.4-2.4
		c-1.9-0.7-3.6-1.4-5.1-2.2c-1.5-0.8-2.8-1.6-3.9-2.7c-1.1-1-1.9-2.3-2.5-3.7c-0.6-1.4-0.9-3.2-0.9-5.2c0-4,1.5-7.1,4.4-9.4
		c2.9-2.3,7-3.5,12.1-3.5c2.6,0,5,0.2,7.4,0.7s4.2,1,5.6,1.5l-2.1,9.3c-1.4-0.5-2.9-0.9-4.5-1.3c-1.6-0.4-3.5-0.6-5.5-0.6
		c-3.7,0-5.6,1-5.6,3.1c0,0.5,0.1,0.9,0.2,1.3s0.5,0.7,1,1.1c0.5,0.3,1.1,0.7,2,1.1s1.9,0.8,3.2,1.3c2.6,1,4.8,1.9,6.5,2.9
		c1.7,0.9,3.1,2,4.1,3.1s1.7,2.3,2.1,3.6c0.4,1.3,0.6,2.9,0.6,4.6c0,4.2-1.6,7.3-4.7,9.4c-3.1,2.1-7.6,3.2-13.3,3.2
		c-3.7,0-6.9-0.3-9.3-1c-2.5-0.6-4.2-1.2-5.2-1.6l2-9.7c2,0.8,4.1,1.4,6.3,1.9C160.6,203.9,162.7,204.2,164.8,204.2z"/>
	<path fill="#FFFFFF" d="M203.7,204.2c2.2,0,3.7-0.2,4.7-0.6c0.9-0.4,1.4-1.3,1.4-2.5c0-1-0.6-1.8-1.8-2.5c-1.2-0.7-3-1.5-5.4-2.4
		c-1.9-0.7-3.6-1.4-5.1-2.2c-1.5-0.8-2.8-1.6-3.9-2.7c-1.1-1-1.9-2.3-2.5-3.7c-0.6-1.4-0.9-3.2-0.9-5.2c0-4,1.5-7.1,4.4-9.4
		c2.9-2.3,7-3.5,12.1-3.5c2.6,0,5,0.2,7.4,0.7s4.2,1,5.6,1.5l-2.1,9.3c-1.4-0.5-2.9-0.9-4.5-1.3c-1.6-0.4-3.5-0.6-5.5-0.6
		c-3.7,0-5.6,1-5.6,3.1c0,0.5,0.1,0.9,0.2,1.3s0.5,0.7,1,1.1c0.5,0.3,1.1,0.7,2,1.1s1.9,0.8,3.2,1.3c2.6,1,4.8,1.9,6.5,2.9
		c1.7,0.9,3.1,2,4.1,3.1s1.7,2.3,2.1,3.6c0.4,1.3,0.6,2.9,0.6,4.6c0,4.2-1.6,7.3-4.7,9.4c-3.1,2.1-7.6,3.2-13.3,3.2
		c-3.7,0-6.9-0.3-9.3-1c-2.5-0.6-4.2-1.2-5.2-1.6l2-9.7c2,0.8,4.1,1.4,6.3,1.9C199.5,203.9,201.6,204.2,203.7,204.2z"/>
</g>
</svg>
