<?xml version="1.0" encoding="utf-8"?>
<!-- Generator: Adobe Illustrator 26.4.1, SVG Export Plug-In . SVG Version: 6.00 Build 0)  -->
<svg version="1.1" id="Layer_1" xmlns="http://www.w3.org/2000/svg" xmlns:xlink="http://www.w3.org/1999/xlink" x="0px" y="0px"
	 viewBox="0 0 500 750" style="enable-background:new 0 0 500 750;" xml:space="preserve">
<style type="text/css">
	
		.st0{clip-path:url(#SVGID_00000041270317774656397930000007364404965377591189_);fill:url(#SVGID_00000161597990283364370140000006322156795154167171_);}
</style>
<g>
	<defs>
		<path id="SVGID_1_" d="M240.3,31.6c-3.7,0-6.8-3-6.8-6.8s3-6.8,6.8-6.8c3.7,0,6.8,3,6.8,6.8S244,31.6,240.3,31.6z M224.5,24.8
			c0-3.7-3-6.8-6.8-6.8s-6.8,3-6.8,6.8s3,6.8,6.8,6.8S224.5,28.5,224.5,24.8z M201.9,24.8c0-3.7-3-6.8-6.8-6.8c-3.7,0-6.8,3-6.8,6.8
			s3,6.8,6.8,6.8C198.9,31.6,201.9,28.5,201.9,24.8z M179.3,24.8c0-3.7-3-6.8-6.8-6.8c-3.7,0-6.8,3-6.8,6.8s3,6.8,6.8,6.8
			C176.3,31.6,179.3,28.5,179.3,24.8z M156.7,24.8c0-3.7-3-6.8-6.8-6.8c-3.7,0-6.8,3-6.8,6.8s3,6.8,6.8,6.8
			C153.7,31.6,156.7,28.5,156.7,24.8z M134.2,24.8c0-3.7-3-6.8-6.8-6.8c-3.7,0-6.8,3-6.8,6.8s3,6.8,6.8,6.8
			C131.1,31.6,134.2,28.5,134.2,24.8z M111.6,24.8c0-3.7-3-6.8-6.8-6.8S98,21,98,24.8s3,6.8,6.8,6.8S111.6,28.5,111.6,24.8z
			 M89,24.8c0-3.7-3-6.8-6.8-6.8c-3.7,0-6.8,3-6.8,6.8s3,6.8,6.8,6.8C86,31.6,89,28.5,89,24.8z M66.4,24.8c0-3.7-3-6.8-6.8-6.8
			c-3.7,0-6.8,3-6.8,6.8s3,6.8,6.8,6.8C63.4,31.6,66.4,28.5,66.4,24.8z M43.8,24.8c0-3.7-3-6.8-6.8-6.8c-3.7,0-6.8,3-6.8,6.8
			s3,6.8,6.8,6.8C40.8,31.6,43.8,28.5,43.8,24.8z M247.1,54.1c0-3.7-3-6.8-6.8-6.8c-3.7,0-6.8,3-6.8,6.8s3,6.8,6.8,6.8
			C244,60.9,247.1,57.9,247.1,54.1z M224.5,54.1c0-3.7-3-6.8-6.8-6.8s-6.8,3-6.8,6.8s3,6.8,6.8,6.8S224.5,57.9,224.5,54.1z
			 M201.9,54.1c0-3.7-3-6.8-6.8-6.8c-3.7,0-6.8,3-6.8,6.8s3,6.8,6.8,6.8C198.9,60.9,201.9,57.9,201.9,54.1z M179.3,54.1
			c0-3.7-3-6.8-6.8-6.8c-3.7,0-6.8,3-6.8,6.8s3,6.8,6.8,6.8C176.3,60.9,179.3,57.9,179.3,54.1z M156.7,54.1c0-3.7-3-6.8-6.8-6.8
			c-3.7,0-6.8,3-6.8,6.8s3,6.8,6.8,6.8C153.7,60.9,156.7,57.9,156.7,54.1z M134.2,54.1c0-3.7-3-6.8-6.8-6.8c-3.7,0-6.8,3-6.8,6.8
			s3,6.8,6.8,6.8C131.1,60.9,134.2,57.9,134.2,54.1z M111.6,54.1c0-3.7-3-6.8-6.8-6.8s-6.8,3-6.8,6.8s3,6.8,6.8,6.8
			S111.6,57.9,111.6,54.1z M89,54.1c0-3.7-3-6.8-6.8-6.8c-3.7,0-6.8,3-6.8,6.8s3,6.8,6.8,6.8C86,60.9,89,57.9,89,54.1z M66.4,54.1
			c0-3.7-3-6.8-6.8-6.8c-3.7,0-6.8,3-6.8,6.8s3,6.8,6.8,6.8C63.4,60.9,66.4,57.9,66.4,54.1z M43.8,54.1c0-3.7-3-6.8-6.8-6.8
			c-3.7,0-6.8,3-6.8,6.8s3,6.8,6.8,6.8C40.8,60.9,43.8,57.9,43.8,54.1z M247.1,83.5c0-3.7-3-6.8-6.8-6.8c-3.7,0-6.8,3-6.8,6.8
			s3,6.8,6.8,6.8C244,90.3,247.1,87.2,247.1,83.5z M224.5,83.5c0-3.7-3-6.8-6.8-6.8s-6.8,3-6.8,6.8s3,6.8,6.8,6.8
			S224.5,87.2,224.5,83.5z M201.9,83.5c0-3.7-3-6.8-6.8-6.8c-3.7,0-6.8,3-6.8,6.8s3,6.8,6.8,6.8C198.9,90.3,201.9,87.2,201.9,83.5z
			 M179.3,83.5c0-3.7-3-6.8-6.8-6.8c-3.7,0-6.8,3-6.8,6.8s3,6.8,6.8,6.8C176.3,90.3,179.3,87.2,179.3,83.5z M156.7,83.5
			c0-3.7-3-6.8-6.8-6.8c-3.7,0-6.8,3-6.8,6.8s3,6.8,6.8,6.8C153.7,90.3,156.7,87.2,156.7,83.5z M134.2,83.5c0-3.7-3-6.8-6.8-6.8
			c-3.7,0-6.8,3-6.8,6.8s3,6.8,6.8,6.8C131.1,90.3,134.2,87.2,134.2,83.5z M111.6,83.5c0-3.7-3-6.8-6.8-6.8s-6.8,3-6.8,6.8
			s3,6.8,6.8,6.8S111.6,87.2,111.6,83.5z M89,83.5c0-3.7-3-6.8-6.8-6.8c-3.7,0-6.8,3-6.8,6.8s3,6.8,6.8,6.8C86,90.3,89,87.2,89,83.5
			z M66.4,83.5c0-3.7-3-6.8-6.8-6.8c-3.7,0-6.8,3-6.8,6.8s3,6.8,6.8,6.8C63.4,90.3,66.4,87.2,66.4,83.5z M43.8,83.5
			c0-3.7-3-6.8-6.8-6.8c-3.7,0-6.8,3-6.8,6.8s3,6.8,6.8,6.8C40.8,90.3,43.8,87.2,43.8,83.5z M247.1,112.9c0-3.7-3-6.8-6.8-6.8
			c-3.7,0-6.8,3-6.8,6.8c0,3.7,3,6.8,6.8,6.8C244,119.6,247.1,116.6,247.1,112.9z M224.5,112.9c0-3.7-3-6.8-6.8-6.8s-6.8,3-6.8,6.8
			c0,3.7,3,6.8,6.8,6.8S224.5,116.6,224.5,112.9z M201.9,112.9c0-3.7-3-6.8-6.8-6.8c-3.7,0-6.8,3-6.8,6.8c0,3.7,3,6.8,6.8,6.8
			C198.9,119.6,201.9,116.6,201.9,112.9z M179.3,112.9c0-3.7-3-6.8-6.8-6.8c-3.7,0-6.8,3-6.8,6.8c0,3.7,3,6.8,6.8,6.8
			C176.3,119.6,179.3,116.6,179.3,112.9z M156.7,112.9c0-3.7-3-6.8-6.8-6.8c-3.7,0-6.8,3-6.8,6.8c0,3.7,3,6.8,6.8,6.8
			C153.7,119.6,156.7,116.6,156.7,112.9z M134.2,112.9c0-3.7-3-6.8-6.8-6.8c-3.7,0-6.8,3-6.8,6.8c0,3.7,3,6.8,6.8,6.8
			C131.1,119.6,134.2,116.6,134.2,112.9z M111.6,112.9c0-3.7-3-6.8-6.8-6.8s-6.8,3-6.8,6.8c0,3.7,3,6.8,6.8,6.8
			S111.6,116.6,111.6,112.9z M89,112.9c0-3.7-3-6.8-6.8-6.8c-3.7,0-6.8,3-6.8,6.8c0,3.7,3,6.8,6.8,6.8C86,119.6,89,116.6,89,112.9z
			 M66.4,112.9c0-3.7-3-6.8-6.8-6.8c-3.7,0-6.8,3-6.8,6.8c0,3.7,3,6.8,6.8,6.8C63.4,119.6,66.4,116.6,66.4,112.9z M43.8,112.9
			c0-3.7-3-6.8-6.8-6.8c-3.7,0-6.8,3-6.8,6.8c0,3.7,3,6.8,6.8,6.8C40.8,119.6,43.8,116.6,43.8,112.9z M247.1,142.2
			c0-3.7-3-6.8-6.8-6.8c-3.7,0-6.8,3-6.8,6.8c0,3.7,3,6.8,6.8,6.8C244,149,247.1,146,247.1,142.2z M224.5,142.2c0-3.7-3-6.8-6.8-6.8
			s-6.8,3-6.8,6.8c0,3.7,3,6.8,6.8,6.8S224.5,146,224.5,142.2z M201.9,142.2c0-3.7-3-6.8-6.8-6.8c-3.7,0-6.8,3-6.8,6.8
			c0,3.7,3,6.8,6.8,6.8C198.9,149,201.9,146,201.9,142.2z M179.3,142.2c0-3.7-3-6.8-6.8-6.8c-3.7,0-6.8,3-6.8,6.8
			c0,3.7,3,6.8,6.8,6.8C176.3,149,179.3,146,179.3,142.2z M156.7,142.2c0-3.7-3-6.8-6.8-6.8c-3.7,0-6.8,3-6.8,6.8
			c0,3.7,3,6.8,6.8,6.8C153.7,149,156.7,146,156.7,142.2z M134.2,142.2c0-3.7-3-6.8-6.8-6.8c-3.7,0-6.8,3-6.8,6.8
			c0,3.7,3,6.8,6.8,6.8C131.1,149,134.2,146,134.2,142.2z M111.6,142.2c0-3.7-3-6.8-6.8-6.8s-6.8,3-6.8,6.8c0,3.7,3,6.8,6.8,6.8
			S111.6,146,111.6,142.2z M89,142.2c0-3.7-3-6.8-6.8-6.8c-3.7,0-6.8,3-6.8,6.8c0,3.7,3,6.8,6.8,6.8C86,149,89,146,89,142.2z
			 M66.4,142.2c0-3.7-3-6.8-6.8-6.8c-3.7,0-6.8,3-6.8,6.8c0,3.7,3,6.8,6.8,6.8C63.4,149,66.4,146,66.4,142.2z M43.8,142.2
			c0-3.7-3-6.8-6.8-6.8c-3.7,0-6.8,3-6.8,6.8c0,3.7,3,6.8,6.8,6.8C40.8,149,43.8,146,43.8,142.2z M247.1,170.3c0-3.7-3-6.8-6.8-6.8
			c-3.7,0-6.8,3-6.8,6.8c0,3.7,3,6.8,6.8,6.8C244,177.1,247.1,174.1,247.1,170.3z M224.5,170.3c0-3.7-3-6.8-6.8-6.8s-6.8,3-6.8,6.8
			c0,3.7,3,6.8,6.8,6.8S224.5,174.1,224.5,170.3z M201.9,170.3c0-3.7-3-6.8-6.8-6.8c-3.7,0-6.8,3-6.8,6.8c0,3.7,3,6.8,6.8,6.8
			C198.9,177.1,201.9,174.1,201.9,170.3z M179.3,170.3c0-3.7-3-6.8-6.8-6.8c-3.7,0-6.8,3-6.8,6.8c0,3.7,3,6.8,6.8,6.8
			C176.3,177.1,179.3,174.1,179.3,170.3z M156.7,170.3c0-3.7-3-6.8-6.8-6.8c-3.7,0-6.8,3-6.8,6.8c0,3.7,3,6.8,6.8,6.8
			C153.7,177.1,156.7,174.1,156.7,170.3z M134.2,170.3c0-3.7-3-6.8-6.8-6.8c-3.7,0-6.8,3-6.8,6.8c0,3.7,3,6.8,6.8,6.8
			C131.1,177.1,134.2,174.1,134.2,170.3z M111.6,170.3c0-3.7-3-6.8-6.8-6.8s-6.8,3-6.8,6.8c0,3.7,3,6.8,6.8,6.8
			S111.6,174.1,111.6,170.3z M89,170.3c0-3.7-3-6.8-6.8-6.8c-3.7,0-6.8,3-6.8,6.8c0,3.7,3,6.8,6.8,6.8C86,177.1,89,174.1,89,170.3z
			 M66.4,170.3c0-3.7-3-6.8-6.8-6.8c-3.7,0-6.8,3-6.8,6.8c0,3.7,3,6.8,6.8,6.8C63.4,177.1,66.4,174.1,66.4,170.3z M43.8,170.3
			c0-3.7-3-6.8-6.8-6.8c-3.7,0-6.8,3-6.8,6.8c0,3.7,3,6.8,6.8,6.8C40.8,177.1,43.8,174.1,43.8,170.3z M247.1,199.7
			c0-3.7-3-6.8-6.8-6.8c-3.7,0-6.8,3-6.8,6.8c0,3.7,3,6.8,6.8,6.8C244,206.5,247.1,203.4,247.1,199.7z M224.5,199.7
			c0-3.7-3-6.8-6.8-6.8s-6.8,3-6.8,6.8c0,3.7,3,6.8,6.8,6.8S224.5,203.4,224.5,199.7z M201.9,199.7c0-3.7-3-6.8-6.8-6.8
			c-3.7,0-6.8,3-6.8,6.8c0,3.7,3,6.8,6.8,6.8C198.9,206.5,201.9,203.4,201.9,199.7z M179.3,199.7c0-3.7-3-6.8-6.8-6.8
			c-3.7,0-6.8,3-6.8,6.8c0,3.7,3,6.8,6.8,6.8C176.3,206.5,179.3,203.4,179.3,199.7z M156.7,199.7c0-3.7-3-6.8-6.8-6.8
			c-3.7,0-6.8,3-6.8,6.8c0,3.7,3,6.8,6.8,6.8C153.7,206.5,156.7,203.4,156.7,199.7z M134.2,199.7c0-3.7-3-6.8-6.8-6.8
			c-3.7,0-6.8,3-6.8,6.8c0,3.7,3,6.8,6.8,6.8C131.1,206.5,134.2,203.4,134.2,199.7z M111.6,199.7c0-3.7-3-6.8-6.8-6.8
			s-6.8,3-6.8,6.8c0,3.7,3,6.8,6.8,6.8S111.6,203.4,111.6,199.7z M89,199.7c0-3.7-3-6.8-6.8-6.8c-3.7,0-6.8,3-6.8,6.8
			c0,3.7,3,6.8,6.8,6.8C86,206.5,89,203.4,89,199.7z M66.4,199.7c0-3.7-3-6.8-6.8-6.8c-3.7,0-6.8,3-6.8,6.8c0,3.7,3,6.8,6.8,6.8
			C63.4,206.5,66.4,203.4,66.4,199.7z M43.8,199.7c0-3.7-3-6.8-6.8-6.8c-3.7,0-6.8,3-6.8,6.8c0,3.7,3,6.8,6.8,6.8
			C40.8,206.5,43.8,203.4,43.8,199.7z M247.1,229c0-3.7-3-6.8-6.8-6.8c-3.7,0-6.8,3-6.8,6.8s3,6.8,6.8,6.8
			C244,235.8,247.1,232.8,247.1,229z M224.5,229c0-3.7-3-6.8-6.8-6.8s-6.8,3-6.8,6.8s3,6.8,6.8,6.8S224.5,232.8,224.5,229z
			 M201.9,229c0-3.7-3-6.8-6.8-6.8c-3.7,0-6.8,3-6.8,6.8s3,6.8,6.8,6.8C198.9,235.8,201.9,232.8,201.9,229z M179.3,229
			c0-3.7-3-6.8-6.8-6.8c-3.7,0-6.8,3-6.8,6.8s3,6.8,6.8,6.8C176.3,235.8,179.3,232.8,179.3,229z M156.7,229c0-3.7-3-6.8-6.8-6.8
			c-3.7,0-6.8,3-6.8,6.8s3,6.8,6.8,6.8C153.7,235.8,156.7,232.8,156.7,229z M134.2,229c0-3.7-3-6.8-6.8-6.8c-3.7,0-6.8,3-6.8,6.8
			s3,6.8,6.8,6.8C131.1,235.8,134.2,232.8,134.2,229z M111.6,229c0-3.7-3-6.8-6.8-6.8s-6.8,3-6.8,6.8s3,6.8,6.8,6.8
			S111.6,232.8,111.6,229z M89,229c0-3.7-3-6.8-6.8-6.8c-3.7,0-6.8,3-6.8,6.8s3,6.8,6.8,6.8C86,235.8,89,232.8,89,229z M66.4,229
			c0-3.7-3-6.8-6.8-6.8c-3.7,0-6.8,3-6.8,6.8s3,6.8,6.8,6.8C63.4,235.8,66.4,232.8,66.4,229z M43.8,229c0-3.7-3-6.8-6.8-6.8
			c-3.7,0-6.8,3-6.8,6.8s3,6.8,6.8,6.8C40.8,235.8,43.8,232.8,43.8,229z M247.1,258.4c0-3.7-3-6.8-6.8-6.8c-3.7,0-6.8,3-6.8,6.8
			c0,3.7,3,6.8,6.8,6.8C244,265.2,247.1,262.1,247.1,258.4z M224.5,258.4c0-3.7-3-6.8-6.8-6.8s-6.8,3-6.8,6.8c0,3.7,3,6.8,6.8,6.8
			S224.5,262.1,224.5,258.4z M201.9,258.4c0-3.7-3-6.8-6.8-6.8c-3.7,0-6.8,3-6.8,6.8c0,3.7,3,6.8,6.8,6.8
			C198.9,265.2,201.9,262.1,201.9,258.4z M179.3,258.4c0-3.7-3-6.8-6.8-6.8c-3.7,0-6.8,3-6.8,6.8c0,3.7,3,6.8,6.8,6.8
			C176.3,265.2,179.3,262.1,179.3,258.4z M156.7,258.4c0-3.7-3-6.8-6.8-6.8c-3.7,0-6.8,3-6.8,6.8c0,3.7,3,6.8,6.8,6.8
			C153.7,265.2,156.7,262.1,156.7,258.4z M134.2,258.4c0-3.7-3-6.8-6.8-6.8c-3.7,0-6.8,3-6.8,6.8c0,3.7,3,6.8,6.8,6.8
			C131.1,265.2,134.2,262.1,134.2,258.4z M111.6,258.4c0-3.7-3-6.8-6.8-6.8s-6.8,3-6.8,6.8c0,3.7,3,6.8,6.8,6.8
			S111.6,262.1,111.6,258.4z M89,258.4c0-3.7-3-6.8-6.8-6.8c-3.7,0-6.8,3-6.8,6.8c0,3.7,3,6.8,6.8,6.8C86,265.2,89,262.1,89,258.4z
			 M66.4,258.4c0-3.7-3-6.8-6.8-6.8c-3.7,0-6.8,3-6.8,6.8c0,3.7,3,6.8,6.8,6.8C63.4,265.2,66.4,262.1,66.4,258.4z M43.8,258.4
			c0-3.7-3-6.8-6.8-6.8c-3.7,0-6.8,3-6.8,6.8c0,3.7,3,6.8,6.8,6.8C40.8,265.2,43.8,262.1,43.8,258.4z M247.1,287.8
			c0-3.7-3-6.8-6.8-6.8c-3.7,0-6.8,3-6.8,6.8c0,3.7,3,6.8,6.8,6.8C244,294.5,247.1,291.5,247.1,287.8z M224.5,287.8
			c0-3.7-3-6.8-6.8-6.8s-6.8,3-6.8,6.8c0,3.7,3,6.8,6.8,6.8S224.5,291.5,224.5,287.8z M201.9,287.8c0-3.7-3-6.8-6.8-6.8
			c-3.7,0-6.8,3-6.8,6.8c0,3.7,3,6.8,6.8,6.8C198.9,294.5,201.9,291.5,201.9,287.8z M179.3,287.8c0-3.7-3-6.8-6.8-6.8
			c-3.7,0-6.8,3-6.8,6.8c0,3.7,3,6.8,6.8,6.8C176.3,294.5,179.3,291.5,179.3,287.8z M156.7,287.8c0-3.7-3-6.8-6.8-6.8
			c-3.7,0-6.8,3-6.8,6.8c0,3.7,3,6.8,6.8,6.8C153.7,294.5,156.7,291.5,156.7,287.8z M134.2,287.8c0-3.7-3-6.8-6.8-6.8
			c-3.7,0-6.8,3-6.8,6.8c0,3.7,3,6.8,6.8,6.8C131.1,294.5,134.2,291.5,134.2,287.8z M111.6,287.8c0-3.7-3-6.8-6.8-6.8
			s-6.8,3-6.8,6.8c0,3.7,3,6.8,6.8,6.8S111.6,291.5,111.6,287.8z M89,287.8c0-3.7-3-6.8-6.8-6.8c-3.7,0-6.8,3-6.8,6.8
			c0,3.7,3,6.8,6.8,6.8C86,294.5,89,291.5,89,287.8z M66.4,287.8c0-3.7-3-6.8-6.8-6.8c-3.7,0-6.8,3-6.8,6.8c0,3.7,3,6.8,6.8,6.8
			C63.4,294.5,66.4,291.5,66.4,287.8z M43.8,287.8c0-3.7-3-6.8-6.8-6.8c-3.7,0-6.8,3-6.8,6.8c0,3.7,3,6.8,6.8,6.8
			C40.8,294.5,43.8,291.5,43.8,287.8z M247.1,315.9c0-3.7-3-6.8-6.8-6.8c-3.7,0-6.8,3-6.8,6.8c0,3.7,3,6.8,6.8,6.8
			C244,322.6,247.1,319.6,247.1,315.9z M224.5,315.9c0-3.7-3-6.8-6.8-6.8s-6.8,3-6.8,6.8c0,3.7,3,6.8,6.8,6.8
			S224.5,319.6,224.5,315.9z M201.9,315.9c0-3.7-3-6.8-6.8-6.8c-3.7,0-6.8,3-6.8,6.8c0,3.7,3,6.8,6.8,6.8
			C198.9,322.6,201.9,319.6,201.9,315.9z M179.3,315.9c0-3.7-3-6.8-6.8-6.8c-3.7,0-6.8,3-6.8,6.8c0,3.7,3,6.8,6.8,6.8
			C176.3,322.6,179.3,319.6,179.3,315.9z M156.7,315.9c0-3.7-3-6.8-6.8-6.8c-3.7,0-6.8,3-6.8,6.8c0,3.7,3,6.8,6.8,6.8
			C153.7,322.6,156.7,319.6,156.7,315.9z M134.2,315.9c0-3.7-3-6.8-6.8-6.8c-3.7,0-6.8,3-6.8,6.8c0,3.7,3,6.8,6.8,6.8
			C131.1,322.6,134.2,319.6,134.2,315.9z M111.6,315.9c0-3.7-3-6.8-6.8-6.8s-6.8,3-6.8,6.8c0,3.7,3,6.8,6.8,6.8
			S111.6,319.6,111.6,315.9z M89,315.9c0-3.7-3-6.8-6.8-6.8c-3.7,0-6.8,3-6.8,6.8c0,3.7,3,6.8,6.8,6.8C86,322.6,89,319.6,89,315.9z
			 M66.4,315.9c0-3.7-3-6.8-6.8-6.8c-3.7,0-6.8,3-6.8,6.8c0,3.7,3,6.8,6.8,6.8C63.4,322.6,66.4,319.6,66.4,315.9z M43.8,315.9
			c0-3.7-3-6.8-6.8-6.8c-3.7,0-6.8,3-6.8,6.8c0,3.7,3,6.8,6.8,6.8C40.8,322.6,43.8,319.6,43.8,315.9z M247.1,345.2
			c0-3.7-3-6.8-6.8-6.8c-3.7,0-6.8,3-6.8,6.8c0,3.7,3,6.8,6.8,6.8C244,352,247.1,349,247.1,345.2z M224.5,345.2c0-3.7-3-6.8-6.8-6.8
			s-6.8,3-6.8,6.8c0,3.7,3,6.8,6.8,6.8S224.5,349,224.5,345.2z M201.9,345.2c0-3.7-3-6.8-6.8-6.8c-3.7,0-6.8,3-6.8,6.8
			c0,3.7,3,6.8,6.8,6.8C198.9,352,201.9,349,201.9,345.2z M179.3,345.2c0-3.7-3-6.8-6.8-6.8c-3.7,0-6.8,3-6.8,6.8
			c0,3.7,3,6.8,6.8,6.8C176.3,352,179.3,349,179.3,345.2z M156.7,345.2c0-3.7-3-6.8-6.8-6.8c-3.7,0-6.8,3-6.8,6.8
			c0,3.7,3,6.8,6.8,6.8C153.7,352,156.7,349,156.7,345.2z M134.2,345.2c0-3.7-3-6.8-6.8-6.8c-3.7,0-6.8,3-6.8,6.8
			c0,3.7,3,6.8,6.8,6.8C131.1,352,134.2,349,134.2,345.2z M111.6,345.2c0-3.7-3-6.8-6.8-6.8s-6.8,3-6.8,6.8c0,3.7,3,6.8,6.8,6.8
			S111.6,349,111.6,345.2z M89,345.2c0-3.7-3-6.8-6.8-6.8c-3.7,0-6.8,3-6.8,6.8c0,3.7,3,6.8,6.8,6.8C86,352,89,349,89,345.2z
			 M66.4,345.2c0-3.7-3-6.8-6.8-6.8c-3.7,0-6.8,3-6.8,6.8c0,3.7,3,6.8,6.8,6.8C63.4,352,66.4,349,66.4,345.2z M43.8,345.2
			c0-3.7-3-6.8-6.8-6.8c-3.7,0-6.8,3-6.8,6.8c0,3.7,3,6.8,6.8,6.8C40.8,352,43.8,349,43.8,345.2z M247.1,374.6c0-3.7-3-6.8-6.8-6.8
			c-3.7,0-6.8,3-6.8,6.8c0,3.7,3,6.8,6.8,6.8C244,381.4,247.1,378.3,247.1,374.6z M224.5,374.6c0-3.7-3-6.8-6.8-6.8s-6.8,3-6.8,6.8
			c0,3.7,3,6.8,6.8,6.8S224.5,378.3,224.5,374.6z M201.9,374.6c0-3.7-3-6.8-6.8-6.8c-3.7,0-6.8,3-6.8,6.8c0,3.7,3,6.8,6.8,6.8
			C198.9,381.4,201.9,378.3,201.9,374.6z M179.3,374.6c0-3.7-3-6.8-6.8-6.8c-3.7,0-6.8,3-6.8,6.8c0,3.7,3,6.8,6.8,6.8
			C176.3,381.4,179.3,378.3,179.3,374.6z M156.7,374.6c0-3.7-3-6.8-6.8-6.8c-3.7,0-6.8,3-6.8,6.8c0,3.7,3,6.8,6.8,6.8
			C153.7,381.4,156.7,378.3,156.7,374.6z M134.2,374.6c0-3.7-3-6.8-6.8-6.8c-3.7,0-6.8,3-6.8,6.8c0,3.7,3,6.8,6.8,6.8
			C131.1,381.4,134.2,378.3,134.2,374.6z M111.6,374.6c0-3.7-3-6.8-6.8-6.8s-6.8,3-6.8,6.8c0,3.7,3,6.8,6.8,6.8
			S111.6,378.3,111.6,374.6z M89,374.6c0-3.7-3-6.8-6.8-6.8c-3.7,0-6.8,3-6.8,6.8c0,3.7,3,6.8,6.8,6.8C86,381.4,89,378.3,89,374.6z
			 M66.4,374.6c0-3.7-3-6.8-6.8-6.8c-3.7,0-6.8,3-6.8,6.8c0,3.7,3,6.8,6.8,6.8C63.4,381.4,66.4,378.3,66.4,374.6z M43.8,374.6
			c0-3.7-3-6.8-6.8-6.8c-3.7,0-6.8,3-6.8,6.8c0,3.7,3,6.8,6.8,6.8C40.8,381.4,43.8,378.3,43.8,374.6z M247.1,404
			c0-3.7-3-6.8-6.8-6.8c-3.7,0-6.8,3-6.8,6.8c0,3.7,3,6.8,6.8,6.8C244,410.7,247.1,407.7,247.1,404z M224.5,404c0-3.7-3-6.8-6.8-6.8
			s-6.8,3-6.8,6.8c0,3.7,3,6.8,6.8,6.8S224.5,407.7,224.5,404z M201.9,404c0-3.7-3-6.8-6.8-6.8c-3.7,0-6.8,3-6.8,6.8
			c0,3.7,3,6.8,6.8,6.8C198.9,410.7,201.9,407.7,201.9,404z M179.3,404c0-3.7-3-6.8-6.8-6.8c-3.7,0-6.8,3-6.8,6.8
			c0,3.7,3,6.8,6.8,6.8C176.3,410.7,179.3,407.7,179.3,404z M156.7,404c0-3.7-3-6.8-6.8-6.8c-3.7,0-6.8,3-6.8,6.8
			c0,3.7,3,6.8,6.8,6.8C153.7,410.7,156.7,407.7,156.7,404z M134.2,404c0-3.7-3-6.8-6.8-6.8c-3.7,0-6.8,3-6.8,6.8
			c0,3.7,3,6.8,6.8,6.8C131.1,410.7,134.2,407.7,134.2,404z M111.6,404c0-3.7-3-6.8-6.8-6.8s-6.8,3-6.8,6.8c0,3.7,3,6.8,6.8,6.8
			S111.6,407.7,111.6,404z M89,404c0-3.7-3-6.8-6.8-6.8c-3.7,0-6.8,3-6.8,6.8c0,3.7,3,6.8,6.8,6.8C86,410.7,89,407.7,89,404z
			 M66.4,404c0-3.7-3-6.8-6.8-6.8c-3.7,0-6.8,3-6.8,6.8c0,3.7,3,6.8,6.8,6.8C63.4,410.7,66.4,407.7,66.4,404z M43.8,404
			c0-3.7-3-6.8-6.8-6.8c-3.7,0-6.8,3-6.8,6.8c0,3.7,3,6.8,6.8,6.8C40.8,410.7,43.8,407.7,43.8,404z M247.1,433.3
			c0-3.7-3-6.8-6.8-6.8c-3.7,0-6.8,3-6.8,6.8s3,6.8,6.8,6.8C244,440.1,247.1,437.1,247.1,433.3z M224.5,433.3c0-3.7-3-6.8-6.8-6.8
			s-6.8,3-6.8,6.8s3,6.8,6.8,6.8S224.5,437.1,224.5,433.3z M201.9,433.3c0-3.7-3-6.8-6.8-6.8c-3.7,0-6.8,3-6.8,6.8s3,6.8,6.8,6.8
			C198.9,440.1,201.9,437.1,201.9,433.3z M179.3,433.3c0-3.7-3-6.8-6.8-6.8c-3.7,0-6.8,3-6.8,6.8s3,6.8,6.8,6.8
			C176.3,440.1,179.3,437.1,179.3,433.3z M156.7,433.3c0-3.7-3-6.8-6.8-6.8c-3.7,0-6.8,3-6.8,6.8s3,6.8,6.8,6.8
			C153.7,440.1,156.7,437.1,156.7,433.3z M134.2,433.3c0-3.7-3-6.8-6.8-6.8c-3.7,0-6.8,3-6.8,6.8s3,6.8,6.8,6.8
			C131.1,440.1,134.2,437.1,134.2,433.3z M111.6,433.3c0-3.7-3-6.8-6.8-6.8s-6.8,3-6.8,6.8s3,6.8,6.8,6.8S111.6,437.1,111.6,433.3z
			 M89,433.3c0-3.7-3-6.8-6.8-6.8c-3.7,0-6.8,3-6.8,6.8s3,6.8,6.8,6.8C86,440.1,89,437.1,89,433.3z M66.4,433.3c0-3.7-3-6.8-6.8-6.8
			c-3.7,0-6.8,3-6.8,6.8s3,6.8,6.8,6.8C63.4,440.1,66.4,437.1,66.4,433.3z M43.8,433.3c0-3.7-3-6.8-6.8-6.8c-3.7,0-6.8,3-6.8,6.8
			s3,6.8,6.8,6.8C40.8,440.1,43.8,437.1,43.8,433.3z M465.4,31.6c-3.7,0-6.8-3-6.8-6.8s3-6.8,6.8-6.8s6.8,3,6.8,6.8
			S469.2,31.6,465.4,31.6z M449.6,24.8c0-3.7-3-6.8-6.8-6.8c-3.7,0-6.8,3-6.8,6.8s3,6.8,6.8,6.8C446.6,31.6,449.6,28.5,449.6,24.8z
			 M427,24.8c0-3.7-3-6.8-6.8-6.8c-3.7,0-6.8,3-6.8,6.8s3,6.8,6.8,6.8C424,31.6,427,28.5,427,24.8z M404.5,24.8c0-3.7-3-6.8-6.8-6.8
			c-3.7,0-6.8,3-6.8,6.8s3,6.8,6.8,6.8C401.4,31.6,404.5,28.5,404.5,24.8z M381.9,24.8c0-3.7-3-6.8-6.8-6.8c-3.7,0-6.8,3-6.8,6.8
			s3,6.8,6.8,6.8C378.8,31.6,381.9,28.5,381.9,24.8z M359.3,24.8c0-3.7-3-6.8-6.8-6.8s-6.8,3-6.8,6.8s3,6.8,6.8,6.8
			S359.3,28.5,359.3,24.8z M336.7,24.8c0-3.7-3-6.8-6.8-6.8s-6.8,3-6.8,6.8s3,6.8,6.8,6.8S336.7,28.5,336.7,24.8z M314.1,24.8
			c0-3.7-3-6.8-6.8-6.8s-6.8,3-6.8,6.8s3,6.8,6.8,6.8S314.1,28.5,314.1,24.8z M291.5,24.8c0-3.7-3-6.8-6.8-6.8c-3.7,0-6.8,3-6.8,6.8
			s3,6.8,6.8,6.8C288.5,31.6,291.5,28.5,291.5,24.8z M268.9,24.8c0-3.7-3-6.8-6.8-6.8c-3.7,0-6.8,3-6.8,6.8s3,6.8,6.8,6.8
			C265.9,31.6,268.9,28.5,268.9,24.8z M472.2,54.1c0-3.7-3-6.8-6.8-6.8s-6.8,3-6.8,6.8s3,6.8,6.8,6.8S472.2,57.9,472.2,54.1z
			 M449.6,54.1c0-3.7-3-6.8-6.8-6.8c-3.7,0-6.8,3-6.8,6.8s3,6.8,6.8,6.8C446.6,60.9,449.6,57.9,449.6,54.1z M427,54.1
			c0-3.7-3-6.8-6.8-6.8c-3.7,0-6.8,3-6.8,6.8s3,6.8,6.8,6.8C424,60.9,427,57.9,427,54.1z M404.5,54.1c0-3.7-3-6.8-6.8-6.8
			c-3.7,0-6.8,3-6.8,6.8s3,6.8,6.8,6.8C401.4,60.9,404.5,57.9,404.5,54.1z M381.9,54.1c0-3.7-3-6.8-6.8-6.8c-3.7,0-6.8,3-6.8,6.8
			s3,6.8,6.8,6.8C378.8,60.9,381.9,57.9,381.9,54.1z M359.3,54.1c0-3.7-3-6.8-6.8-6.8s-6.8,3-6.8,6.8s3,6.8,6.8,6.8
			S359.3,57.9,359.3,54.1z M336.7,54.1c0-3.7-3-6.8-6.8-6.8s-6.8,3-6.8,6.8s3,6.8,6.8,6.8S336.7,57.9,336.7,54.1z M314.1,54.1
			c0-3.7-3-6.8-6.8-6.8s-6.8,3-6.8,6.8s3,6.8,6.8,6.8S314.1,57.9,314.1,54.1z M291.5,54.1c0-3.7-3-6.8-6.8-6.8c-3.7,0-6.8,3-6.8,6.8
			s3,6.8,6.8,6.8C288.5,60.9,291.5,57.9,291.5,54.1z M268.9,54.1c0-3.7-3-6.8-6.8-6.8c-3.7,0-6.8,3-6.8,6.8s3,6.8,6.8,6.8
			C265.9,60.9,268.9,57.9,268.9,54.1z M472.2,83.5c0-3.7-3-6.8-6.8-6.8s-6.8,3-6.8,6.8s3,6.8,6.8,6.8S472.2,87.2,472.2,83.5z
			 M449.6,83.5c0-3.7-3-6.8-6.8-6.8c-3.7,0-6.8,3-6.8,6.8s3,6.8,6.8,6.8C446.6,90.3,449.6,87.2,449.6,83.5z M427,83.5
			c0-3.7-3-6.8-6.8-6.8c-3.7,0-6.8,3-6.8,6.8s3,6.8,6.8,6.8C424,90.3,427,87.2,427,83.5z M404.5,83.5c0-3.7-3-6.8-6.8-6.8
			c-3.7,0-6.8,3-6.8,6.8s3,6.8,6.8,6.8C401.4,90.3,404.5,87.2,404.5,83.5z M381.9,83.5c0-3.7-3-6.8-6.8-6.8c-3.7,0-6.8,3-6.8,6.8
			s3,6.8,6.8,6.8C378.8,90.3,381.9,87.2,381.9,83.5z M359.3,83.5c0-3.7-3-6.8-6.8-6.8s-6.8,3-6.8,6.8s3,6.8,6.8,6.8
			S359.3,87.2,359.3,83.5z M336.7,83.5c0-3.7-3-6.8-6.8-6.8s-6.8,3-6.8,6.8s3,6.8,6.8,6.8S336.7,87.2,336.7,83.5z M314.1,83.5
			c0-3.7-3-6.8-6.8-6.8s-6.8,3-6.8,6.8s3,6.8,6.8,6.8S314.1,87.2,314.1,83.5z M291.5,83.5c0-3.7-3-6.8-6.8-6.8c-3.7,0-6.8,3-6.8,6.8
			s3,6.8,6.8,6.8C288.5,90.3,291.5,87.2,291.5,83.5z M268.9,83.5c0-3.7-3-6.8-6.8-6.8c-3.7,0-6.8,3-6.8,6.8s3,6.8,6.8,6.8
			C265.9,90.3,268.9,87.2,268.9,83.5z M472.2,112.9c0-3.7-3-6.8-6.8-6.8s-6.8,3-6.8,6.8c0,3.7,3,6.8,6.8,6.8
			S472.2,116.6,472.2,112.9z M449.6,112.9c0-3.7-3-6.8-6.8-6.8c-3.7,0-6.8,3-6.8,6.8c0,3.7,3,6.8,6.8,6.8
			C446.6,119.6,449.6,116.6,449.6,112.9z M427,112.9c0-3.7-3-6.8-6.8-6.8c-3.7,0-6.8,3-6.8,6.8c0,3.7,3,6.8,6.8,6.8
			C424,119.6,427,116.6,427,112.9z M404.5,112.9c0-3.7-3-6.8-6.8-6.8c-3.7,0-6.8,3-6.8,6.8c0,3.7,3,6.8,6.8,6.8
			C401.4,119.6,404.5,116.6,404.5,112.9z M381.9,112.9c0-3.7-3-6.8-6.8-6.8c-3.7,0-6.8,3-6.8,6.8c0,3.7,3,6.8,6.8,6.8
			C378.8,119.6,381.9,116.6,381.9,112.9z M359.3,112.9c0-3.7-3-6.8-6.8-6.8s-6.8,3-6.8,6.8c0,3.7,3,6.8,6.8,6.8
			S359.3,116.6,359.3,112.9z M336.7,112.9c0-3.7-3-6.8-6.8-6.8s-6.8,3-6.8,6.8c0,3.7,3,6.8,6.8,6.8S336.7,116.6,336.7,112.9z
			 M314.1,112.9c0-3.7-3-6.8-6.8-6.8s-6.8,3-6.8,6.8c0,3.7,3,6.8,6.8,6.8S314.1,116.6,314.1,112.9z M291.5,112.9
			c0-3.7-3-6.8-6.8-6.8c-3.7,0-6.8,3-6.8,6.8c0,3.7,3,6.8,6.8,6.8C288.5,119.6,291.5,116.6,291.5,112.9z M268.9,112.9
			c0-3.7-3-6.8-6.8-6.8c-3.7,0-6.8,3-6.8,6.8c0,3.7,3,6.8,6.8,6.8C265.9,119.6,268.9,116.6,268.9,112.9z M472.2,142.2
			c0-3.7-3-6.8-6.8-6.8s-6.8,3-6.8,6.8c0,3.7,3,6.8,6.8,6.8S472.2,146,472.2,142.2z M449.6,142.2c0-3.7-3-6.8-6.8-6.8
			c-3.7,0-6.8,3-6.8,6.8c0,3.7,3,6.8,6.8,6.8C446.6,149,449.6,146,449.6,142.2z M427,142.2c0-3.7-3-6.8-6.8-6.8
			c-3.7,0-6.8,3-6.8,6.8c0,3.7,3,6.8,6.8,6.8C424,149,427,146,427,142.2z M404.5,142.2c0-3.7-3-6.8-6.8-6.8c-3.7,0-6.8,3-6.8,6.8
			c0,3.7,3,6.8,6.8,6.8C401.4,149,404.5,146,404.5,142.2z M381.9,142.2c0-3.7-3-6.8-6.8-6.8c-3.7,0-6.8,3-6.8,6.8
			c0,3.7,3,6.8,6.8,6.8C378.8,149,381.9,146,381.9,142.2z M359.3,142.2c0-3.7-3-6.8-6.8-6.8s-6.8,3-6.8,6.8c0,3.7,3,6.8,6.8,6.8
			S359.3,146,359.3,142.2z M336.7,142.2c0-3.7-3-6.8-6.8-6.8s-6.8,3-6.8,6.8c0,3.7,3,6.8,6.8,6.8S336.7,146,336.7,142.2z
			 M314.1,142.2c0-3.7-3-6.8-6.8-6.8s-6.8,3-6.8,6.8c0,3.7,3,6.8,6.8,6.8S314.1,146,314.1,142.2z M291.5,142.2c0-3.7-3-6.8-6.8-6.8
			c-3.7,0-6.8,3-6.8,6.8c0,3.7,3,6.8,6.8,6.8C288.5,149,291.5,146,291.5,142.2z M268.9,142.2c0-3.7-3-6.8-6.8-6.8
			c-3.7,0-6.8,3-6.8,6.8c0,3.7,3,6.8,6.8,6.8C265.9,149,268.9,146,268.9,142.2z M472.2,170.3c0-3.7-3-6.8-6.8-6.8s-6.8,3-6.8,6.8
			c0,3.7,3,6.8,6.8,6.8S472.2,174.1,472.2,170.3z M449.6,170.3c0-3.7-3-6.8-6.8-6.8c-3.7,0-6.8,3-6.8,6.8c0,3.7,3,6.8,6.8,6.8
			C446.6,177.1,449.6,174.1,449.6,170.3z M427,170.3c0-3.7-3-6.8-6.8-6.8c-3.7,0-6.8,3-6.8,6.8c0,3.7,3,6.8,6.8,6.8
			C424,177.1,427,174.1,427,170.3z M404.5,170.3c0-3.7-3-6.8-6.8-6.8c-3.7,0-6.8,3-6.8,6.8c0,3.7,3,6.8,6.8,6.8
			C401.4,177.1,404.5,174.1,404.5,170.3z M381.9,170.3c0-3.7-3-6.8-6.8-6.8c-3.7,0-6.8,3-6.8,6.8c0,3.7,3,6.8,6.8,6.8
			C378.8,177.1,381.9,174.1,381.9,170.3z M359.3,170.3c0-3.7-3-6.8-6.8-6.8s-6.8,3-6.8,6.8c0,3.7,3,6.8,6.8,6.8
			S359.3,174.1,359.3,170.3z M336.7,170.3c0-3.7-3-6.8-6.8-6.8s-6.8,3-6.8,6.8c0,3.7,3,6.8,6.8,6.8S336.7,174.1,336.7,170.3z
			 M314.1,170.3c0-3.7-3-6.8-6.8-6.8s-6.8,3-6.8,6.8c0,3.7,3,6.8,6.8,6.8S314.1,174.1,314.1,170.3z M291.5,170.3
			c0-3.7-3-6.8-6.8-6.8c-3.7,0-6.8,3-6.8,6.8c0,3.7,3,6.8,6.8,6.8C288.5,177.1,291.5,174.1,291.5,170.3z M268.9,170.3
			c0-3.7-3-6.8-6.8-6.8c-3.7,0-6.8,3-6.8,6.8c0,3.7,3,6.8,6.8,6.8C265.9,177.1,268.9,174.1,268.9,170.3z M472.2,199.7
			c0-3.7-3-6.8-6.8-6.8s-6.8,3-6.8,6.8c0,3.7,3,6.8,6.8,6.8S472.2,203.4,472.2,199.7z M449.6,199.7c0-3.7-3-6.8-6.8-6.8
			c-3.7,0-6.8,3-6.8,6.8c0,3.7,3,6.8,6.8,6.8C446.6,206.5,449.6,203.4,449.6,199.7z M427,199.7c0-3.7-3-6.8-6.8-6.8
			c-3.7,0-6.8,3-6.8,6.8c0,3.7,3,6.8,6.8,6.8C424,206.5,427,203.4,427,199.7z M404.5,199.7c0-3.7-3-6.8-6.8-6.8
			c-3.7,0-6.8,3-6.8,6.8c0,3.7,3,6.8,6.8,6.8C401.4,206.5,404.5,203.4,404.5,199.7z M381.9,199.7c0-3.7-3-6.8-6.8-6.8
			c-3.7,0-6.8,3-6.8,6.8c0,3.7,3,6.8,6.8,6.8C378.8,206.5,381.9,203.4,381.9,199.7z M359.3,199.7c0-3.7-3-6.8-6.8-6.8
			s-6.8,3-6.8,6.8c0,3.7,3,6.8,6.8,6.8S359.3,203.4,359.3,199.7z M336.7,199.7c0-3.7-3-6.8-6.8-6.8s-6.8,3-6.8,6.8
			c0,3.7,3,6.8,6.8,6.8S336.7,203.4,336.7,199.7z M314.1,199.7c0-3.7-3-6.8-6.8-6.8s-6.8,3-6.8,6.8c0,3.7,3,6.8,6.8,6.8
			S314.1,203.4,314.1,199.7z M291.5,199.7c0-3.7-3-6.8-6.8-6.8c-3.7,0-6.8,3-6.8,6.8c0,3.7,3,6.8,6.8,6.8
			C288.5,206.5,291.5,203.4,291.5,199.7z M268.9,199.7c0-3.7-3-6.8-6.8-6.8c-3.7,0-6.8,3-6.8,6.8c0,3.7,3,6.8,6.8,6.8
			C265.9,206.5,268.9,203.4,268.9,199.7z M472.2,229c0-3.7-3-6.8-6.8-6.8s-6.8,3-6.8,6.8s3,6.8,6.8,6.8S472.2,232.8,472.2,229z
			 M449.6,229c0-3.7-3-6.8-6.8-6.8c-3.7,0-6.8,3-6.8,6.8s3,6.8,6.8,6.8C446.6,235.8,449.6,232.8,449.6,229z M427,229
			c0-3.7-3-6.8-6.8-6.8c-3.7,0-6.8,3-6.8,6.8s3,6.8,6.8,6.8C424,235.8,427,232.8,427,229z M404.5,229c0-3.7-3-6.8-6.8-6.8
			c-3.7,0-6.8,3-6.8,6.8s3,6.8,6.8,6.8C401.4,235.8,404.5,232.8,404.5,229z M381.9,229c0-3.7-3-6.8-6.8-6.8c-3.7,0-6.8,3-6.8,6.8
			s3,6.8,6.8,6.8C378.8,235.8,381.9,232.8,381.9,229z M359.3,229c0-3.7-3-6.8-6.8-6.8s-6.8,3-6.8,6.8s3,6.8,6.8,6.8
			S359.3,232.8,359.3,229z M336.7,229c0-3.7-3-6.8-6.8-6.8s-6.8,3-6.8,6.8s3,6.8,6.8,6.8S336.7,232.8,336.7,229z M314.1,229
			c0-3.7-3-6.8-6.8-6.8s-6.8,3-6.8,6.8s3,6.8,6.8,6.8S314.1,232.8,314.1,229z M291.5,229c0-3.7-3-6.8-6.8-6.8c-3.7,0-6.8,3-6.8,6.8
			s3,6.8,6.8,6.8C288.5,235.8,291.5,232.8,291.5,229z M268.9,229c0-3.7-3-6.8-6.8-6.8c-3.7,0-6.8,3-6.8,6.8s3,6.8,6.8,6.8
			C265.9,235.8,268.9,232.8,268.9,229z M472.2,258.4c0-3.7-3-6.8-6.8-6.8s-6.8,3-6.8,6.8c0,3.7,3,6.8,6.8,6.8
			S472.2,262.1,472.2,258.4z M449.6,258.4c0-3.7-3-6.8-6.8-6.8c-3.7,0-6.8,3-6.8,6.8c0,3.7,3,6.8,6.8,6.8
			C446.6,265.2,449.6,262.1,449.6,258.4z M427,258.4c0-3.7-3-6.8-6.8-6.8c-3.7,0-6.8,3-6.8,6.8c0,3.7,3,6.8,6.8,6.8
			C424,265.2,427,262.1,427,258.4z M404.5,258.4c0-3.7-3-6.8-6.8-6.8c-3.7,0-6.8,3-6.8,6.8c0,3.7,3,6.8,6.8,6.8
			C401.4,265.2,404.5,262.1,404.5,258.4z M381.9,258.4c0-3.7-3-6.8-6.8-6.8c-3.7,0-6.8,3-6.8,6.8c0,3.7,3,6.8,6.8,6.8
			C378.8,265.2,381.9,262.1,381.9,258.4z M359.3,258.4c0-3.7-3-6.8-6.8-6.8s-6.8,3-6.8,6.8c0,3.7,3,6.8,6.8,6.8
			S359.3,262.1,359.3,258.4z M336.7,258.4c0-3.7-3-6.8-6.8-6.8s-6.8,3-6.8,6.8c0,3.7,3,6.8,6.8,6.8S336.7,262.1,336.7,258.4z
			 M314.1,258.4c0-3.7-3-6.8-6.8-6.8s-6.8,3-6.8,6.8c0,3.7,3,6.8,6.8,6.8S314.1,262.1,314.1,258.4z M291.5,258.4
			c0-3.7-3-6.8-6.8-6.8c-3.7,0-6.8,3-6.8,6.8c0,3.7,3,6.8,6.8,6.8C288.5,265.2,291.5,262.1,291.5,258.4z M268.9,258.4
			c0-3.7-3-6.8-6.8-6.8c-3.7,0-6.8,3-6.8,6.8c0,3.7,3,6.8,6.8,6.8C265.9,265.2,268.9,262.1,268.9,258.4z M472.2,287.8
			c0-3.7-3-6.8-6.8-6.8s-6.8,3-6.8,6.8c0,3.7,3,6.8,6.8,6.8S472.2,291.5,472.2,287.8z M449.6,287.8c0-3.7-3-6.8-6.8-6.8
			c-3.7,0-6.8,3-6.8,6.8c0,3.7,3,6.8,6.8,6.8C446.6,294.5,449.6,291.5,449.6,287.8z M427,287.8c0-3.7-3-6.8-6.8-6.8
			c-3.7,0-6.8,3-6.8,6.8c0,3.7,3,6.8,6.8,6.8C424,294.5,427,291.5,427,287.8z M404.5,287.8c0-3.7-3-6.8-6.8-6.8
			c-3.7,0-6.8,3-6.8,6.8c0,3.7,3,6.8,6.8,6.8C401.4,294.5,404.5,291.5,404.5,287.8z M381.9,287.8c0-3.7-3-6.8-6.8-6.8
			c-3.7,0-6.8,3-6.8,6.8c0,3.7,3,6.8,6.8,6.8C378.8,294.5,381.9,291.5,381.9,287.8z M359.3,287.8c0-3.7-3-6.8-6.8-6.8
			s-6.8,3-6.8,6.8c0,3.7,3,6.8,6.8,6.8S359.3,291.5,359.3,287.8z M336.7,287.8c0-3.7-3-6.8-6.8-6.8s-6.8,3-6.8,6.8
			c0,3.7,3,6.8,6.8,6.8S336.7,291.5,336.7,287.8z M314.1,287.8c0-3.7-3-6.8-6.8-6.8s-6.8,3-6.8,6.8c0,3.7,3,6.8,6.8,6.8
			S314.1,291.5,314.1,287.8z M291.5,287.8c0-3.7-3-6.8-6.8-6.8c-3.7,0-6.8,3-6.8,6.8c0,3.7,3,6.8,6.8,6.8
			C288.5,294.5,291.5,291.5,291.5,287.8z M268.9,287.8c0-3.7-3-6.8-6.8-6.8c-3.7,0-6.8,3-6.8,6.8c0,3.7,3,6.8,6.8,6.8
			C265.9,294.5,268.9,291.5,268.9,287.8z M472.2,315.9c0-3.7-3-6.8-6.8-6.8s-6.8,3-6.8,6.8c0,3.7,3,6.8,6.8,6.8
			S472.2,319.6,472.2,315.9z M449.6,315.9c0-3.7-3-6.8-6.8-6.8c-3.7,0-6.8,3-6.8,6.8c0,3.7,3,6.8,6.8,6.8
			C446.6,322.6,449.6,319.6,449.6,315.9z M427,315.9c0-3.7-3-6.8-6.8-6.8c-3.7,0-6.8,3-6.8,6.8c0,3.7,3,6.8,6.8,6.8
			C424,322.6,427,319.6,427,315.9z M404.5,315.9c0-3.7-3-6.8-6.8-6.8c-3.7,0-6.8,3-6.8,6.8c0,3.7,3,6.8,6.8,6.8
			C401.4,322.6,404.5,319.6,404.5,315.9z M381.9,315.9c0-3.7-3-6.8-6.8-6.8c-3.7,0-6.8,3-6.8,6.8c0,3.7,3,6.8,6.8,6.8
			C378.8,322.6,381.9,319.6,381.9,315.9z M359.3,315.9c0-3.7-3-6.8-6.8-6.8s-6.8,3-6.8,6.8c0,3.7,3,6.8,6.8,6.8
			S359.3,319.6,359.3,315.9z M336.7,315.9c0-3.7-3-6.8-6.8-6.8s-6.8,3-6.8,6.8c0,3.7,3,6.8,6.8,6.8S336.7,319.6,336.7,315.9z
			 M314.1,315.9c0-3.7-3-6.8-6.8-6.8s-6.8,3-6.8,6.8c0,3.7,3,6.8,6.8,6.8S314.1,319.6,314.1,315.9z M291.5,315.9
			c0-3.7-3-6.8-6.8-6.8c-3.7,0-6.8,3-6.8,6.8c0,3.7,3,6.8,6.8,6.8C288.5,322.6,291.5,319.6,291.5,315.9z M268.9,315.9
			c0-3.7-3-6.8-6.8-6.8c-3.7,0-6.8,3-6.8,6.8c0,3.7,3,6.8,6.8,6.8C265.9,322.6,268.9,319.6,268.9,315.9z M472.2,345.2
			c0-3.7-3-6.8-6.8-6.8s-6.8,3-6.8,6.8c0,3.7,3,6.8,6.8,6.8S472.2,349,472.2,345.2z M449.6,345.2c0-3.7-3-6.8-6.8-6.8
			c-3.7,0-6.8,3-6.8,6.8c0,3.7,3,6.8,6.8,6.8C446.6,352,449.6,349,449.6,345.2z M427,345.2c0-3.7-3-6.8-6.8-6.8
			c-3.7,0-6.8,3-6.8,6.8c0,3.7,3,6.8,6.8,6.8C424,352,427,349,427,345.2z M404.5,345.2c0-3.7-3-6.8-6.8-6.8c-3.7,0-6.8,3-6.8,6.8
			c0,3.7,3,6.8,6.8,6.8C401.4,352,404.5,349,404.5,345.2z M381.9,345.2c0-3.7-3-6.8-6.8-6.8c-3.7,0-6.8,3-6.8,6.8
			c0,3.7,3,6.8,6.8,6.8C378.8,352,381.9,349,381.9,345.2z M359.3,345.2c0-3.7-3-6.8-6.8-6.8s-6.8,3-6.8,6.8c0,3.7,3,6.8,6.8,6.8
			S359.3,349,359.3,345.2z M336.7,345.2c0-3.7-3-6.8-6.8-6.8s-6.8,3-6.8,6.8c0,3.7,3,6.8,6.8,6.8S336.7,349,336.7,345.2z
			 M314.1,345.2c0-3.7-3-6.8-6.8-6.8s-6.8,3-6.8,6.8c0,3.7,3,6.8,6.8,6.8S314.1,349,314.1,345.2z M291.5,345.2c0-3.7-3-6.8-6.8-6.8
			c-3.7,0-6.8,3-6.8,6.8c0,3.7,3,6.8,6.8,6.8C288.5,352,291.5,349,291.5,345.2z M268.9,345.2c0-3.7-3-6.8-6.8-6.8
			c-3.7,0-6.8,3-6.8,6.8c0,3.7,3,6.8,6.8,6.8C265.9,352,268.9,349,268.9,345.2z M472.2,374.6c0-3.7-3-6.8-6.8-6.8s-6.8,3-6.8,6.8
			c0,3.7,3,6.8,6.8,6.8S472.2,378.3,472.2,374.6z M449.6,374.6c0-3.7-3-6.8-6.8-6.8c-3.7,0-6.8,3-6.8,6.8c0,3.7,3,6.8,6.8,6.8
			C446.6,381.4,449.6,378.3,449.6,374.6z M427,374.6c0-3.7-3-6.8-6.8-6.8c-3.7,0-6.8,3-6.8,6.8c0,3.7,3,6.8,6.8,6.8
			C424,381.4,427,378.3,427,374.6z M404.5,374.6c0-3.7-3-6.8-6.8-6.8c-3.7,0-6.8,3-6.8,6.8c0,3.7,3,6.8,6.8,6.8
			C401.4,381.4,404.5,378.3,404.5,374.6z M381.9,374.6c0-3.7-3-6.8-6.8-6.8c-3.7,0-6.8,3-6.8,6.8c0,3.7,3,6.8,6.8,6.8
			C378.8,381.4,381.9,378.3,381.9,374.6z M359.3,374.6c0-3.7-3-6.8-6.8-6.8s-6.8,3-6.8,6.8c0,3.7,3,6.8,6.8,6.8
			S359.3,378.3,359.3,374.6z M336.7,374.6c0-3.7-3-6.8-6.8-6.8s-6.8,3-6.8,6.8c0,3.7,3,6.8,6.8,6.8S336.7,378.3,336.7,374.6z
			 M314.1,374.6c0-3.7-3-6.8-6.8-6.8s-6.8,3-6.8,6.8c0,3.7,3,6.8,6.8,6.8S314.1,378.3,314.1,374.6z M291.5,374.6
			c0-3.7-3-6.8-6.8-6.8c-3.7,0-6.8,3-6.8,6.8c0,3.7,3,6.8,6.8,6.8C288.5,381.4,291.5,378.3,291.5,374.6z M268.9,374.6
			c0-3.7-3-6.8-6.8-6.8c-3.7,0-6.8,3-6.8,6.8c0,3.7,3,6.8,6.8,6.8C265.9,381.4,268.9,378.3,268.9,374.6z M472.2,404
			c0-3.7-3-6.8-6.8-6.8s-6.8,3-6.8,6.8c0,3.7,3,6.8,6.8,6.8S472.2,407.7,472.2,404z M449.6,404c0-3.7-3-6.8-6.8-6.8
			c-3.7,0-6.8,3-6.8,6.8c0,3.7,3,6.8,6.8,6.8C446.6,410.7,449.6,407.7,449.6,404z M427,404c0-3.7-3-6.8-6.8-6.8
			c-3.7,0-6.8,3-6.8,6.8c0,3.7,3,6.8,6.8,6.8C424,410.7,427,407.7,427,404z M404.5,404c0-3.7-3-6.8-6.8-6.8c-3.7,0-6.8,3-6.8,6.8
			c0,3.7,3,6.8,6.8,6.8C401.4,410.7,404.5,407.7,404.5,404z M381.9,404c0-3.7-3-6.8-6.8-6.8c-3.7,0-6.8,3-6.8,6.8
			c0,3.7,3,6.8,6.8,6.8C378.8,410.7,381.9,407.7,381.9,404z M359.3,404c0-3.7-3-6.8-6.8-6.8s-6.8,3-6.8,6.8c0,3.7,3,6.8,6.8,6.8
			S359.3,407.7,359.3,404z M336.7,404c0-3.7-3-6.8-6.8-6.8s-6.8,3-6.8,6.8c0,3.7,3,6.8,6.8,6.8S336.7,407.7,336.7,404z M314.1,404
			c0-3.7-3-6.8-6.8-6.8s-6.8,3-6.8,6.8c0,3.7,3,6.8,6.8,6.8S314.1,407.7,314.1,404z M291.5,404c0-3.7-3-6.8-6.8-6.8
			c-3.7,0-6.8,3-6.8,6.8c0,3.7,3,6.8,6.8,6.8C288.5,410.7,291.5,407.7,291.5,404z M268.9,404c0-3.7-3-6.8-6.8-6.8
			c-3.7,0-6.8,3-6.8,6.8c0,3.7,3,6.8,6.8,6.8C265.9,410.7,268.9,407.7,268.9,404z M472.2,433.3c0-3.7-3-6.8-6.8-6.8s-6.8,3-6.8,6.8
			s3,6.8,6.8,6.8S472.2,437.1,472.2,433.3z M449.6,433.3c0-3.7-3-6.8-6.8-6.8c-3.7,0-6.8,3-6.8,6.8s3,6.8,6.8,6.8
			C446.6,440.1,449.6,437.1,449.6,433.3z M427,433.3c0-3.7-3-6.8-6.8-6.8c-3.7,0-6.8,3-6.8,6.8s3,6.8,6.8,6.8
			C424,440.1,427,437.1,427,433.3z M404.5,433.3c0-3.7-3-6.8-6.8-6.8c-3.7,0-6.8,3-6.8,6.8s3,6.8,6.8,6.8
			C401.4,440.1,404.5,437.1,404.5,433.3z M381.9,433.3c0-3.7-3-6.8-6.8-6.8c-3.7,0-6.8,3-6.8,6.8s3,6.8,6.8,6.8
			C378.8,440.1,381.9,437.1,381.9,433.3z M359.3,433.3c0-3.7-3-6.8-6.8-6.8s-6.8,3-6.8,6.8s3,6.8,6.8,6.8S359.3,437.1,359.3,433.3z
			 M336.7,433.3c0-3.7-3-6.8-6.8-6.8s-6.8,3-6.8,6.8s3,6.8,6.8,6.8S336.7,437.1,336.7,433.3z M314.1,433.3c0-3.7-3-6.8-6.8-6.8
			s-6.8,3-6.8,6.8s3,6.8,6.8,6.8S314.1,437.1,314.1,433.3z M291.5,433.3c0-3.7-3-6.8-6.8-6.8c-3.7,0-6.8,3-6.8,6.8s3,6.8,6.8,6.8
			C288.5,440.1,291.5,437.1,291.5,433.3z M268.9,433.3c0-3.7-3-6.8-6.8-6.8c-3.7,0-6.8,3-6.8,6.8s3,6.8,6.8,6.8
			C265.9,440.1,268.9,437.1,268.9,433.3z M240.3,468c-3.7,0-6.8-3-6.8-6.8c0-3.7,3-6.8,6.8-6.8c3.7,0,6.8,3,6.8,6.8
			C247.1,465,244,468,240.3,468z M224.5,461.2c0-3.7-3-6.8-6.8-6.8s-6.8,3-6.8,6.8c0,3.7,3,6.8,6.8,6.8S224.5,465,224.5,461.2z
			 M201.9,461.2c0-3.7-3-6.8-6.8-6.8c-3.7,0-6.8,3-6.8,6.8c0,3.7,3,6.8,6.8,6.8C198.9,468,201.9,465,201.9,461.2z M179.3,461.2
			c0-3.7-3-6.8-6.8-6.8c-3.7,0-6.8,3-6.8,6.8c0,3.7,3,6.8,6.8,6.8C176.3,468,179.3,465,179.3,461.2z M156.7,461.2
			c0-3.7-3-6.8-6.8-6.8c-3.7,0-6.8,3-6.8,6.8c0,3.7,3,6.8,6.8,6.8C153.7,468,156.7,465,156.7,461.2z M134.2,461.2
			c0-3.7-3-6.8-6.8-6.8c-3.7,0-6.8,3-6.8,6.8c0,3.7,3,6.8,6.8,6.8C131.1,468,134.2,465,134.2,461.2z M111.6,461.2
			c0-3.7-3-6.8-6.8-6.8s-6.8,3-6.8,6.8c0,3.7,3,6.8,6.8,6.8S111.6,465,111.6,461.2z M89,461.2c0-3.7-3-6.8-6.8-6.8
			c-3.7,0-6.8,3-6.8,6.8c0,3.7,3,6.8,6.8,6.8C86,468,89,465,89,461.2z M66.4,461.2c0-3.7-3-6.8-6.8-6.8c-3.7,0-6.8,3-6.8,6.8
			c0,3.7,3,6.8,6.8,6.8C63.4,468,66.4,465,66.4,461.2z M43.8,461.2c0-3.7-3-6.8-6.8-6.8c-3.7,0-6.8,3-6.8,6.8c0,3.7,3,6.8,6.8,6.8
			C40.8,468,43.8,465,43.8,461.2z M247.1,490.6c0-3.7-3-6.8-6.8-6.8c-3.7,0-6.8,3-6.8,6.8c0,3.7,3,6.8,6.8,6.8
			C244,497.4,247.1,494.3,247.1,490.6z M224.5,490.6c0-3.7-3-6.8-6.8-6.8s-6.8,3-6.8,6.8c0,3.7,3,6.8,6.8,6.8
			S224.5,494.3,224.5,490.6z M201.9,490.6c0-3.7-3-6.8-6.8-6.8c-3.7,0-6.8,3-6.8,6.8c0,3.7,3,6.8,6.8,6.8
			C198.9,497.4,201.9,494.3,201.9,490.6z M179.3,490.6c0-3.7-3-6.8-6.8-6.8c-3.7,0-6.8,3-6.8,6.8c0,3.7,3,6.8,6.8,6.8
			C176.3,497.4,179.3,494.3,179.3,490.6z M156.7,490.6c0-3.7-3-6.8-6.8-6.8c-3.7,0-6.8,3-6.8,6.8c0,3.7,3,6.8,6.8,6.8
			C153.7,497.4,156.7,494.3,156.7,490.6z M134.2,490.6c0-3.7-3-6.8-6.8-6.8c-3.7,0-6.8,3-6.8,6.8c0,3.7,3,6.8,6.8,6.8
			C131.1,497.4,134.2,494.3,134.2,490.6z M111.6,490.6c0-3.7-3-6.8-6.8-6.8s-6.8,3-6.8,6.8c0,3.7,3,6.8,6.8,6.8
			S111.6,494.3,111.6,490.6z M89,490.6c0-3.7-3-6.8-6.8-6.8c-3.7,0-6.8,3-6.8,6.8c0,3.7,3,6.8,6.8,6.8C86,497.4,89,494.3,89,490.6z
			 M66.4,490.6c0-3.7-3-6.8-6.8-6.8c-3.7,0-6.8,3-6.8,6.8c0,3.7,3,6.8,6.8,6.8C63.4,497.4,66.4,494.3,66.4,490.6z M43.8,490.6
			c0-3.7-3-6.8-6.8-6.8c-3.7,0-6.8,3-6.8,6.8c0,3.7,3,6.8,6.8,6.8C40.8,497.4,43.8,494.3,43.8,490.6z M247.1,520
			c0-3.7-3-6.8-6.8-6.8c-3.7,0-6.8,3-6.8,6.8c0,3.7,3,6.8,6.8,6.8C244,526.7,247.1,523.7,247.1,520z M224.5,520c0-3.7-3-6.8-6.8-6.8
			s-6.8,3-6.8,6.8c0,3.7,3,6.8,6.8,6.8S224.5,523.7,224.5,520z M201.9,520c0-3.7-3-6.8-6.8-6.8c-3.7,0-6.8,3-6.8,6.8
			c0,3.7,3,6.8,6.8,6.8C198.9,526.7,201.9,523.7,201.9,520z M179.3,520c0-3.7-3-6.8-6.8-6.8c-3.7,0-6.8,3-6.8,6.8
			c0,3.7,3,6.8,6.8,6.8C176.3,526.7,179.3,523.7,179.3,520z M156.7,520c0-3.7-3-6.8-6.8-6.8c-3.7,0-6.8,3-6.8,6.8
			c0,3.7,3,6.8,6.8,6.8C153.7,526.7,156.7,523.7,156.7,520z M134.2,520c0-3.7-3-6.8-6.8-6.8c-3.7,0-6.8,3-6.8,6.8
			c0,3.7,3,6.8,6.8,6.8C131.1,526.7,134.2,523.7,134.2,520z M111.6,520c0-3.7-3-6.8-6.8-6.8s-6.8,3-6.8,6.8c0,3.7,3,6.8,6.8,6.8
			S111.6,523.7,111.6,520z M89,520c0-3.7-3-6.8-6.8-6.8c-3.7,0-6.8,3-6.8,6.8c0,3.7,3,6.8,6.8,6.8C86,526.7,89,523.7,89,520z
			 M66.4,520c0-3.7-3-6.8-6.8-6.8c-3.7,0-6.8,3-6.8,6.8c0,3.7,3,6.8,6.8,6.8C63.4,526.7,66.4,523.7,66.4,520z M43.8,520
			c0-3.7-3-6.8-6.8-6.8c-3.7,0-6.8,3-6.8,6.8c0,3.7,3,6.8,6.8,6.8C40.8,526.7,43.8,523.7,43.8,520z M247.1,549.3
			c0-3.7-3-6.8-6.8-6.8c-3.7,0-6.8,3-6.8,6.8c0,3.7,3,6.8,6.8,6.8C244,556.1,247.1,553.1,247.1,549.3z M224.5,549.3
			c0-3.7-3-6.8-6.8-6.8s-6.8,3-6.8,6.8c0,3.7,3,6.8,6.8,6.8S224.5,553.1,224.5,549.3z M201.9,549.3c0-3.7-3-6.8-6.8-6.8
			c-3.7,0-6.8,3-6.8,6.8c0,3.7,3,6.8,6.8,6.8C198.9,556.1,201.9,553.1,201.9,549.3z M179.3,549.3c0-3.7-3-6.8-6.8-6.8
			c-3.7,0-6.8,3-6.8,6.8c0,3.7,3,6.8,6.8,6.8C176.3,556.1,179.3,553.1,179.3,549.3z M156.7,549.3c0-3.7-3-6.8-6.8-6.8
			c-3.7,0-6.8,3-6.8,6.8c0,3.7,3,6.8,6.8,6.8C153.7,556.1,156.7,553.1,156.7,549.3z M134.2,549.3c0-3.7-3-6.8-6.8-6.8
			c-3.7,0-6.8,3-6.8,6.8c0,3.7,3,6.8,6.8,6.8C131.1,556.1,134.2,553.1,134.2,549.3z M111.6,549.3c0-3.7-3-6.8-6.8-6.8
			s-6.8,3-6.8,6.8c0,3.7,3,6.8,6.8,6.8S111.6,553.1,111.6,549.3z M89,549.3c0-3.7-3-6.8-6.8-6.8c-3.7,0-6.8,3-6.8,6.8
			c0,3.7,3,6.8,6.8,6.8C86,556.1,89,553.1,89,549.3z M66.4,549.3c0-3.7-3-6.8-6.8-6.8c-3.7,0-6.8,3-6.8,6.8c0,3.7,3,6.8,6.8,6.8
			C63.4,556.1,66.4,553.1,66.4,549.3z M43.8,549.3c0-3.7-3-6.8-6.8-6.8c-3.7,0-6.8,3-6.8,6.8c0,3.7,3,6.8,6.8,6.8
			C40.8,556.1,43.8,553.1,43.8,549.3z M247.1,578.7c0-3.7-3-6.8-6.8-6.8c-3.7,0-6.8,3-6.8,6.8c0,3.7,3,6.8,6.8,6.8
			C244,585.5,247.1,582.4,247.1,578.7z M224.5,578.7c0-3.7-3-6.8-6.8-6.8s-6.8,3-6.8,6.8c0,3.7,3,6.8,6.8,6.8
			S224.5,582.4,224.5,578.7z M201.9,578.7c0-3.7-3-6.8-6.8-6.8c-3.7,0-6.8,3-6.8,6.8c0,3.7,3,6.8,6.8,6.8
			C198.9,585.5,201.9,582.4,201.9,578.7z M179.3,578.7c0-3.7-3-6.8-6.8-6.8c-3.7,0-6.8,3-6.8,6.8c0,3.7,3,6.8,6.8,6.8
			C176.3,585.5,179.3,582.4,179.3,578.7z M156.7,578.7c0-3.7-3-6.8-6.8-6.8c-3.7,0-6.8,3-6.8,6.8c0,3.7,3,6.8,6.8,6.8
			C153.7,585.5,156.7,582.4,156.7,578.7z M134.2,578.7c0-3.7-3-6.8-6.8-6.8c-3.7,0-6.8,3-6.8,6.8c0,3.7,3,6.8,6.8,6.8
			C131.1,585.5,134.2,582.4,134.2,578.7z M111.6,578.7c0-3.7-3-6.8-6.8-6.8s-6.8,3-6.8,6.8c0,3.7,3,6.8,6.8,6.8
			S111.6,582.4,111.6,578.7z M89,578.7c0-3.7-3-6.8-6.8-6.8c-3.7,0-6.8,3-6.8,6.8c0,3.7,3,6.8,6.8,6.8C86,585.5,89,582.4,89,578.7z
			 M66.4,578.7c0-3.7-3-6.8-6.8-6.8c-3.7,0-6.8,3-6.8,6.8c0,3.7,3,6.8,6.8,6.8C63.4,585.5,66.4,582.4,66.4,578.7z M43.8,578.7
			c0-3.7-3-6.8-6.8-6.8c-3.7,0-6.8,3-6.8,6.8c0,3.7,3,6.8,6.8,6.8C40.8,585.5,43.8,582.4,43.8,578.7z M247.1,606.8
			c0-3.7-3-6.8-6.8-6.8c-3.7,0-6.8,3-6.8,6.8c0,3.7,3,6.8,6.8,6.8C244,613.6,247.1,610.5,247.1,606.8z M224.5,606.8
			c0-3.7-3-6.8-6.8-6.8s-6.8,3-6.8,6.8c0,3.7,3,6.8,6.8,6.8S224.5,610.5,224.5,606.8z M201.9,606.8c0-3.7-3-6.8-6.8-6.8
			c-3.7,0-6.8,3-6.8,6.8c0,3.7,3,6.8,6.8,6.8C198.9,613.6,201.9,610.5,201.9,606.8z M179.3,606.8c0-3.7-3-6.8-6.8-6.8
			c-3.7,0-6.8,3-6.8,6.8c0,3.7,3,6.8,6.8,6.8C176.3,613.6,179.3,610.5,179.3,606.8z M156.7,606.8c0-3.7-3-6.8-6.8-6.8
			c-3.7,0-6.8,3-6.8,6.8c0,3.7,3,6.8,6.8,6.8C153.7,613.6,156.7,610.5,156.7,606.8z M134.2,606.8c0-3.7-3-6.8-6.8-6.8
			c-3.7,0-6.8,3-6.8,6.8c0,3.7,3,6.8,6.8,6.8C131.1,613.6,134.2,610.5,134.2,606.8z M111.6,606.8c0-3.7-3-6.8-6.8-6.8
			s-6.8,3-6.8,6.8c0,3.7,3,6.8,6.8,6.8S111.6,610.5,111.6,606.8z M89,606.8c0-3.7-3-6.8-6.8-6.8c-3.7,0-6.8,3-6.8,6.8
			c0,3.7,3,6.8,6.8,6.8C86,613.6,89,610.5,89,606.8z M66.4,606.8c0-3.7-3-6.8-6.8-6.8c-3.7,0-6.8,3-6.8,6.8c0,3.7,3,6.8,6.8,6.8
			C63.4,613.6,66.4,610.5,66.4,606.8z M43.8,606.8c0-3.7-3-6.8-6.8-6.8c-3.7,0-6.8,3-6.8,6.8c0,3.7,3,6.8,6.8,6.8
			C40.8,613.6,43.8,610.5,43.8,606.8z M247.1,636.1c0-3.7-3-6.8-6.8-6.8c-3.7,0-6.8,3-6.8,6.8c0,3.7,3,6.8,6.8,6.8
			C244,642.9,247.1,639.9,247.1,636.1z M224.5,636.1c0-3.7-3-6.8-6.8-6.8s-6.8,3-6.8,6.8c0,3.7,3,6.8,6.8,6.8
			S224.5,639.9,224.5,636.1z M201.9,636.1c0-3.7-3-6.8-6.8-6.8c-3.7,0-6.8,3-6.8,6.8c0,3.7,3,6.8,6.8,6.8
			C198.9,642.9,201.9,639.9,201.9,636.1z M179.3,636.1c0-3.7-3-6.8-6.8-6.8c-3.7,0-6.8,3-6.8,6.8c0,3.7,3,6.8,6.8,6.8
			C176.3,642.9,179.3,639.9,179.3,636.1z M156.7,636.1c0-3.7-3-6.8-6.8-6.8c-3.7,0-6.8,3-6.8,6.8c0,3.7,3,6.8,6.8,6.8
			C153.7,642.9,156.7,639.9,156.7,636.1z M134.2,636.1c0-3.7-3-6.8-6.8-6.8c-3.7,0-6.8,3-6.8,6.8c0,3.7,3,6.8,6.8,6.8
			C131.1,642.9,134.2,639.9,134.2,636.1z M111.6,636.1c0-3.7-3-6.8-6.8-6.8s-6.8,3-6.8,6.8c0,3.7,3,6.8,6.8,6.8
			S111.6,639.9,111.6,636.1z M89,636.1c0-3.7-3-6.8-6.8-6.8c-3.7,0-6.8,3-6.8,6.8c0,3.7,3,6.8,6.8,6.8C86,642.9,89,639.9,89,636.1z
			 M66.4,636.1c0-3.7-3-6.8-6.8-6.8c-3.7,0-6.8,3-6.8,6.8c0,3.7,3,6.8,6.8,6.8C63.4,642.9,66.4,639.9,66.4,636.1z M43.8,636.1
			c0-3.7-3-6.8-6.8-6.8c-3.7,0-6.8,3-6.8,6.8c0,3.7,3,6.8,6.8,6.8C40.8,642.9,43.8,639.9,43.8,636.1z M247.1,665.5
			c0-3.7-3-6.8-6.8-6.8c-3.7,0-6.8,3-6.8,6.8c0,3.7,3,6.8,6.8,6.8C244,672.3,247.1,669.2,247.1,665.5z M224.5,665.5
			c0-3.7-3-6.8-6.8-6.8s-6.8,3-6.8,6.8c0,3.7,3,6.8,6.8,6.8S224.5,669.2,224.5,665.5z M201.9,665.5c0-3.7-3-6.8-6.8-6.8
			c-3.7,0-6.8,3-6.8,6.8c0,3.7,3,6.8,6.8,6.8C198.9,672.3,201.9,669.2,201.9,665.5z M179.3,665.5c0-3.7-3-6.8-6.8-6.8
			c-3.7,0-6.8,3-6.8,6.8c0,3.7,3,6.8,6.8,6.8C176.3,672.3,179.3,669.2,179.3,665.5z M156.7,665.5c0-3.7-3-6.8-6.8-6.8
			c-3.7,0-6.8,3-6.8,6.8c0,3.7,3,6.8,6.8,6.8C153.7,672.3,156.7,669.2,156.7,665.5z M134.2,665.5c0-3.7-3-6.8-6.8-6.8
			c-3.7,0-6.8,3-6.8,6.8c0,3.7,3,6.8,6.8,6.8C131.1,672.3,134.2,669.2,134.2,665.5z M111.6,665.5c0-3.7-3-6.8-6.8-6.8
			s-6.8,3-6.8,6.8c0,3.7,3,6.8,6.8,6.8S111.6,669.2,111.6,665.5z M89,665.5c0-3.7-3-6.8-6.8-6.8c-3.7,0-6.8,3-6.8,6.8
			c0,3.7,3,6.8,6.8,6.8C86,672.3,89,669.2,89,665.5z M66.4,665.5c0-3.7-3-6.8-6.8-6.8c-3.7,0-6.8,3-6.8,6.8c0,3.7,3,6.8,6.8,6.8
			C63.4,672.3,66.4,669.2,66.4,665.5z M43.8,665.5c0-3.7-3-6.8-6.8-6.8c-3.7,0-6.8,3-6.8,6.8c0,3.7,3,6.8,6.8,6.8
			C40.8,672.3,43.8,669.2,43.8,665.5z M247.1,694.9c0-3.7-3-6.8-6.8-6.8c-3.7,0-6.8,3-6.8,6.8c0,3.7,3,6.8,6.8,6.8
			C244,701.6,247.1,698.6,247.1,694.9z M224.5,694.9c0-3.7-3-6.8-6.8-6.8s-6.8,3-6.8,6.8c0,3.7,3,6.8,6.8,6.8
			S224.5,698.6,224.5,694.9z M201.9,694.9c0-3.7-3-6.8-6.8-6.8c-3.7,0-6.8,3-6.8,6.8c0,3.7,3,6.8,6.8,6.8
			C198.9,701.6,201.9,698.6,201.9,694.9z M179.3,694.9c0-3.7-3-6.8-6.8-6.8c-3.7,0-6.8,3-6.8,6.8c0,3.7,3,6.8,6.8,6.8
			C176.3,701.6,179.3,698.6,179.3,694.9z M156.7,694.9c0-3.7-3-6.8-6.8-6.8c-3.7,0-6.8,3-6.8,6.8c0,3.7,3,6.8,6.8,6.8
			C153.7,701.6,156.7,698.6,156.7,694.9z M134.2,694.9c0-3.7-3-6.8-6.8-6.8c-3.7,0-6.8,3-6.8,6.8c0,3.7,3,6.8,6.8,6.8
			C131.1,701.6,134.2,698.6,134.2,694.9z M111.6,694.9c0-3.7-3-6.8-6.8-6.8s-6.8,3-6.8,6.8c0,3.7,3,6.8,6.8,6.8
			S111.6,698.6,111.6,694.9z M89,694.9c0-3.7-3-6.8-6.8-6.8c-3.7,0-6.8,3-6.8,6.8c0,3.7,3,6.8,6.8,6.8C86,701.6,89,698.6,89,694.9z
			 M66.4,694.9c0-3.7-3-6.8-6.8-6.8c-3.7,0-6.8,3-6.8,6.8c0,3.7,3,6.8,6.8,6.8C63.4,701.6,66.4,698.6,66.4,694.9z M43.8,694.9
			c0-3.7-3-6.8-6.8-6.8c-3.7,0-6.8,3-6.8,6.8c0,3.7,3,6.8,6.8,6.8C40.8,701.6,43.8,698.6,43.8,694.9z M247.1,724.2
			c0-3.7-3-6.8-6.8-6.8c-3.7,0-6.8,3-6.8,6.8s3,6.8,6.8,6.8C244,731,247.1,728,247.1,724.2z M224.5,724.2c0-3.7-3-6.8-6.8-6.8
			s-6.8,3-6.8,6.8s3,6.8,6.8,6.8S224.5,728,224.5,724.2z M201.9,724.2c0-3.7-3-6.8-6.8-6.8c-3.7,0-6.8,3-6.8,6.8s3,6.8,6.8,6.8
			C198.9,731,201.9,728,201.9,724.2z M179.3,724.2c0-3.7-3-6.8-6.8-6.8c-3.7,0-6.8,3-6.8,6.8s3,6.8,6.8,6.8
			C176.3,731,179.3,728,179.3,724.2z M156.7,724.2c0-3.7-3-6.8-6.8-6.8c-3.7,0-6.8,3-6.8,6.8s3,6.8,6.8,6.8
			C153.7,731,156.7,728,156.7,724.2z M134.2,724.2c0-3.7-3-6.8-6.8-6.8c-3.7,0-6.8,3-6.8,6.8s3,6.8,6.8,6.8
			C131.1,731,134.2,728,134.2,724.2z M111.6,724.2c0-3.7-3-6.8-6.8-6.8s-6.8,3-6.8,6.8s3,6.8,6.8,6.8S111.6,728,111.6,724.2z
			 M89,724.2c0-3.7-3-6.8-6.8-6.8c-3.7,0-6.8,3-6.8,6.8s3,6.8,6.8,6.8C86,731,89,728,89,724.2z M66.4,724.2c0-3.7-3-6.8-6.8-6.8
			c-3.7,0-6.8,3-6.8,6.8s3,6.8,6.8,6.8C63.4,731,66.4,728,66.4,724.2z M43.8,724.2c0-3.7-3-6.8-6.8-6.8c-3.7,0-6.8,3-6.8,6.8
			s3,6.8,6.8,6.8C40.8,731,43.8,728,43.8,724.2z M465.4,468c-3.7,0-6.8-3-6.8-6.8c0-3.7,3-6.8,6.8-6.8s6.8,3,6.8,6.8
			C472.2,465,469.2,468,465.4,468z M449.6,461.2c0-3.7-3-6.8-6.8-6.8c-3.7,0-6.8,3-6.8,6.8c0,3.7,3,6.8,6.8,6.8
			C446.6,468,449.6,465,449.6,461.2z M427,461.2c0-3.7-3-6.8-6.8-6.8c-3.7,0-6.8,3-6.8,6.8c0,3.7,3,6.8,6.8,6.8
			C424,468,427,465,427,461.2z M404.5,461.2c0-3.7-3-6.8-6.8-6.8c-3.7,0-6.8,3-6.8,6.8c0,3.7,3,6.8,6.8,6.8
			C401.4,468,404.5,465,404.5,461.2z M381.9,461.2c0-3.7-3-6.8-6.8-6.8c-3.7,0-6.8,3-6.8,6.8c0,3.7,3,6.8,6.8,6.8
			C378.8,468,381.9,465,381.9,461.2z M359.3,461.2c0-3.7-3-6.8-6.8-6.8s-6.8,3-6.8,6.8c0,3.7,3,6.8,6.8,6.8S359.3,465,359.3,461.2z
			 M336.7,461.2c0-3.7-3-6.8-6.8-6.8s-6.8,3-6.8,6.8c0,3.7,3,6.8,6.8,6.8S336.7,465,336.7,461.2z M314.1,461.2c0-3.7-3-6.8-6.8-6.8
			s-6.8,3-6.8,6.8c0,3.7,3,6.8,6.8,6.8S314.1,465,314.1,461.2z M291.5,461.2c0-3.7-3-6.8-6.8-6.8c-3.7,0-6.8,3-6.8,6.8
			c0,3.7,3,6.8,6.8,6.8C288.5,468,291.5,465,291.5,461.2z M268.9,461.2c0-3.7-3-6.8-6.8-6.8c-3.7,0-6.8,3-6.8,6.8
			c0,3.7,3,6.8,6.8,6.8C265.9,468,268.9,465,268.9,461.2z M472.2,490.6c0-3.7-3-6.8-6.8-6.8s-6.8,3-6.8,6.8c0,3.7,3,6.8,6.8,6.8
			S472.2,494.3,472.2,490.6z M449.6,490.6c0-3.7-3-6.8-6.8-6.8c-3.7,0-6.8,3-6.8,6.8c0,3.7,3,6.8,6.8,6.8
			C446.6,497.4,449.6,494.3,449.6,490.6z M427,490.6c0-3.7-3-6.8-6.8-6.8c-3.7,0-6.8,3-6.8,6.8c0,3.7,3,6.8,6.8,6.8
			C424,497.4,427,494.3,427,490.6z M404.5,490.6c0-3.7-3-6.8-6.8-6.8c-3.7,0-6.8,3-6.8,6.8c0,3.7,3,6.8,6.8,6.8
			C401.4,497.4,404.5,494.3,404.5,490.6z M381.9,490.6c0-3.7-3-6.8-6.8-6.8c-3.7,0-6.8,3-6.8,6.8c0,3.7,3,6.8,6.8,6.8
			C378.8,497.4,381.9,494.3,381.9,490.6z M359.3,490.6c0-3.7-3-6.8-6.8-6.8s-6.8,3-6.8,6.8c0,3.7,3,6.8,6.8,6.8
			S359.3,494.3,359.3,490.6z M336.7,490.6c0-3.7-3-6.8-6.8-6.8s-6.8,3-6.8,6.8c0,3.7,3,6.8,6.8,6.8S336.7,494.3,336.7,490.6z
			 M314.1,490.6c0-3.7-3-6.8-6.8-6.8s-6.8,3-6.8,6.8c0,3.7,3,6.8,6.8,6.8S314.1,494.3,314.1,490.6z M291.5,490.6
			c0-3.7-3-6.8-6.8-6.8c-3.7,0-6.8,3-6.8,6.8c0,3.7,3,6.8,6.8,6.8C288.5,497.4,291.5,494.3,291.5,490.6z M268.9,490.6
			c0-3.7-3-6.8-6.8-6.8c-3.7,0-6.8,3-6.8,6.8c0,3.7,3,6.8,6.8,6.8C265.9,497.4,268.9,494.3,268.9,490.6z M472.2,520
			c0-3.7-3-6.8-6.8-6.8s-6.8,3-6.8,6.8c0,3.7,3,6.8,6.8,6.8S472.2,523.7,472.2,520z M449.6,520c0-3.7-3-6.8-6.8-6.8
			c-3.7,0-6.8,3-6.8,6.8c0,3.7,3,6.8,6.8,6.8C446.6,526.7,449.6,523.7,449.6,520z M427,520c0-3.7-3-6.8-6.8-6.8
			c-3.7,0-6.8,3-6.8,6.8c0,3.7,3,6.8,6.8,6.8C424,526.7,427,523.7,427,520z M404.5,520c0-3.7-3-6.8-6.8-6.8c-3.7,0-6.8,3-6.8,6.8
			c0,3.7,3,6.8,6.8,6.8C401.4,526.7,404.5,523.7,404.5,520z M381.9,520c0-3.7-3-6.8-6.8-6.8c-3.7,0-6.8,3-6.8,6.8
			c0,3.7,3,6.8,6.8,6.8C378.8,526.7,381.9,523.7,381.9,520z M359.3,520c0-3.7-3-6.8-6.8-6.8s-6.8,3-6.8,6.8c0,3.7,3,6.8,6.8,6.8
			S359.3,523.7,359.3,520z M336.7,520c0-3.7-3-6.8-6.8-6.8s-6.8,3-6.8,6.8c0,3.7,3,6.8,6.8,6.8S336.7,523.7,336.7,520z M314.1,520
			c0-3.7-3-6.8-6.8-6.8s-6.8,3-6.8,6.8c0,3.7,3,6.8,6.8,6.8S314.1,523.7,314.1,520z M291.5,520c0-3.7-3-6.8-6.8-6.8
			c-3.7,0-6.8,3-6.8,6.8c0,3.7,3,6.8,6.8,6.8C288.5,526.7,291.5,523.7,291.5,520z M268.9,520c0-3.7-3-6.8-6.8-6.8
			c-3.7,0-6.8,3-6.8,6.8c0,3.7,3,6.8,6.8,6.8C265.9,526.7,268.9,523.7,268.9,520z M472.2,549.3c0-3.7-3-6.8-6.8-6.8s-6.8,3-6.8,6.8
			c0,3.7,3,6.8,6.8,6.8S472.2,553.1,472.2,549.3z M449.6,549.3c0-3.7-3-6.8-6.8-6.8c-3.7,0-6.8,3-6.8,6.8c0,3.7,3,6.8,6.8,6.8
			C446.6,556.1,449.6,553.1,449.6,549.3z M427,549.3c0-3.7-3-6.8-6.8-6.8c-3.7,0-6.8,3-6.8,6.8c0,3.7,3,6.8,6.8,6.8
			C424,556.1,427,553.1,427,549.3z M404.5,549.3c0-3.7-3-6.8-6.8-6.8c-3.7,0-6.8,3-6.8,6.8c0,3.7,3,6.8,6.8,6.8
			C401.4,556.1,404.5,553.1,404.5,549.3z M381.9,549.3c0-3.7-3-6.8-6.8-6.8c-3.7,0-6.8,3-6.8,6.8c0,3.7,3,6.8,6.8,6.8
			C378.8,556.1,381.9,553.1,381.9,549.3z M359.3,549.3c0-3.7-3-6.8-6.8-6.8s-6.8,3-6.8,6.8c0,3.7,3,6.8,6.8,6.8
			S359.3,553.1,359.3,549.3z M336.7,549.3c0-3.7-3-6.8-6.8-6.8s-6.8,3-6.8,6.8c0,3.7,3,6.8,6.8,6.8S336.7,553.1,336.7,549.3z
			 M314.1,549.3c0-3.7-3-6.8-6.8-6.8s-6.8,3-6.8,6.8c0,3.7,3,6.8,6.8,6.8S314.1,553.1,314.1,549.3z M291.5,549.3
			c0-3.7-3-6.8-6.8-6.8c-3.7,0-6.8,3-6.8,6.8c0,3.7,3,6.8,6.8,6.8C288.5,556.1,291.5,553.1,291.5,549.3z M268.9,549.3
			c0-3.7-3-6.8-6.8-6.8c-3.7,0-6.8,3-6.8,6.8c0,3.7,3,6.8,6.8,6.8C265.9,556.1,268.9,553.1,268.9,549.3z M472.2,578.7
			c0-3.7-3-6.8-6.8-6.8s-6.8,3-6.8,6.8c0,3.7,3,6.8,6.8,6.8S472.2,582.4,472.2,578.7z M449.6,578.7c0-3.7-3-6.8-6.8-6.8
			c-3.7,0-6.8,3-6.8,6.8c0,3.7,3,6.8,6.8,6.8C446.6,585.5,449.6,582.4,449.6,578.7z M427,578.7c0-3.7-3-6.8-6.8-6.8
			c-3.7,0-6.8,3-6.8,6.8c0,3.7,3,6.8,6.8,6.8C424,585.5,427,582.4,427,578.7z M404.5,578.7c0-3.7-3-6.8-6.8-6.8
			c-3.7,0-6.8,3-6.8,6.8c0,3.7,3,6.8,6.8,6.8C401.4,585.5,404.5,582.4,404.5,578.7z M381.9,578.7c0-3.7-3-6.8-6.8-6.8
			c-3.7,0-6.8,3-6.8,6.8c0,3.7,3,6.8,6.8,6.8C378.8,585.5,381.9,582.4,381.9,578.7z M359.3,578.7c0-3.7-3-6.8-6.8-6.8
			s-6.8,3-6.8,6.8c0,3.7,3,6.8,6.8,6.8S359.3,582.4,359.3,578.7z M336.7,578.7c0-3.7-3-6.8-6.8-6.8s-6.8,3-6.8,6.8
			c0,3.7,3,6.8,6.8,6.8S336.7,582.4,336.7,578.7z M314.1,578.7c0-3.7-3-6.8-6.8-6.8s-6.8,3-6.8,6.8c0,3.7,3,6.8,6.8,6.8
			S314.1,582.4,314.1,578.7z M291.5,578.7c0-3.7-3-6.8-6.8-6.8c-3.7,0-6.8,3-6.8,6.8c0,3.7,3,6.8,6.8,6.8
			C288.5,585.5,291.5,582.4,291.5,578.7z M268.9,578.7c0-3.7-3-6.8-6.8-6.8c-3.7,0-6.8,3-6.8,6.8c0,3.7,3,6.8,6.8,6.8
			C265.9,585.5,268.9,582.4,268.9,578.7z M472.2,606.8c0-3.7-3-6.8-6.8-6.8s-6.8,3-6.8,6.8c0,3.7,3,6.8,6.8,6.8
			S472.2,610.5,472.2,606.8z M449.6,606.8c0-3.7-3-6.8-6.8-6.8c-3.7,0-6.8,3-6.8,6.8c0,3.7,3,6.8,6.8,6.8
			C446.6,613.6,449.6,610.5,449.6,606.8z M427,606.8c0-3.7-3-6.8-6.8-6.8c-3.7,0-6.8,3-6.8,6.8c0,3.7,3,6.8,6.8,6.8
			C424,613.6,427,610.5,427,606.8z M404.5,606.8c0-3.7-3-6.8-6.8-6.8c-3.7,0-6.8,3-6.8,6.8c0,3.7,3,6.8,6.8,6.8
			C401.4,613.6,404.5,610.5,404.5,606.8z M381.9,606.8c0-3.7-3-6.8-6.8-6.8c-3.7,0-6.8,3-6.8,6.8c0,3.7,3,6.8,6.8,6.8
			C378.8,613.6,381.9,610.5,381.9,606.8z M359.3,606.8c0-3.7-3-6.8-6.8-6.8s-6.8,3-6.8,6.8c0,3.7,3,6.8,6.8,6.8
			S359.3,610.5,359.3,606.8z M336.7,606.8c0-3.7-3-6.8-6.8-6.8s-6.8,3-6.8,6.8c0,3.7,3,6.8,6.8,6.8S336.7,610.5,336.7,606.8z
			 M314.1,606.8c0-3.7-3-6.8-6.8-6.8s-6.8,3-6.8,6.8c0,3.7,3,6.8,6.8,6.8S314.1,610.5,314.1,606.8z M291.5,606.8
			c0-3.7-3-6.8-6.8-6.8c-3.7,0-6.8,3-6.8,6.8c0,3.7,3,6.8,6.8,6.8C288.5,613.6,291.5,610.5,291.5,606.8z M268.9,606.8
			c0-3.7-3-6.8-6.8-6.8c-3.7,0-6.8,3-6.8,6.8c0,3.7,3,6.8,6.8,6.8C265.9,613.6,268.9,610.5,268.9,606.8z M472.2,636.1
			c0-3.7-3-6.8-6.8-6.8s-6.8,3-6.8,6.8c0,3.7,3,6.8,6.8,6.8S472.2,639.9,472.2,636.1z M449.6,636.1c0-3.7-3-6.8-6.8-6.8
			c-3.7,0-6.8,3-6.8,6.8c0,3.7,3,6.8,6.8,6.8C446.6,642.9,449.6,639.9,449.6,636.1z M427,636.1c0-3.7-3-6.8-6.8-6.8
			c-3.7,0-6.8,3-6.8,6.8c0,3.7,3,6.8,6.8,6.8C424,642.9,427,639.9,427,636.1z M404.5,636.1c0-3.7-3-6.8-6.8-6.8
			c-3.7,0-6.8,3-6.8,6.8c0,3.7,3,6.8,6.8,6.8C401.4,642.9,404.5,639.9,404.5,636.1z M381.9,636.1c0-3.7-3-6.8-6.8-6.8
			c-3.7,0-6.8,3-6.8,6.8c0,3.7,3,6.8,6.8,6.8C378.8,642.9,381.9,639.9,381.9,636.1z M359.3,636.1c0-3.7-3-6.8-6.8-6.8
			s-6.8,3-6.8,6.8c0,3.7,3,6.8,6.8,6.8S359.3,639.9,359.3,636.1z M336.7,636.1c0-3.7-3-6.8-6.8-6.8s-6.8,3-6.8,6.8
			c0,3.7,3,6.8,6.8,6.8S336.7,639.9,336.7,636.1z M314.1,636.1c0-3.7-3-6.8-6.8-6.8s-6.8,3-6.8,6.8c0,3.7,3,6.8,6.8,6.8
			S314.1,639.9,314.1,636.1z M291.5,636.1c0-3.7-3-6.8-6.8-6.8c-3.7,0-6.8,3-6.8,6.8c0,3.7,3,6.8,6.8,6.8
			C288.5,642.9,291.5,639.9,291.5,636.1z M268.9,636.1c0-3.7-3-6.8-6.8-6.8c-3.7,0-6.8,3-6.8,6.8c0,3.7,3,6.8,6.8,6.8
			C265.9,642.9,268.9,639.9,268.9,636.1z M472.2,665.5c0-3.7-3-6.8-6.8-6.8s-6.8,3-6.8,6.8c0,3.7,3,6.8,6.8,6.8
			S472.2,669.2,472.2,665.5z M449.6,665.5c0-3.7-3-6.8-6.8-6.8c-3.7,0-6.8,3-6.8,6.8c0,3.7,3,6.8,6.8,6.8
			C446.6,672.3,449.6,669.2,449.6,665.5z M427,665.5c0-3.7-3-6.8-6.8-6.8c-3.7,0-6.8,3-6.8,6.8c0,3.7,3,6.8,6.8,6.8
			C424,672.3,427,669.2,427,665.5z M404.5,665.5c0-3.7-3-6.8-6.8-6.8c-3.7,0-6.8,3-6.8,6.8c0,3.7,3,6.8,6.8,6.8
			C401.4,672.3,404.5,669.2,404.5,665.5z M381.9,665.5c0-3.7-3-6.8-6.8-6.8c-3.7,0-6.8,3-6.8,6.8c0,3.7,3,6.8,6.8,6.8
			C378.8,672.3,381.9,669.2,381.9,665.5z M359.3,665.5c0-3.7-3-6.8-6.8-6.8s-6.8,3-6.8,6.8c0,3.7,3,6.8,6.8,6.8
			S359.3,669.2,359.3,665.5z M336.7,665.5c0-3.7-3-6.8-6.8-6.8s-6.8,3-6.8,6.8c0,3.7,3,6.8,6.8,6.8S336.7,669.2,336.7,665.5z
			 M314.1,665.5c0-3.7-3-6.8-6.8-6.8s-6.8,3-6.8,6.8c0,3.7,3,6.8,6.8,6.8S314.1,669.2,314.1,665.5z M291.5,665.5
			c0-3.7-3-6.8-6.8-6.8c-3.7,0-6.8,3-6.8,6.8c0,3.7,3,6.8,6.8,6.8C288.5,672.3,291.5,669.2,291.5,665.5z M268.9,665.5
			c0-3.7-3-6.8-6.8-6.8c-3.7,0-6.8,3-6.8,6.8c0,3.7,3,6.8,6.8,6.8C265.9,672.3,268.9,669.2,268.9,665.5z M472.2,694.9
			c0-3.7-3-6.8-6.8-6.8s-6.8,3-6.8,6.8c0,3.7,3,6.8,6.8,6.8S472.2,698.6,472.2,694.9z M449.6,694.9c0-3.7-3-6.8-6.8-6.8
			c-3.7,0-6.8,3-6.8,6.8c0,3.7,3,6.8,6.8,6.8C446.6,701.6,449.6,698.6,449.6,694.9z M427,694.9c0-3.7-3-6.8-6.8-6.8
			c-3.7,0-6.8,3-6.8,6.8c0,3.7,3,6.8,6.8,6.8C424,701.6,427,698.6,427,694.9z M404.5,694.9c0-3.7-3-6.8-6.8-6.8
			c-3.7,0-6.8,3-6.8,6.8c0,3.7,3,6.8,6.8,6.8C401.4,701.6,404.5,698.6,404.5,694.9z M381.9,694.9c0-3.7-3-6.8-6.8-6.8
			c-3.7,0-6.8,3-6.8,6.8c0,3.7,3,6.8,6.8,6.8C378.8,701.6,381.9,698.6,381.9,694.9z M359.3,694.9c0-3.7-3-6.8-6.8-6.8
			s-6.8,3-6.8,6.8c0,3.7,3,6.8,6.8,6.8S359.3,698.6,359.3,694.9z M336.7,694.9c0-3.7-3-6.8-6.8-6.8s-6.8,3-6.8,6.8
			c0,3.7,3,6.8,6.8,6.8S336.7,698.6,336.7,694.9z M314.1,694.9c0-3.7-3-6.8-6.8-6.8s-6.8,3-6.8,6.8c0,3.7,3,6.8,6.8,6.8
			S314.1,698.6,314.1,694.9z M291.5,694.9c0-3.7-3-6.8-6.8-6.8c-3.7,0-6.8,3-6.8,6.8c0,3.7,3,6.8,6.8,6.8
			C288.5,701.6,291.5,698.6,291.5,694.9z M268.9,694.9c0-3.7-3-6.8-6.8-6.8c-3.7,0-6.8,3-6.8,6.8c0,3.7,3,6.8,6.8,6.8
			C265.9,701.6,268.9,698.6,268.9,694.9z M472.2,724.2c0-3.7-3-6.8-6.8-6.8s-6.8,3-6.8,6.8s3,6.8,6.8,6.8S472.2,728,472.2,724.2z
			 M449.6,724.2c0-3.7-3-6.8-6.8-6.8c-3.7,0-6.8,3-6.8,6.8s3,6.8,6.8,6.8C446.6,731,449.6,728,449.6,724.2z M427,724.2
			c0-3.7-3-6.8-6.8-6.8c-3.7,0-6.8,3-6.8,6.8s3,6.8,6.8,6.8C424,731,427,728,427,724.2z M404.5,724.2c0-3.7-3-6.8-6.8-6.8
			c-3.7,0-6.8,3-6.8,6.8s3,6.8,6.8,6.8C401.4,731,404.5,728,404.5,724.2z M381.9,724.2c0-3.7-3-6.8-6.8-6.8c-3.7,0-6.8,3-6.8,6.8
			s3,6.8,6.8,6.8C378.8,731,381.9,728,381.9,724.2z M359.3,724.2c0-3.7-3-6.8-6.8-6.8s-6.8,3-6.8,6.8s3,6.8,6.8,6.8
			S359.3,728,359.3,724.2z M336.7,724.2c0-3.7-3-6.8-6.8-6.8s-6.8,3-6.8,6.8s3,6.8,6.8,6.8S336.7,728,336.7,724.2z M314.1,724.2
			c0-3.7-3-6.8-6.8-6.8s-6.8,3-6.8,6.8s3,6.8,6.8,6.8S314.1,728,314.1,724.2z M291.5,724.2c0-3.7-3-6.8-6.8-6.8
			c-3.7,0-6.8,3-6.8,6.8s3,6.8,6.8,6.8C288.5,731,291.5,728,291.5,724.2z M268.9,724.2c0-3.7-3-6.8-6.8-6.8c-3.7,0-6.8,3-6.8,6.8
			s3,6.8,6.8,6.8C265.9,731,268.9,728,268.9,724.2z"/>
	</defs>
	<clipPath id="SVGID_00000066504115821467780340000016991547584049756050_">
		<use xlink:href="#SVGID_1_"  style="overflow:visible;"/>
	</clipPath>
	
		<linearGradient id="SVGID_00000039123196371951114380000003857038858076613513_" gradientUnits="userSpaceOnUse" x1="-605.7081" y1="-839.8322" x2="145.4482" y2="-839.8322" gradientTransform="matrix(0 1 -1 0 -588.4741 608.2064)">
		<stop  offset="0" style="stop-color:#91258F"/>
		<stop  offset="1" style="stop-color:#26A9E1"/>
	</linearGradient>
	
		<polygon style="clip-path:url(#SVGID_00000066504115821467780340000016991547584049756050_);fill:url(#SVGID_00000039123196371951114380000003857038858076613513_);" points="
		-4.6,753.7 -4.6,2.5 507.3,2.5 507.3,753.7 	"/>
</g>
</svg>
