<?xml version="1.0" encoding="utf-8"?>
<!-- Generator: Adobe Illustrator 18.0.0, SVG Export Plug-In . SVG Version: 6.00 Build 0)  -->
<svg version="1.1" xmlns="http://www.w3.org/2000/svg" xmlns:xlink="http://www.w3.org/1999/xlink" x="0px" y="0px"
	 viewBox="0 0 250 250" enable-background="new 0 0 250 250" xml:space="preserve">
<g id="Layer_1">
</g>
<g id="Capa_1">
	<g>
		<path fill="#010101" d="M219.4,69c-10.1-17.3-23.8-31-41-41c-17.3-10.1-36.1-15.1-56.6-15.1c-20.5,0-39.3,5-56.6,15.1
			c-17.3,10.1-31,23.8-41,41C14,86.2,9,105.1,9,125.6c0,24.6,7.2,46.7,21.5,66.3c14.3,19.6,32.9,33.2,55.6,40.7
			c2.6,0.5,4.6,0.1,5.9-1c1.3-1.2,1.9-2.6,1.9-4.4c0-0.3,0-2.9-0.1-7.9c-0.1-5-0.1-9.3-0.1-13.1l-3.4,0.6c-2.2,0.4-4.9,0.6-8.1,0.5
			c-3.3,0-6.7-0.4-10.2-1c-3.5-0.6-6.8-2.1-9.8-4.4c-3-2.3-5.2-5.3-6.5-9l-1.5-3.4c-1-2.2-2.5-4.7-4.6-7.5c-2.1-2.7-4.2-4.6-6.4-5.6
			l-1-0.7c-0.7-0.5-1.3-1.1-1.9-1.8c-0.6-0.7-1-1.4-1.3-2.1c-0.3-0.7-0.1-1.2,0.7-1.7c0.8-0.4,2.2-0.7,4.3-0.7l2.9,0.4
			c2,0.4,4.4,1.6,7.3,3.5c2.9,2,5.3,4.5,7.1,7.6c2.3,4,5,7.1,8.1,9.2c3.2,2.1,6.4,3.2,9.6,3.2c3.2,0,6-0.2,8.4-0.7
			c2.3-0.5,4.6-1.2,6.6-2.2c0.9-6.6,3.3-11.6,7.2-15.1c-5.6-0.6-10.6-1.5-15.1-2.6c-4.5-1.2-9.1-3.1-13.8-5.7
			c-4.7-2.6-8.7-5.9-11.8-9.8c-3.1-3.9-5.7-9.1-7.7-15.4c-2-6.4-3-13.7-3-22c0-11.8,3.9-21.9,11.6-30.2c-3.6-8.9-3.3-18.9,1-30
			c2.8-0.9,7-0.2,12.6,2c5.6,2.2,9.7,4.1,12.3,5.7c2.6,1.6,4.7,2.9,6.2,4c9.1-2.5,18.5-3.8,28.2-3.8c9.7,0,19.1,1.3,28.2,3.8
			l5.6-3.5c3.8-2.4,8.3-4.5,13.5-6.5c5.2-2,9.2-2.5,11.9-1.6c4.4,11.1,4.8,21,1.2,30c7.7,8.3,11.6,18.4,11.6,30.2
			c0,8.3-1,15.7-3,22.1c-2,6.4-4.6,11.5-7.8,15.4c-3.2,3.9-7.1,7.1-11.9,9.8c-4.7,2.6-9.4,4.6-13.8,5.7c-4.5,1.2-9.5,2.1-15.1,2.6
			c5.1,4.4,7.6,11.4,7.6,20.8v31c0,1.8,0.6,3.2,1.8,4.4c1.2,1.2,3.2,1.5,5.8,1c22.7-7.5,41.2-21.1,55.6-40.7
			c14.3-19.6,21.5-41.7,21.5-66.3C234.5,105.1,229.5,86.2,219.4,69z"/>
	</g>
</g>
</svg>
