<?xml version="1.0" encoding="utf-8"?>
<!-- Generator: Adobe Illustrator 18.0.0, SVG Export Plug-In . SVG Version: 6.00 Build 0)  -->
<svg version="1.1" id="Layer_1" xmlns="http://www.w3.org/2000/svg" xmlns:xlink="http://www.w3.org/1999/xlink" x="0px" y="0px"
	 viewBox="0 0 250 250" enable-background="new 0 0 250 250" xml:space="preserve">
<g>
	<path fill="#7F3F98" d="M14.7,247.5c-6.7,0-12.2-5.5-12.2-12.2V14.7C2.5,8,8,2.5,14.7,2.5h220.7c6.7,0,12.2,5.5,12.2,12.2v220.7
		c0,6.7-5.5,12.2-12.2,12.2H14.7z"/>
	<path fill="#FFFFFF" d="M235.3,5c5.3,0,9.7,4.3,9.7,9.7v220.7c0,5.3-4.3,9.7-9.7,9.7H14.7c-5.3,0-9.7-4.3-9.7-9.7V14.7
		C5,9.3,9.3,5,14.7,5H235.3 M235.3,0H14.7C6.6,0,0,6.6,0,14.7v220.7c0,8.1,6.6,14.7,14.7,14.7h220.7c8.1,0,14.7-6.6,14.7-14.7V14.7
		C250,6.6,243.4,0,235.3,0L235.3,0z"/>
</g>
<g>
	<path fill="#FFFFFF" d="M169.1,221.8V144l15.4-2.5v26.1c1-0.3,2.4-0.7,4-1c1.6-0.3,3.2-0.5,4.7-0.5c4.4,0,8.1,0.6,11,1.8
		c2.9,1.2,5.3,2.9,7,5.1s3,4.8,3.7,7.9c0.7,3,1.1,6.4,1.1,10.1v30.7h-15.4v-28.9c0-5-0.6-8.5-1.9-10.6c-1.3-2.1-3.6-3.1-7.1-3.1
		c-1.4,0-2.7,0.1-3.9,0.4c-1.2,0.2-2.3,0.5-3.3,0.8v41.4H169.1z"/>
</g>
<rect x="-345" y="105" fill="#7F3F98" stroke="#000000" stroke-width="5" stroke-miterlimit="10" width="95" height="95"/>
<rect x="-135" y="252" fill="#DBCEE6" stroke="#000000" stroke-width="5" stroke-miterlimit="10" width="68" height="68"/>
</svg>
