<?xml version="1.0" encoding="utf-8"?>
<!-- Generator: Adobe Illustrator 18.0.0, SVG Export Plug-In . SVG Version: 6.00 Build 0)  -->
<svg version="1.1" id="Layer_1" xmlns="http://www.w3.org/2000/svg" xmlns:xlink="http://www.w3.org/1999/xlink" x="0px" y="0px"
	 viewBox="0 0 250 250" enable-background="new 0 0 250 250" xml:space="preserve">
<path fill="#F9ED32" d="M37.9,121.7h86.7v89.5C124.6,211.1,41,207.4,37.9,121.7z"/>
<path fill="#D7DF23" d="M129.8,36.8v77.9h80.3C210.1,114.6,204.4,43.8,129.8,36.8z"/>
<g>
	<path d="M124.8,4.6c31.8,0,61.7,12.4,84.2,34.9c22.5,22.5,34.9,52.4,34.9,84.2s-12.4,61.7-34.9,84.2
		c-22.5,22.5-52.4,34.9-84.2,34.9s-61.7-12.4-84.2-34.9c-22.5-22.5-34.9-52.4-34.9-84.2S18.1,62,40.6,39.5C63.1,17,93,4.6,124.8,4.6
		 M124.8,2.7c-66.8,0-121,54.2-121,121s54.2,121,121,121s121-54.2,121-121S191.6,2.7,124.8,2.7L124.8,2.7z"/>
</g>
<g>
	<path d="M124.8,34.6c49.1,0,89.1,39.9,89.1,89.1s-39.9,89.1-89.1,89.1s-89.1-39.9-89.1-89.1S75.7,34.6,124.8,34.6 M124.8,31.7
		c-50.8,0-92,41.2-92,92s41.2,92,92,92s92-41.2,92-92S175.6,31.7,124.8,31.7L124.8,31.7z"/>
</g>
<line fill="none" stroke="#000000" stroke-width="1.9393" stroke-miterlimit="10" x1="19.3" y1="117.8" x2="235.5" y2="117.8"/>
<line fill="none" stroke="#000000" stroke-width="0.9697" stroke-miterlimit="10" x1="127.4" y1="225.9" x2="127.4" y2="9.7"/>
<circle fill="#FFFFFF" stroke="#000000" stroke-width="2.909" stroke-miterlimit="10" cx="127.7" cy="118" r="21.6"/>
</svg>
