<?xml version="1.0" encoding="utf-8"?>
<!-- Generator: Adobe Illustrator 18.0.0, SVG Export Plug-In . SVG Version: 6.00 Build 0)  -->
<svg version="1.1" id="Layer_1" xmlns="http://www.w3.org/2000/svg" xmlns:xlink="http://www.w3.org/1999/xlink" x="0px" y="0px"
	 viewBox="0 0 250 250" enable-background="new 0 0 250 250" xml:space="preserve">
<g>
	<path fill="#DA1C5C" d="M18.5,38.1h37.6v167.2H18.5V38.1z"/>
	<path fill="#E6828E" d="M241.2,121.6c0,14.5-2.3,27.1-6.8,37.9c-4.5,10.8-10.9,19.7-19.2,26.8c-8.3,7.1-18.4,12.4-30.3,15.9
		c-11.9,3.5-25.3,5.3-40.1,5.3c-6.8,0-14.6-0.3-23.7-0.8c-9-0.6-17.8-1.7-26.5-3.5V40.2c8.7-1.6,17.7-2.7,27.1-3.3
		c9.4-0.6,17.5-0.8,24.3-0.8c14.3,0,27.3,1.6,39,4.8c11.7,3.2,21.7,8.3,30,15.2c8.4,6.9,14.8,15.8,19.3,26.5
		C238.9,93.5,241.2,106.4,241.2,121.6z M132.4,174.6c1.8,0.2,3.8,0.3,6.2,0.4c2.3,0.1,5.1,0.1,8.3,0.1c18.8,0,32.8-4.7,41.9-14.2
		c9.1-9.5,13.6-22.6,13.6-39.3c0-17.5-4.3-30.8-13-39.8c-8.7-9-22.4-13.5-41.3-13.5c-2.6,0-5.2,0-8,0.1c-2.7,0.1-5.3,0.3-7.7,0.6
		V174.6z"/>
</g>
<g>
	<g>
		<line fill="none" stroke="#DA1C5C" stroke-miterlimit="10" x1="19" y1="231.5" x2="20" y2="231.5"/>
		<line fill="none" stroke="#DA1C5C" stroke-miterlimit="10" stroke-dasharray="2,4" x1="24" y1="231.5" x2="232" y2="231.5"/>
		<line fill="none" stroke="#DA1C5C" stroke-miterlimit="10" x1="234" y1="231.5" x2="235" y2="231.5"/>
	</g>
</g>
<rect x="-173" y="51" fill="#F8E2E1" width="116" height="116"/>
</svg>
