<?xml version="1.0" encoding="utf-8"?>
<!-- Generator: Adobe Illustrator 18.0.0, SVG Export Plug-In . SVG Version: 6.00 Build 0)  -->
<svg version="1.1" id="Layer_1" xmlns="http://www.w3.org/2000/svg" xmlns:xlink="http://www.w3.org/1999/xlink" x="0px" y="0px"
	 viewBox="0 0 250 250" enable-background="new 0 0 250 250" xml:space="preserve">
<g>
	<path fill="#F9ED32" d="M14.7,247.5c-6.7,0-12.2-5.5-12.2-12.2V14.7C2.5,8,8,2.5,14.7,2.5h220.7c6.7,0,12.2,5.5,12.2,12.2v220.7
		c0,6.7-5.5,12.2-12.2,12.2H14.7z"/>
	<path d="M235.3,5c5.3,0,9.7,4.3,9.7,9.7v220.7c0,5.3-4.3,9.7-9.7,9.7H14.7c-5.3,0-9.7-4.3-9.7-9.7V14.7C5,9.3,9.3,5,14.7,5H235.3
		 M235.3,0H14.7C6.6,0,0,6.6,0,14.7v220.7c0,8.1,6.6,14.7,14.7,14.7h220.7c8.1,0,14.7-6.6,14.7-14.7V14.7C250,6.6,243.4,0,235.3,0
		L235.3,0z"/>
</g>
<g>
	<path d="M156.4,224.5c-0.9,0-2.1-0.1-3.8-0.3c-1.7-0.2-3.3-0.5-4.7-1l1.8-11.1c0.9,0.3,1.8,0.5,2.5,0.6c0.8,0.1,1.7,0.2,2.9,0.2
		c2.1,0,3.6-0.6,4.5-1.9c0.9-1.3,1.3-3.2,1.3-5.6v-46.2h13.7v46.6c0,6.4-1.6,11.1-4.7,14.2C166.8,223,162.2,224.5,156.4,224.5z
		 M175.9,145.2c0,2.5-0.8,4.5-2.4,5.9c-1.6,1.4-3.5,2.2-5.7,2.2s-4.1-0.7-5.7-2.2c-1.6-1.4-2.4-3.4-2.4-5.9c0-2.5,0.8-4.5,2.4-5.9
		c1.6-1.4,3.5-2.2,5.7-2.2s4.1,0.7,5.7,2.2C175,140.7,175.9,142.7,175.9,145.2z"/>
	<path d="M201.3,197.7c2.5,0,4.3-0.2,5.3-0.7c1-0.5,1.6-1.4,1.6-2.8c0-1.1-0.7-2.1-2-2.9c-1.4-0.8-3.4-1.8-6.2-2.8
		c-2.1-0.8-4.1-1.6-5.8-2.5c-1.7-0.9-3.2-1.9-4.5-3.1c-1.2-1.2-2.2-2.6-2.8-4.3c-0.7-1.7-1-3.6-1-6c0-4.5,1.7-8.1,5.1-10.8
		c3.4-2.6,8-4,13.9-4c2.9,0,5.8,0.3,8.5,0.8s4.8,1.1,6.4,1.7l-2.4,10.7c-1.6-0.5-3.3-1-5.2-1.5c-1.9-0.4-4-0.6-6.3-0.6
		c-4.3,0-6.4,1.2-6.4,3.6c0,0.5,0.1,1,0.3,1.5c0.2,0.4,0.5,0.8,1.1,1.2c0.5,0.4,1.3,0.8,2.3,1.3c0.9,0.5,2.2,1,3.6,1.5
		c3,1.1,5.5,2.2,7.4,3.3c2,1.1,3.5,2.3,4.6,3.5c1.1,1.3,1.9,2.6,2.4,4.2c0.5,1.5,0.7,3.3,0.7,5.3c0,4.8-1.8,8.4-5.4,10.8
		c-3.6,2.4-8.7,3.7-15.2,3.7c-4.3,0-7.9-0.4-10.7-1.1c-2.8-0.7-4.8-1.3-5.9-1.8l2.3-11.1c2.3,0.9,4.7,1.6,7.2,2.2
		C196.5,197.4,198.9,197.7,201.3,197.7z"/>
</g>
</svg>
