<?xml version="1.0" encoding="utf-8"?>
<!-- Generator: Adobe Illustrator 18.0.0, SVG Export Plug-In . SVG Version: 6.00 Build 0)  -->
<svg version="1.1" id="Layer_1" xmlns="http://www.w3.org/2000/svg" xmlns:xlink="http://www.w3.org/1999/xlink" x="0px" y="0px"
	 viewBox="0 0 250 250" enable-background="new 0 0 250 250" xml:space="preserve">
<g id="Layer_1_1_" display="none">
	<g id="gybUae.tif" display="inline">
		
			<image overflow="visible" enable-background="new    " width="576" height="595" id="Layer_0_1_" xlink:href="../../../../../portfolio/liamzm_portfolio/public/DB52EE57181C72A5.png"  transform="matrix(0.4104 0 0 0.4104 9.4662 -9.941132e-02)">
		</image>
	</g>
</g>
<path fill="none" stroke="#000000" stroke-width="10.8012" stroke-miterlimit="10" d="M194.8,149.4"/>
<path fill="none" stroke="#7674B1" stroke-width="5" stroke-miterlimit="10" d="M246.8,143.4c-1.8-4.4-5.9-7.4-11-7.7
	c-3.7-0.2-19.8-0.5-21.6-0.5l-0.1,0c1-1.8,1.8-3.5,2.5-5c0.2-0.4,18.6-41.5,22.3-66.7c1.7-11.2,1.1-19.2-1.9-25.9
	c-2.9-6.6-7.6-10.8-12.5-15.2c-0.9-0.8-1.8-1.7-2.8-2.6c-11.9-11-26-15.7-46.7-15.7c-15.3,0-26.2,2.9-29.8,3.9
	c-6.1-1.3-12.6-1.9-19.5-1.9c-0.7,0-1.5,0-2.2,0c-2.1,0-13.4,1.7-24.9,7.9C92,11.9,78,8,63.7,7.5c-1.4,0-2.8-0.1-4-0.1
	c-19.5,0-30.9,6-45.2,23.7C0.6,47.9,6.1,72.2,10.1,90c1.1,4.5,2,8.9,2.5,12c2.3,17.7,19,58.6,23.5,66.9c4.6,8.5,13.6,13.8,23.6,13.8
	c4,0,8-1,11.5-2.8c0.6-0.3,1.3-0.7,2.1-1.3c3.6,4.3,9.3,7.5,15.8,8.3c3.4,0.4,7.3,0.9,11.3,0.9c4.7,0,8.7-0.6,12-1.9
	c0.5,19,1,28.7,2.5,33.4c2.9,9.3,13,26.9,30.4,26.9c14.6,0,25.7-4.4,33.9-13.7c2.7-3.1,6.6-9.1,10.1-26.3c2-10,3.1-20.4,3.5-26.9
	c0.1-1.4,0.2-2.8,0.2-4c0-0.7,0.1-1.4,0.1-2c3.4,0.3,10,0.8,16.5,0.9c0.5,0,1.1,0,1.6,0c12,0,21.1-3.4,27.7-10.3
	C244.4,158.2,249.7,151.1,246.8,143.4z M170.8,225.5c-6.4,7.2-14.9,10.1-25.8,10.1c-10.9,0-18.1-12.8-20.1-19.4
	c-1.8-5.6-2-35.4-2.6-50.8c-2,1.7-8.3,6.9-12.1,9.5c-2.5,1.7-6.2,2.3-10.2,2.3c-3.4,0-6.8-0.4-9.9-0.8c-6.7-0.8-11.5-5.8-9.4-8.8
	c2.1-3,12.1-1.5,21.7-6.9c7-3.9,7.3-8.9,7-11.4c-0.5,0-1.1,0-1.6-0.1c-4.8-0.4-18.6-6.4-18.6-6.4S72.2,167,65.9,170.4
	c-1.9,1-4,1.5-6.3,1.5c-5.3,0-11.2-2.8-14.1-8.2c-4.1-7.7-20.2-47.2-22.3-63.2c-2-15.9-14-45.9-0.5-62.6
	c12.6-15.5,21.2-19.6,36.8-19.6c1.2,0,2.4,0,3.7,0.1c18,0.6,35.6,7.3,35.6,7.3s23.6-7.5,24.9-7.6c0.7,0,1.4-1,2-1
	c8.3,0,21.7,1.7,21.7,1.7c0.1-0.1,10.8-3.9,27.6-3.9c16.9,0,28.8,3.2,39.4,12.9c10.7,9.8,16.9,12.9,13.7,34.1
	c-3.2,21-18.2,56.6-21.5,63.9c-3.2,6.9-11.1,19.6-12.1,21.1l-0.5,0.4c-2.2,1.1-3.9,2.4-5.4,3.9l-3.6,2.6l-3.1,18.7
	c-0.1,2.1-0.2,4.2-0.3,6.3C180.9,191.6,177.2,218.2,170.8,225.5z M231.2,156.6c-4.7,4.9-11.5,6.9-19.9,6.9c-0.4,0-0.9,0-1.4,0
	c-6.1-0.1-12.1-0.6-15.5-0.8c0.5-1.6,1.2-2.8,2.1-3.8l2.9-2.1c0.1,0,0.1-0.1,0.2-0.1l3.3-2.4l11.3-8.1c0,0,17.7,0.3,21.2,0.5
	C238.9,146.8,236.1,151.4,231.2,156.6z"/>
</svg>
