<?xml version="1.0" encoding="utf-8"?>
<!-- Generator: Adobe Illustrator 18.0.0, SVG Export Plug-In . SVG Version: 6.00 Build 0)  -->
<svg version="1.1" id="Layer_1" xmlns="http://www.w3.org/2000/svg" xmlns:xlink="http://www.w3.org/1999/xlink" x="0px" y="0px"
	 viewBox="0 0 250 250" enable-background="new 0 0 250 250" xml:space="preserve">
<path fill="#FFFFFF" stroke="#595A5C" stroke-width="3.4" stroke-miterlimit="10" d="M232.5,207.5H19.9c-6.2,0-11.2-5-11.2-11.2
	V48.8c0-6.2,5-11.2,11.2-11.2h212.6c6.2,0,11.2,5,11.2,11.2v147.5C243.7,202.5,238.6,207.5,232.5,207.5z"/>
<rect x="28.3" y="80.6" fill="#E3E1EA" stroke="#595A5C" stroke-width="1.9789" stroke-miterlimit="10" width="68.9" height="48.8"/>
<rect x="28.3" y="137.9" fill="#E3E1EA" stroke="#595A5C" stroke-width="1.9789" stroke-miterlimit="10" width="68.9" height="48.8"/>
<rect x="106.4" y="80.6" fill="#E3E1EA" stroke="#595A5C" stroke-width="1.9789" stroke-miterlimit="10" width="122.3" height="48.8"/>
<path fill="#E3E1EA" stroke="#595A5C" stroke-width="1.9789" stroke-miterlimit="10" d="M225.1,68.9H30.7c-1.5,0-2.8-1.2-2.8-2.8
	v-2.2c0-1.5,1.2-2.8,2.8-2.8h194.4c1.5,0,2.8,1.2,2.8,2.8v2.2C227.9,67.6,226.7,68.9,225.1,68.9z"/>
<g>
	<path fill="#E3E1EA" d="M127.5,180.5c-9.4,0-17.1-7.7-17.1-17.1c0-9.4,7.7-17.1,17.1-17.1s17.1,7.7,17.1,17.1
		S136.9,180.5,127.5,180.5z"/>
	<g>
		<path fill="#595A5C" d="M127.5,147.3c8.9,0,16.1,7.2,16.1,16.1c0,8.9-7.2,16.1-16.1,16.1s-16.1-7.2-16.1-16.1
			C111.4,154.5,118.6,147.3,127.5,147.3 M127.5,145.4c-10,0-18.1,8.1-18.1,18.1s8.1,18.1,18.1,18.1s18.1-8.1,18.1-18.1
			S137.4,145.4,127.5,145.4L127.5,145.4z"/>
	</g>
</g>
<g>
	<path fill="#E3E1EA" d="M169.2,180.5c-9.4,0-17.1-7.7-17.1-17.1c0-9.4,7.7-17.1,17.1-17.1c9.4,0,17.1,7.7,17.1,17.1
		S178.6,180.5,169.2,180.5z"/>
	<g>
		<path fill="#595A5C" d="M169.2,147.3c8.9,0,16.1,7.2,16.1,16.1c0,8.9-7.2,16.1-16.1,16.1c-8.9,0-16.1-7.2-16.1-16.1
			C153.2,154.5,160.4,147.3,169.2,147.3 M169.2,145.4c-10,0-18.1,8.1-18.1,18.1s8.1,18.1,18.1,18.1s18.1-8.1,18.1-18.1
			S179.2,145.4,169.2,145.4L169.2,145.4z"/>
	</g>
</g>
<g>
	<path fill="#E3E1EA" d="M213.5,180.5c-9.4,0-17.1-7.7-17.1-17.1c0-9.4,7.7-17.1,17.1-17.1c9.4,0,17.1,7.7,17.1,17.1
		C230.5,172.8,222.9,180.5,213.5,180.5z"/>
	<g>
		<path fill="#595A5C" d="M213.5,147.3c8.9,0,16.1,7.2,16.1,16.1c0,8.9-7.2,16.1-16.1,16.1s-16.1-7.2-16.1-16.1
			S204.6,147.3,213.5,147.3 M213.5,145.4c-10,0-18.1,8.1-18.1,18.1s8.1,18.1,18.1,18.1s18.1-8.1,18.1-18.1S223.4,145.4,213.5,145.4
			L213.5,145.4z"/>
	</g>
</g>
<rect x="112.9" y="86.4" fill="#8EC641" width="110.3" height="37.7"/>
<path fill="#595A5C" d="M6,67.7h2.3c0.5,0,0.8-0.4,0.8-0.8V54.5c0-0.5-0.4-0.8-0.8-0.8H6c-0.5,0-0.8,0.4-0.8,0.8v12.3
	C5.1,67.3,5.5,67.7,6,67.7z"/>
<path fill="#595A5C" d="M6.9,87.7h1.5c0.5,0,0.8-0.4,0.8-0.8V74.5c0-0.5-0.4-0.8-0.8-0.8H6.9c-0.5,0-0.8,0.4-0.8,0.8v12.3
	C6.1,87.3,6.4,87.7,6.9,87.7z"/>
</svg>
