<?xml version="1.0" encoding="utf-8"?>
<!-- Generator: Adobe Illustrator 18.0.0, SVG Export Plug-In . SVG Version: 6.00 Build 0)  -->
<svg version="1.1" id="Layer_1" xmlns="http://www.w3.org/2000/svg" xmlns:xlink="http://www.w3.org/1999/xlink" x="0px" y="0px"
	 viewBox="0 0 250 250" enable-background="new 0 0 250 250" xml:space="preserve">
<g>
	<path fill="#F7941E" d="M14.7,247.5c-6.7,0-12.2-5.5-12.2-12.2V14.7C2.5,8,8,2.5,14.7,2.5h220.7c6.7,0,12.2,5.5,12.2,12.2v220.7
		c0,6.7-5.5,12.2-12.2,12.2H14.7z"/>
	<path fill="#FFFFFF" d="M235.3,5c5.3,0,9.7,4.3,9.7,9.7v220.7c0,5.3-4.3,9.7-9.7,9.7H14.7c-5.3,0-9.7-4.3-9.7-9.7V14.7
		C5,9.3,9.3,5,14.7,5H235.3 M235.3,0H14.7C6.6,0,0,6.6,0,14.7v220.7c0,8.1,6.6,14.7,14.7,14.7h220.7c8.1,0,14.7-6.6,14.7-14.7V14.7
		C250,6.6,243.4,0,235.3,0L235.3,0z"/>
</g>
<rect x="-289" y="68" fill="#BFBACD" stroke="#FFFFFF" stroke-width="5" stroke-miterlimit="10" width="52" height="52"/>
<g>
	<path fill="#FFFFFF" d="M119.7,193c-1-0.2-2.1-0.5-3.4-0.8c-1.3-0.3-2.7-0.4-4.2-0.4c-0.7,0-1.5,0.1-2.4,0.2
		c-0.9,0.1-1.6,0.3-2.1,0.4v28.9H96.8v-35.9c1.9-0.7,4.2-1.3,6.8-1.9s5.5-0.9,8.7-0.9c0.6,0,1.3,0,2.1,0.1c0.8,0.1,1.6,0.2,2.4,0.3
		c0.8,0.1,1.6,0.3,2.4,0.4c0.8,0.2,1.5,0.4,2.1,0.6L119.7,193z"/>
	<path fill="#FFFFFF" d="M124.7,202.7c0-3.4,0.5-6.3,1.5-8.8s2.4-4.6,4.1-6.3c1.7-1.7,3.6-3,5.8-3.8c2.2-0.9,4.4-1.3,6.7-1.3
		c5.4,0,9.6,1.6,12.7,4.9s4.7,8.1,4.7,14.5c0,0.6,0,1.3-0.1,2.1c0,0.8-0.1,1.4-0.1,2h-24.3c0.2,2.2,1.3,4,3.1,5.3
		c1.8,1.3,4.3,1.9,7.3,1.9c2,0,3.9-0.2,5.8-0.5s3.4-0.8,4.6-1.3l1.4,8.7c-0.6,0.3-1.3,0.6-2.3,0.9s-2,0.5-3.2,0.8
		c-1.2,0.2-2.4,0.4-3.8,0.5c-1.3,0.1-2.7,0.2-4,0.2c-3.4,0-6.4-0.5-8.9-1.5s-4.6-2.4-6.3-4.1c-1.7-1.8-2.9-3.8-3.7-6.2
		C125.1,208,124.7,205.5,124.7,202.7z M149.9,198.6c0-0.9-0.2-1.8-0.5-2.7c-0.3-0.9-0.7-1.6-1.2-2.3c-0.6-0.7-1.2-1.2-2.1-1.7
		c-0.8-0.4-1.9-0.6-3.1-0.6c-1.2,0-2.2,0.2-3.1,0.6c-0.9,0.4-1.6,0.9-2.2,1.6c-0.6,0.7-1,1.5-1.3,2.3c-0.3,0.9-0.5,1.8-0.7,2.7
		H149.9z"/>
	<path fill="#FFFFFF" d="M179.4,213.6c2,0,3.4-0.2,4.2-0.6c0.8-0.4,1.2-1.1,1.2-2.2c0-0.9-0.5-1.6-1.6-2.3c-1.1-0.7-2.7-1.4-4.8-2.2
		c-1.7-0.6-3.2-1.3-4.6-1.9c-1.4-0.7-2.5-1.5-3.5-2.4c-1-0.9-1.7-2.1-2.2-3.4c-0.5-1.3-0.8-2.9-0.8-4.7c0-3.6,1.3-6.4,4-8.4
		s6.3-3.1,10.9-3.1c2.3,0,4.5,0.2,6.6,0.6s3.8,0.8,5,1.3l-1.9,8.4c-1.3-0.4-2.6-0.8-4.1-1.2s-3.1-0.5-4.9-0.5c-3.4,0-5,0.9-5,2.8
		c0,0.4,0.1,0.8,0.2,1.2s0.4,0.7,0.9,1c0.4,0.3,1,0.7,1.8,1s1.7,0.8,2.8,1.2c2.3,0.9,4.3,1.7,5.8,2.6c1.5,0.8,2.7,1.8,3.6,2.7
		c0.9,1,1.5,2.1,1.9,3.3c0.4,1.2,0.5,2.6,0.5,4.2c0,3.7-1.4,6.6-4.2,8.5c-2.8,1.9-6.8,2.9-11.9,2.9c-3.4,0-6.2-0.3-8.4-0.9
		c-2.2-0.6-3.8-1.1-4.6-1.4l1.8-8.7c1.8,0.7,3.7,1.3,5.6,1.7C175.7,213.4,177.5,213.6,179.4,213.6z"/>
	<path fill="#FFFFFF" d="M203.1,174l10.7-1.7v11.2h12.9v8.9h-12.9v13.3c0,2.3,0.4,4.1,1.2,5.4c0.8,1.3,2.4,2,4.8,2
		c1.2,0,2.3-0.1,3.6-0.3c1.2-0.2,2.3-0.5,3.3-0.9l1.5,8.4c-1.3,0.5-2.7,1-4.3,1.4c-1.6,0.4-3.5,0.6-5.8,0.6c-2.9,0-5.4-0.4-7.3-1.2
		s-3.5-1.9-4.6-3.3c-1.2-1.4-2-3.1-2.4-5.1c-0.5-2-0.7-4.2-0.7-6.7V174z"/>
</g>
</svg>
