<?xml version="1.0" encoding="utf-8"?>
<!-- Generator: Adobe Illustrator 18.0.0, SVG Export Plug-In . SVG Version: 6.00 Build 0)  -->
<svg version="1.1" id="Layer_1" xmlns="http://www.w3.org/2000/svg" xmlns:xlink="http://www.w3.org/1999/xlink" x="0px" y="0px"
	 viewBox="0 0 250 250" enable-background="new 0 0 250 250" xml:space="preserve">
<g>
	<path fill="#92278F" d="M14.7,247.5c-6.7,0-12.2-5.5-12.2-12.2V14.7C2.5,8,8,2.5,14.7,2.5h220.7c6.7,0,12.2,5.5,12.2,12.2v220.7
		c0,6.7-5.5,12.2-12.2,12.2H14.7z"/>
	<path fill="#450F44" d="M235.3,5c5.3,0,9.7,4.3,9.7,9.7v220.7c0,5.3-4.3,9.7-9.7,9.7H14.7c-5.3,0-9.7-4.3-9.7-9.7V14.7
		C5,9.3,9.3,5,14.7,5H235.3 M235.3,0H14.7C6.6,0,0,6.6,0,14.7v220.7c0,8.1,6.6,14.7,14.7,14.7h220.7c8.1,0,14.7-6.6,14.7-14.7V14.7
		C250,6.6,243.4,0,235.3,0L235.3,0z"/>
</g>
<rect x="-289" y="68" fill="#BFBACD" stroke="#FFFFFF" stroke-width="5" stroke-miterlimit="10" width="52" height="52"/>
<rect x="-218" y="225" fill="#C2B59B" stroke="#FFFFFF" stroke-width="5" stroke-miterlimit="10" width="67" height="67"/>
<g>
	<path fill="#C7A0CB" d="M60.2,227.6c-2,0.6-4.6,1.1-7.7,1.6c-3.1,0.5-6.5,0.7-9.9,0.7c-3.5,0-6.4-0.5-8.8-1.4
		c-2.3-0.9-4.2-2.3-5.6-4c-1.4-1.7-2.3-3.7-2.9-6.1c-0.6-2.4-0.9-5-0.9-7.8v-23.1h11.7v21.6c0,3.8,0.5,6.5,1.5,8.2
		c1,1.7,2.9,2.5,5.6,2.5c0.8,0,1.7,0,2.7-0.1c0.9-0.1,1.8-0.2,2.5-0.3v-32h11.7V227.6z"/>
	<path fill="#C7A0CB" d="M84,175.6c0,2.2-0.7,3.8-2.1,5.1c-1.4,1.2-3,1.8-4.9,1.8c-1.9,0-3.5-0.6-4.9-1.8c-1.4-1.2-2.1-2.9-2.1-5.1
		c0-2.1,0.7-3.8,2.1-5.1c1.4-1.2,3-1.8,4.9-1.8c1.9,0,3.5,0.6,4.9,1.8C83.4,171.8,84,173.5,84,175.6z M82.9,229H71.2v-41.4h11.7V229
		z"/>
</g>
<g>
	<path fill="#450F44" d="M179.3,228.4c-2,0.6-4.6,1.1-7.7,1.6c-3.1,0.5-6.5,0.7-9.9,0.7c-3.5,0-6.4-0.5-8.8-1.4
		c-2.3-0.9-4.2-2.3-5.6-4c-1.4-1.7-2.3-3.7-2.9-6.1c-0.6-2.4-0.9-5-0.9-7.8v-23.1h11.7V210c0,3.8,0.5,6.5,1.5,8.2
		c1,1.7,2.9,2.5,5.6,2.5c0.8,0,1.7,0,2.7-0.1c0.9-0.1,1.8-0.2,2.5-0.3v-32h11.7V228.4z"/>
	<path fill="#450F44" d="M206.8,200l8.2-11.6h12.1l-14.4,20.1c3.3,3.8,6.2,7.5,8.8,11.3c2.6,3.7,4.6,7.1,6.1,10h-12.6
		c-0.4-0.8-1-1.8-1.6-3c-0.6-1.2-1.3-2.4-2.1-3.7c-0.8-1.3-1.6-2.4-2.5-3.3c-0.9-0.9-1.7-1.7-2.5-2.4c-0.8,0.7-1.6,1.4-2.4,2.3
		c-0.8,0.8-1.6,1.8-2.3,3.1c-0.7,1.2-1.5,2.5-2.2,3.7c-0.7,1.2-1.3,2.3-1.9,3.4h-11.9c0.7-1.3,1.5-2.8,2.6-4.6
		c1.1-1.8,2.3-3.7,3.6-5.6c1.3-1.9,2.7-3.8,4.2-5.6c1.5-1.8,3-3.5,4.4-5.1c-2.6-3.7-5-7.2-7.4-10.5c-2.4-3.4-4.7-6.7-7-10h12.7
		L206.8,200z"/>
</g>
<rect x="-138" y="101.3" fill="#92278F" stroke="#FFFFFF" stroke-width="5" stroke-miterlimit="10" width="68" height="68"/>
</svg>
