<?xml version="1.0" encoding="utf-8"?>
<!-- Generator: Adobe Illustrator 18.0.0, SVG Export Plug-In . SVG Version: 6.00 Build 0)  -->
<svg version="1.1" id="Layer_1" xmlns="http://www.w3.org/2000/svg" xmlns:xlink="http://www.w3.org/1999/xlink" x="0px" y="0px"
	 viewBox="0 0 250 250" enable-background="new 0 0 250 250" xml:space="preserve">
<g>
	<path fill="#F5FAF7" d="M125.3,247.7c-67.6,0-122.7-55-122.7-122.7S57.7,2.3,125.3,2.3C193,2.3,248,57.4,248,125
		S193,247.7,125.3,247.7z"/>
	<path fill="#364B5D" d="M125.3,3.3c32.5,0,63.1,12.7,86,35.6c23,23,35.6,53.5,35.6,86s-12.7,63.1-35.6,86c-23,23-53.5,35.6-86,35.6
		S62.3,234,39.3,211c-23-23-35.6-53.5-35.6-86s12.7-63.1,35.6-86C62.3,16,92.8,3.3,125.3,3.3 M125.3,1.3C57,1.3,1.7,56.7,1.7,125
		S57,248.7,125.3,248.7S249,193.3,249,125S193.6,1.3,125.3,1.3L125.3,1.3z"/>
</g>
<g>
	<path fill="#46B685" d="M333.6,282.2l-21,48.3h-8.8l-21.1-48.3h9.7l16.1,37.2l16.2-37.2H333.6z"/>
	<path fill="#46B685" d="M374.6,293.6v36.8h-8.2v-4.7c-1.4,1.7-3.1,3-5.2,3.9c-2.1,0.9-4.3,1.3-6.7,1.3c-4.8,0-8.6-1.3-11.4-4
		c-2.8-2.7-4.3-6.8-4.4-12.3v-21h8.6v19.9c0,3.4,0.8,5.8,2.3,7.4c1.5,1.6,3.6,2.4,6.3,2.4c3,0,5.5-0.9,7.3-2.8
		c1.8-1.9,2.7-4.7,2.8-8.3v-18.6H374.6z"/>
	<path fill="#46B685" d="M420.5,312.3c0,0.4,0,0.8-0.1,1.2c0,0.5,0,0.9-0.1,1.3h-28.9c0.5,2.7,1.9,4.8,3.9,6.4
		c2.1,1.6,4.8,2.4,8,2.4c2.1,0,3.9-0.3,5.6-1c1.7-0.7,3.1-1.7,4.4-3l4.6,5.3c-1.7,2-3.7,3.5-6.3,4.5c-2.5,1-5.4,1.5-8.5,1.5
		c-6.3-0.1-11.2-1.9-14.8-5.3c-3.6-3.5-5.4-8-5.5-13.6c0.1-5.6,1.9-10.1,5.4-13.5c3.5-3.4,8-5.2,13.6-5.3c5.5,0.1,9.9,1.8,13.4,5.2
		C418.7,301.8,420.4,306.4,420.5,312.3z M401.9,300.1c-2.8,0-5.2,0.9-7,2.5c-1.8,1.6-3,3.8-3.4,6.5h20.9c-0.4-2.7-1.5-4.9-3.3-6.5
		C407.1,301,404.7,300.2,401.9,300.1z"/>
	<path fill="#46B685" d="M431.5,330.9c-1.6,0-2.9-0.6-4-1.7c-1.1-1-1.6-2.4-1.7-4.1c0-1.7,0.6-3.1,1.7-4.1c1.1-1.1,2.4-1.6,4-1.6
		c1.6,0,2.9,0.5,4,1.6c1.1,1,1.6,2.4,1.7,4.1c0,1.7-0.6,3.1-1.7,4.1C434.5,330.3,433.1,330.9,431.5,330.9z"/>
	<path fill="#46B685" d="M441.8,344.3c-1.6,0-3.1-0.2-4.5-0.5c-1.5-0.4-2.7-0.9-3.7-1.7l2.5-6.4c0.6,0.5,1.4,0.8,2.3,1.1
		c0.9,0.2,1.8,0.3,2.8,0.3c1.6,0,2.8-0.5,3.7-1.4c0.9-1,1.3-2.4,1.3-4.4v-37.7h8.6v37.5c0,4.1-1.1,7.3-3.3,9.6
		C449.1,343.1,445.9,344.3,441.8,344.3z M450.3,287.6c-1.6,0-2.9-0.6-3.9-1.5c-1-1-1.5-2.2-1.6-3.7c0-1.5,0.6-2.7,1.6-3.7
		c1-1,2.3-1.5,3.9-1.5c1.6,0,2.9,0.5,3.9,1.4c1,0.9,1.5,2.1,1.6,3.5c0,1.6-0.5,2.8-1.5,3.8C453.3,287,451.9,287.5,450.3,287.6z"/>
	<path fill="#46B685" d="M477.3,330.9c-3.1,0-6.1-0.4-8.8-1.2c-2.8-0.8-5.1-1.8-6.8-3l3.3-6.5c1.7,1.1,3.6,2,5.9,2.6
		c2.3,0.7,4.5,1,6.9,1c2.7,0,4.7-0.4,5.9-1.1c1.2-0.7,1.8-1.7,1.8-3c-1-2.8-4.8-4.4-11.4-4.7c-6.6-0.3-10.4-3.8-11.4-10.4
		c0-3.5,1.5-6.3,4.4-8.3c2.8-2.1,6.8-3.1,11.8-3.2c2.5,0,5,0.3,7.5,0.8c2.5,0.5,4.6,1.3,6.3,2.3l-3.3,6.5c-1.7-1-3.5-1.7-5.2-2.1
		c-1.8-0.4-3.6-0.6-5.3-0.6c-2.6,0-4.5,0.4-5.8,1.2c-1.3,0.7-1.9,1.7-1.9,3c1,3,4.8,4.7,11.4,5c6.6,0.3,10.4,3.7,11.4,10.2
		c0,3.5-1.5,6.2-4.5,8.3C486.6,329.9,482.5,330.9,477.3,330.9z"/>
</g>
<rect x="-154" y="90" fill="#46B685" width="45.3" height="45.3"/>
<image overflow="visible" width="290" height="194" xlink:href="../../../../../../Desktop/Screen Shot 2021-11-11 at 3.04.40 PM.png"  transform="matrix(0.5 0 0 0.5 -200 196.6667)">
</image>
<rect x="-85.3" y="88" fill="#46B685" width="36" height="36"/>
<rect x="-90.7" y="-19.3" fill="#DAECE1" width="46.7" height="46.7"/>
<rect x="392.7" y="92" fill="none" width="282.7" height="248.7"/>
<text transform="matrix(1 0 0 1 392.6668 129.0995)" font-family="'Montserrat-ExtraBold'" font-size="50">V</text>
<g>
	<path fill="#46B685" d="M199.3,65.8l-57.6,134.3h-37.4L46.9,65.8H88l36.5,87.5l37.2-87.5H199.3z"/>
</g>
<rect x="312.7" y="43.3" fill="#F5FAF7" width="57.3" height="57.3"/>
</svg>
