<?xml version="1.0" encoding="utf-8"?>
<!-- Generator: Adobe Illustrator 18.0.0, SVG Export Plug-In . SVG Version: 6.00 Build 0)  -->
<svg version="1.1" id="Layer_1" xmlns="http://www.w3.org/2000/svg" xmlns:xlink="http://www.w3.org/1999/xlink" x="0px" y="0px"
	 viewBox="0 0 250 250" enable-background="new 0 0 250 250" xml:space="preserve">
<g>
	<path fill="#2B3990" d="M13.2,147.3V87.1h41V67.1h16.4v20.1h42v59.7H96.2V141H70.7v36H54.3v-36H29.2v6.4H13.2z M29.2,102.2v23.7
		h25.1v-23.7H29.2z M96.2,102.2H70.7v23.7h25.5V102.2z"/>
	<path fill="#51559F" d="M125.4,99V84.4h47.9l-4.6-15.5l17.8-1.4c1.5,5.5,2.9,11.1,4.1,16.9H234V99h-17.8
		c-4.9,18.2-13.1,33.3-24.6,45.2c11.6,7.6,26,13.1,43.3,16.4c-3.6,4.9-6.8,9.7-9.6,14.6c-19.8-5.8-35.1-12.6-46.1-20.5
		c-10.3,7-25.5,14.1-45.6,21.4c-3.3-5.8-6.4-10.5-9.1-14.1c17.9-4.9,32.1-10.9,42.4-18.2c-10.9-11.9-19-26.8-24.2-44.7H125.4z
		 M179.2,134.1c10-9.4,16.6-21.1,19.6-35.1h-39.7C163.4,113.3,170.1,125,179.2,134.1z"/>
</g>
<g>
	<g>
		<line fill="none" stroke="#2B3990" stroke-miterlimit="10" x1="16.7" y1="195.3" x2="17.7" y2="195.3"/>
		
			<line fill="none" stroke="#2B3990" stroke-miterlimit="10" stroke-dasharray="1.9873,1.9873" x1="19.7" y1="195.3" x2="225.3" y2="195.3"/>
		<line fill="none" stroke="#2B3990" stroke-miterlimit="10" x1="226.3" y1="195.3" x2="227.3" y2="195.3"/>
	</g>
</g>
<rect x="-125.3" y="140.7" fill="#51559F" width="70" height="70"/>
</svg>
